<?xml version="1.0" encoding="UTF-8"?>
<svg id="Layer_1" xmlns="http://www.w3.org/2000/svg" version="1.1" xmlns:xlink="http://www.w3.org/1999/xlink" viewBox="0 0 612 396">
  <!-- Generator: Adobe Illustrator 30.1.0, SVG Export Plug-In . SVG Version: 2.1.1 Build 136)  -->
  <defs>
    <style>
      .st0 {
        clip-path: url(#clippath-4);
      }

      .st1 {
        fill: #231f20;
      }

      .st2 {
        fill: #fff;
      }

      .st3 {
        fill: none;
      }

      .st4 {
        clip-path: url(#clippath-1);
      }

      .st5 {
        fill: #f15627;
      }

      .st6 {
        clip-path: url(#clippath-3);
      }

      .st7 {
        fill: #f7df2d;
      }

      .st8 {
        clip-path: url(#clippath-2);
      }

      .st9 {
        clip-path: url(#clippath);
      }
    </style>
    <clipPath id="clippath">
      <rect class="st3" width="612" height="396"/>
    </clipPath>
    <clipPath id="clippath-1">
      <rect class="st3" x="13.82" y="8.28" width="588.67" height="294.34"/>
    </clipPath>
    <clipPath id="clippath-2">
      <rect class="st3" x="69.12" y="322.15" width="92.02" height="46.01"/>
    </clipPath>
    <clipPath id="clippath-3">
      <rect class="st3" x="253.44" y="320.4" width="95.52" height="47.76"/>
    </clipPath>
    <clipPath id="clippath-4">
      <rect class="st3" x="432" y="320.4" width="95.52" height="47.76"/>
    </clipPath>
  </defs>
  <g class="st9">
    <g class="st4">
      <path class="st1" d="M537.75,284.75c-155.28-44.93-312.52-44.93-467.79,0-4.02-13.07-6.03-19.6-10.05-32.67-.64-2.07.65-4.31,2.87-4.98,160.14-45.64,322.51-45.6,482.62.14,1.97.6,3.1,2.57,2.54,4.41-4.07,13.24-6.11,19.86-10.18,33.11"/>
      <polygon class="st1" points="70.73 286.88 94.27 280.5 94.9 285.32 102.61 289.17 89.86 293.42 70.73 286.88"/>
      <polygon class="st1" points="536.88 286.8 513.33 280.42 512.71 285.24 504.99 289.09 517.75 293.34 536.88 286.8"/>
      <path class="st5" d="M57.94,229.64c3.98-2.46,5.97-3.66,9.96-6.03.43-7.46.64-11.18,1.07-18.61.02-28,.04-56,.06-83.99-.42-7.31-.63-10.98-1.05-18.32-4.01-1.34-6.02-2.03-10.03-3.42v-4.9c22.05-.07,44.09-.12,66.14-.18,1.61,9.8,2.42,14.67,4.03,24.35-.85.34-1.28.5-2.13.84-.79-.42-1.18-.63-1.97-1.05-3.99-7.15-5.99-10.78-9.98-18.17-7.79.1-11.68.15-19.46.26-3.77,1.01-5.66,1.52-9.43,2.56-.25,5.66-.38,8.5-.63,14.17-.02,14.97-.03,22.46-.06,37.43,4,.34,6,.51,10.01.85,6.55-1.23,9.83-1.82,16.39-2.96,1.35-5.31,2.02-7.95,3.37-13.19.61-.51.91-.76,1.52-1.27.73.33,1.09.49,1.82.81-.04,13.88-.06,20.82-.1,34.7-.67.32-1,.48-1.67.8-.67-.37-1-.55-1.67-.91-1.32-4.88-1.98-7.33-3.3-12.26-6.56.24-9.83.37-16.38.64-4,1.46-6.01,2.2-10.01,3.72-.02,14.49-.03,21.73-.06,36.22.35,6.4.53,9.59.88,15.97,3.63.36,5.44.54,9.07.89,7.2-1.66,10.8-2.46,18.02-3.99,3.46-2.96,5.19-4.42,8.65-7.28,3.48-8.1,5.22-12.08,8.7-19.93.73-.49,1.1-.73,1.82-1.21,1.28.18,1.91.27,3.19.45-3.2,12.11-4.79,18.24-7.99,30.67-23.14,4.74-46.09,10.36-68.8,16.82v-4.47Z"/>
      <path class="st5" d="M192.05,205.24c-12.27-32.64-24.16-65.39-35.69-98.29-.81,28.74-1.63,57.49-2.44,86.24.23,3.78.34,5.67.57,9.44,5.04.92,7.56,1.38,12.6,2.31.12,1.47.17,2.2.29,3.66-13.75,2.16-20.62,3.37-34.34,6.05,0-1.41,0-2.12.01-3.53,4.99-3.03,7.48-4.5,12.47-7.38.81-5.38,1.21-8.06,2.02-13.41.86-27.69,1.71-55.37,2.57-83.06-.23-2.53-.35-3.79-.59-6.33-4.13-1.47-6.2-2.22-10.33-3.74,0-1.77,0-2.65.01-4.42h29.04c9.51,26.91,19.25,53.73,29.21,80.48.55.22.82.34,1.37.56.49-.59.73-.88,1.22-1.46,6.68-20.24,13.45-40.43,20.29-60.62,2.28-7.62,3.41-11.41,5.69-18.96h30.26c.18,1.62.27,2.43.45,4.05-3.65.85-5.48,1.28-9.13,2.14-.61,2.87-.92,4.3-1.54,7.18.55,23.55,1.1,47.1,1.66,70.66.72,6.6,1.07,9.9,1.79,16.49,4.09.85,6.13,1.29,10.22,2.17.12,1.35.18,2.02.3,3.38-15.57.84-23.35,1.43-38.91,2.93-.06-1.39-.08-2.08-.14-3.47,3.97-1.24,5.95-1.84,9.92-3.02.62-2.88.93-4.32,1.54-7.2-.59-24.9-1.18-49.8-1.77-74.7-.3-1.91-.45-2.86-.74-4.77-.91.27-1.37.41-2.29.69-10.1,29.25-19.93,58.6-29.52,88.03-2.2,3.18-3.3,4.77-5.51,8-.24-.04-.37-.06-.61-.09"/>
      <path class="st5" d="M265.13,195.66c4.03-1.28,6.05-1.91,10.08-3.15.44-5.67.65-8.5,1.09-14.17.03-21.57.06-43.14.09-64.71-.42-5.65-.63-8.48-1.05-14.13-4.01-1.02-6.02-1.53-10.03-2.55,0-1.55,0-2.32,0-3.87,16.36.06,24.54.09,40.9.15,15.67,0,31.95,9.79,31.97,27.43.02,19.73-13.68,31.64-30.3,31.65-3.17-.96-4.76-1.43-7.92-2.37-.61-1.28-.92-1.91-1.52-3.19.12-.19.18-.29.3-.48,2.07.24,3.11.37,5.18.62,9.91-.03,17.52-8.91,17.51-23.3,0-14.54-7.47-25.9-21-25.89-3.16.77-4.75,1.15-7.91,1.92-.25,4.61-.37,6.91-.62,11.52-.02,22.28-.03,44.57-.05,66.85.36,5.62.54,8.43.9,14.06,3.85,1.02,5.77,1.54,9.62,2.6v3.2c-14.91.11-22.36.32-37.26,1.04,0-1.29,0-1.94,0-3.23"/>
      <path class="st5" d="M340.53,195.17c4.03-.96,6.04-1.42,10.07-2.34.42-5.65.63-8.48,1.05-14.14-.04-21.66-.07-43.31-.11-64.97-.43-5.68-.65-8.52-1.09-14.19-4.02-1.11-6.02-1.66-10.04-2.75,0-1.48,0-2.22,0-3.69,15.15,0,22.72,0,37.87,0,0,1.51,0,2.26,0,3.77-4.01,1.1-6.02,1.65-10.03,2.74-.35,5.72-.53,8.58-.88,14.3.05,21.84.1,43.68.15,65.51.38,5.74.57,8.62.95,14.36,4.03,1.36,6.05,2.05,10.08,3.46,0,1.31,0,1.96,0,3.27-15.2-1.17-22.8-1.59-38.01-2.12,0-1.29,0-1.93,0-3.21"/>
      <path class="st5" d="M443.28,193.76c-8.51-15.45-12.77-22.91-21.28-37.49-1.53-1.06-2.29-1.59-3.81-2.64-2.31-.15-3.47-.23-5.79-.37l.11,30.54c.38,5.91.58,8.86.96,14.78,3.9,1.51,5.86,2.28,9.76,3.86,0,1.43,0,2.15.01,3.58-14.99-1.91-22.49-2.71-37.5-4,0-1.38,0-2.07,0-3.46,4.02-.72,6.03-1.07,10.06-1.77.41-5.74.61-8.61,1.02-14.36-.07-22.38-.14-44.76-.21-67.14-.44-5.86-.67-8.78-1.11-14.63-4.02-1.09-6.03-1.63-10.04-2.7,0-1.58,0-2.37-.01-3.95,16.48.02,24.73.03,41.21.05,15.82.02,30.3,10.92,30.38,31.06.05,13.19-11.31,24.08-19.67,26.42-.42.11-.64.16-1.06.27,9.92,16.6,19.54,33.45,28.76,50.45,6.39,3.55,9.59,5.37,15.97,9.15-.05,1.54-.08,2.31-.14,3.85-7.59-1.47-11.39-2.16-18.98-3.46-5.77-.99-13.1-8.04-18.61-18.02M420.3,149.51c10.96.69,20.51-8.18,20.46-22.13-.06-14.82-5.12-28.29-19.87-28.4-3.22.8-4.83,1.19-8.05,1.97-.23,4.86-.34,7.29-.57,12.14.05,14.38.07,21.56.12,35.93,3.16.18,4.75.28,7.91.48"/>
      <path class="st5" d="M483.3,211.82c4-.43,6-.64,10-1.06.4-6.55.61-9.82,1.01-16.39-.08-25.34-.15-50.69-.23-76.04-.45-6.66-.67-9.98-1.11-16.62-4.02-1.34-6.03-2-10.05-3.29,0-1.7,0-2.56-.01-4.26,22.05.05,44.1.11,66.14.17,1.65,10.85,2.47,16.31,4.12,27.34-.85.29-1.28.43-2.12.72-.79-.55-1.18-.82-1.97-1.36-4.01-8.31-6.02-12.38-10.05-20.38-7.78-.12-11.67-.17-19.46-.28-3.77.9-5.65,1.34-9.42,2.2-.23,5.43-.34,8.14-.57,13.55.04,14.34.05,21.51.09,35.84,4.01,1.19,6.01,1.8,10.02,3.04,6.55.26,9.83.41,16.38.7,1.33-5.29,1.99-7.95,3.32-13.31.61-.43.91-.65,1.52-1.09.73.48,1.09.72,1.82,1.2.01,14.99.02,22.49.04,37.48-.66.13-1,.2-1.67.34-.67-.6-1-.91-1.67-1.51-1.34-5.62-2.01-8.41-3.35-13.96-6.55-1.46-9.82-2.17-16.38-3.54-4,.45-6,.67-10.01,1.11.03,13.87.05,20.81.09,34.68.38,6.27.57,9.4.95,15.69,3.64,1.93,5.45,2.92,9.09,4.93,7.2,1.63,10.8,2.49,18,4.26,3.44-1.51,5.16-2.28,8.6-3.85,3.44-7.29,5.16-10.99,8.6-18.53.72-.27,1.09-.4,1.81-.67,1.27.69,1.9,1.04,3.17,1.74-3.14,12.7-4.71,18.94-7.84,31.25-22.74-6.26-45.71-11.68-68.85-16.21,0-1.56,0-2.33-.01-3.89"/>
      <path class="st5" d="M196.66,248.95c-2.66.35-3.99.52-6.66.89-1.58-2.12-2.38-3.18-3.98-5.3-.91-1.2-2.01-1.68-4.36-1.33-1.5.22-2.26.33-3.76.56.25.18.37.27.62.45.43,2.85.65,4.27,1.08,7.12-2.37.36-3.55.54-5.92.91-1.37-8.63-2.05-12.95-3.42-21.58,4.59-.73,6.89-1.08,11.49-1.74,5.94-.86,9.55,1.18,10.12,5.46.29,2.17-.98,4.46-2.97,5.71,0,.02,0,.03,0,.05.89.21,1.8.84,2.45,1.74,2.14,2.82,3.2,4.23,5.3,7.05M182.5,234.04c-2.37.34-3.56.52-5.93.88.25.18.38.27.63.45.19,1.23.28,1.84.46,3.07-.18.25-.28.37-.46.62,2.24-.34,3.36-.51,5.6-.83,2.56-.37,3.2-1.33,3.03-2.53-.16-1.18-1.11-1.97-3.33-1.65"/>
      <path class="st5" d="M220.47,246.48c-7.75.78-12.41-3.3-13.16-9.73-.74-6.38,2.93-11.74,10.91-12.55,8.04-.81,12.66,3.69,13.22,10.11.56,6.48-3.33,11.39-10.97,12.16M218.77,229.35c-4.26.43-5.75,3.04-5.36,6.72.39,3.57,2.34,5.68,6.56,5.25,4.22-.43,5.69-2.89,5.35-6.46-.34-3.6-2.3-5.94-6.56-5.51"/>
      <path class="st5" d="M265.31,242.9c-7.28.34-10.92.55-18.19,1.05-.6-8.72-.9-13.08-1.5-21.8,2.45-.17,3.67-.25,6.12-.4.39,6.45.59,9.68.99,16.13-.2.23-.31.34-.51.57,5.13-.32,7.7-.46,12.84-.7.1,2.06.14,3.09.24,5.15"/>
      <path class="st5" d="M297.23,242.02c-7.28.06-10.93.13-18.21.35-.27-8.74-.4-13.1-.66-21.84,2.45-.07,3.67-.11,6.12-.16.15,6.46.22,9.69.37,16.15-.21.22-.32.33-.53.55,5.14-.12,7.71-.16,12.86-.21.02,2.06.03,3.09.04,5.15"/>
      <path class="st5" d="M321.88,242.45c-7.78-.16-11.91-4.78-11.86-11.26.04-6.42,4.32-11.3,12.34-11.13,8.07.17,12.11,5.2,11.88,11.65-.23,6.5-4.69,10.9-12.36,10.74M322.28,225.25c-4.27-.09-6.07,2.32-6.13,6.02-.05,3.59,1.63,5.92,5.87,6.01,4.24.09,5.99-2.17,6.09-5.76.1-3.61-1.56-6.18-5.84-6.27"/>
      <path class="st5" d="M368.8,227.76c-5.5-.42-8.25-.61-13.75-.94.21.23.31.34.52.57-.06,1.02-.09,1.53-.15,2.56-.23.21-.35.32-.58.53,4.92.29,7.38.46,12.3.83-.15,2.06-.23,3.08-.38,5.14-4.89-.37-7.33-.53-12.22-.82.2.23.31.34.51.57-.18,2.93-.27,4.4-.44,7.33-2.39-.15-3.58-.21-5.96-.34.47-8.73.7-13.09,1.17-21.82,7.76.41,11.65.66,19.4,1.26-.16,2.05-.24,3.08-.39,5.14"/>
      <path class="st5" d="M402.22,230.97c-5.48-.64-8.23-.93-13.72-1.48.2.24.3.36.49.59-.1,1.02-.15,1.53-.26,2.55-.24.2-.36.3-.6.51,4.91.49,7.36.75,12.27,1.31-.23,2.05-.35,3.07-.59,5.12-4.87-.56-7.31-.82-12.19-1.3.2.24.29.35.49.59-.29,2.92-.44,4.38-.73,7.3-2.38-.24-3.57-.35-5.95-.57.81-8.7,1.21-13.05,2.02-21.76,7.75.72,11.62,1.13,19.36,2.02-.24,2.05-.36,3.07-.59,5.12"/>
      <path class="st5" d="M424.24,250.96c-4.18-.61-7.73-2.35-10.42-5.45,1.83-1.39,2.75-2.08,4.59-3.47,1.7,2.08,4.6,3.53,7.03,3.88,3.21.47,4.03-.22,4.13-.91.05-.35-.02-1.1-2.72-2.12-.44-.17-3.43-1.34-3.93-1.52-3.69-1.45-7.6-3.47-7.07-7.48.51-3.8,4.84-6.07,11.28-5.13,4.37.64,7.68,2.59,9.98,5.44-1.87,1.32-2.8,1.98-4.65,3.32-1.38-1.9-3.79-3.39-6.25-3.74-2.93-.42-4.12.15-4.21.79-.08.56.49.93,3.83,2.26.44.2,2.92,1.17,3.42,1.35,4.58,1.77,6.87,4.66,6.38,7.75-.57,3.6-4.47,6.04-11.38,5.04"/>
      <path class="st1" d="M339.09,44.01l-38.9-26.53-39.07,26.06-6.09-4.23c-.69.68-1.63,1.1-2.67,1.1-.13,0-.26-.02-.38-.04l11.05,43.9h69.99l15.59-43.89c-.7-.05-1.35-.27-1.9-.65l-7.62,4.28Z"/>
      <path class="st7" d="M254.78,38.76c.7-.69,1.13-1.65,1.13-2.71,0-2.1-1.7-3.8-3.8-3.8s-3.8,1.7-3.8,3.8c0,1.97,1.5,3.57,3.42,3.76.13.01.25.04.38.04,1.04,0,1.98-.42,2.67-1.1"/>
      <path class="st7" d="M349.12,32.26c-2.1,0-3.8,1.7-3.8,3.8,0,1.29.65,2.44,1.64,3.12.54.38,1.2.6,1.89.65.09,0,.18.03.27.03,2.1,0,3.8-1.7,3.8-3.8s-1.7-3.8-3.8-3.8"/>
    </g>
    <polygon class="st1" points="81.7 364.7 78.01 365.7 81.01 366.72 83 366.06 81.79 365.46 81.7 364.7"/>
    <polygon class="st1" points="147.34 364.7 151.02 365.7 148.02 366.72 146.03 366.06 147.24 365.46 147.34 364.7"/>
    <g class="st8">
      <path class="st1" d="M76.02,356.76c.62-.38.93-.57,1.56-.94.07-1.17.1-1.75.17-2.91,0-4.38,0-8.75,0-13.13-.07-1.14-.1-1.72-.16-2.86-.63-.21-.94-.32-1.57-.53v-.77c3.45-.01,6.89-.02,10.34-.03.25,1.53.38,2.29.63,3.81-.13.05-.2.08-.33.13-.12-.06-.18-.1-.31-.16-.62-1.12-.93-1.68-1.56-2.84-1.22.01-1.83.02-3.04.04-.59.16-.88.24-1.47.4-.04.89-.06,1.33-.1,2.22,0,2.34,0,3.51,0,5.85.63.05.94.08,1.56.13,1.02-.19,1.54-.28,2.56-.46.21-.83.32-1.24.53-2.06.1-.08.14-.12.24-.2.11.05.17.08.29.13,0,2.17-.01,3.25-.02,5.42-.1.05-.16.08-.26.12-.1-.06-.16-.08-.26-.14-.21-.76-.31-1.15-.52-1.92-1.03.04-1.54.06-2.56.1-.63.23-.94.34-1.56.58,0,2.26,0,3.4,0,5.66.06,1,.08,1.5.14,2.5.57.06.85.08,1.42.14,1.12-.26,1.69-.38,2.82-.62.54-.46.81-.69,1.35-1.14.54-1.27.82-1.89,1.36-3.12.11-.08.17-.11.29-.19.2.03.3.04.5.07-.5,1.89-.75,2.85-1.25,4.8-3.62.74-7.21,1.62-10.75,2.63v-.7Z"/>
      <path class="st1" d="M96.98,352.94c-1.92-5.1-3.78-10.22-5.58-15.36-.13,4.49-.25,8.99-.38,13.48.04.59.05.89.09,1.48.79.14,1.18.22,1.97.36.02.23.03.34.04.57-2.15.34-3.22.53-5.37.94,0-.22,0-.33,0-.55.78-.47,1.17-.7,1.95-1.15.13-.84.19-1.26.32-2.1.13-4.33.27-8.66.4-12.98-.04-.4-.06-.59-.09-.99-.65-.23-.97-.35-1.61-.58,0-.28,0-.41,0-.69h4.54c1.49,4.21,3.01,8.4,4.57,12.58.08.03.13.05.21.09.08-.09.11-.14.19-.23,1.04-3.16,2.1-6.32,3.17-9.47.36-1.19.53-1.78.89-2.96h4.73c.03.25.04.38.07.63-.57.13-.86.2-1.43.33-.1.45-.14.67-.24,1.12.08,3.68.17,7.36.26,11.04.11,1.03.17,1.55.28,2.58.64.13.96.2,1.6.34.02.21.03.32.05.53-2.43.13-3.65.22-6.08.46,0-.22-.01-.33-.02-.54.62-.19.93-.29,1.55-.47.1-.45.15-.68.24-1.13-.09-3.89-.19-7.78-.28-11.68-.05-.3-.07-.45-.12-.75-.14.04-.21.07-.36.11-1.58,4.57-3.12,9.16-4.61,13.76-.34.5-.52.75-.86,1.25-.04,0-.06,0-.09-.01"/>
      <path class="st1" d="M108.4,351.44c.63-.2.94-.3,1.57-.49.07-.89.1-1.33.17-2.22,0-3.37,0-6.74.01-10.12-.07-.88-.1-1.33-.16-2.21-.63-.16-.94-.24-1.57-.4,0-.24,0-.36,0-.6,2.56.01,3.84.01,6.39.02,2.45,0,4.99,1.53,5,4.29,0,3.08-2.14,4.95-4.74,4.95-.5-.15-.74-.22-1.24-.37-.09-.2-.14-.3-.24-.5.02-.03.03-.05.05-.08.32.04.49.06.81.1,1.55,0,2.74-1.39,2.74-3.64,0-2.27-1.17-4.05-3.28-4.05-.5.12-.74.18-1.24.3-.04.72-.06,1.08-.1,1.8,0,3.48,0,6.97,0,10.45.06.88.08,1.32.14,2.2.6.16.9.24,1.5.41v.5c-2.33.02-3.5.05-5.83.16,0-.2,0-.3,0-.51"/>
      <path class="st1" d="M120.19,351.37c.63-.15.94-.22,1.57-.37.07-.88.1-1.33.16-2.21,0-3.39-.01-6.77-.02-10.16-.07-.89-.1-1.33-.17-2.22-.63-.17-.94-.26-1.57-.43,0-.23,0-.35,0-.58,2.37,0,3.55,0,5.92,0,0,.24,0,.35,0,.59-.63.17-.94.26-1.57.43-.06.9-.08,1.34-.14,2.24,0,3.41.02,6.83.02,10.24.06.9.09,1.35.15,2.24.63.21.94.32,1.57.54,0,.2,0,.31,0,.51-2.38-.18-3.56-.25-5.94-.33,0-.2,0-.3,0-.5"/>
      <path class="st1" d="M136.25,351.15c-1.33-2.41-2-3.58-3.33-5.86-.24-.17-.36-.25-.6-.41-.36-.02-.54-.04-.9-.06l.02,4.77c.06.92.09,1.39.15,2.31.61.24.92.36,1.53.6,0,.22,0,.34,0,.56-2.34-.3-3.52-.42-5.86-.62,0-.22,0-.32,0-.54.63-.11.94-.17,1.57-.28.06-.9.1-1.35.16-2.24,0-3.5-.02-7-.03-10.49-.07-.92-.1-1.37-.17-2.29-.63-.17-.94-.25-1.57-.42,0-.25,0-.37,0-.62,2.58,0,3.86,0,6.44,0,2.47,0,4.74,1.71,4.75,4.86,0,2.06-1.77,3.76-3.08,4.13-.07.02-.1.03-.16.04,1.55,2.6,3.05,5.23,4.49,7.89,1,.55,1.5.84,2.5,1.43,0,.24-.01.36-.02.6-1.19-.23-1.78-.34-2.97-.54-.9-.15-2.05-1.26-2.91-2.82M132.66,344.23c1.71.11,3.21-1.28,3.2-3.46,0-2.32-.8-4.42-3.11-4.44-.5.12-.75.19-1.26.31-.03.76-.05,1.14-.09,1.9,0,2.25.01,3.37.02,5.62.5.03.74.04,1.24.07"/>
      <path class="st1" d="M142.51,353.97c.63-.07.94-.1,1.56-.17.06-1.02.09-1.54.16-2.56-.01-3.96-.02-7.92-.04-11.88-.07-1.04-.1-1.56-.17-2.6-.63-.21-.94-.31-1.57-.51,0-.27,0-.4,0-.67,3.45,0,6.89.02,10.34.03.26,1.7.39,2.55.64,4.27-.13.04-.2.07-.33.11-.12-.08-.18-.13-.31-.21-.63-1.3-.94-1.94-1.57-3.18-1.22-.02-1.83-.03-3.04-.04-.59.14-.88.21-1.47.34-.04.85-.05,1.27-.09,2.12,0,2.24,0,3.36.01,5.6.63.19.94.28,1.57.47,1.02.04,1.54.06,2.56.11.21-.83.31-1.24.52-2.08.1-.07.14-.1.24-.17.11.08.17.11.29.19,0,2.34,0,3.51,0,5.86-.1.02-.16.03-.26.05-.1-.09-.16-.14-.26-.24-.21-.88-.31-1.31-.52-2.18-1.02-.23-1.54-.34-2.56-.55-.63.07-.94.1-1.56.17,0,2.17,0,3.25.01,5.42.06.98.09,1.47.15,2.45.57.3.85.46,1.42.77,1.13.26,1.69.39,2.81.67.54-.24.81-.36,1.35-.6.54-1.14.81-1.72,1.34-2.9.11-.04.17-.06.28-.1.2.11.3.16.5.27-.49,1.99-.74,2.96-1.23,4.89-3.55-.98-7.14-1.83-10.76-2.53,0-.24,0-.37,0-.61"/>
      <path class="st1" d="M119.96,327.74l-6.08-4.15-6.11,4.07-.95-.66c-.11.11-.25.17-.42.17-.02,0-.04,0-.06,0l1.73,6.86h10.94l2.44-6.86c-.11,0-.21-.04-.3-.1l-1.19.67Z"/>
      <path class="st1" d="M106.78,326.92c.11-.11.18-.26.18-.42,0-.33-.27-.59-.59-.59s-.59.27-.59.59c0,.31.24.56.53.59.02,0,.04,0,.06,0,.16,0,.31-.07.42-.17"/>
      <path class="st1" d="M121.53,325.9c-.33,0-.59.27-.59.59,0,.2.1.38.26.49.08.06.19.1.3.1.01,0,.03,0,.04,0,.33,0,.59-.27.59-.6s-.27-.59-.59-.59"/>
      <path class="st1" d="M101.16,356.71c-.67.07-.9.48-.84,1.05.06.56.37.89,1.03.82.66-.07.89-.45.84-1.01-.05-.56-.36-.93-1.02-.86"/>
      <path class="st1" d="M95.49,357.44c-.37.05-.56.08-.93.14.04.03.06.04.1.07.03.19.04.29.07.48-.03.04-.04.06-.07.1.35-.05.53-.08.88-.13.4-.06.5-.21.47-.4-.03-.18-.17-.31-.52-.26"/>
      <path class="st1" d="M117.34,356.07c-.67-.01-.95.36-.96.94,0,.56.25.93.92.94.66.01.94-.34.95-.9.02-.57-.24-.97-.91-.98"/>
      <path class="st1" d="M152.21,359.51c-25.03-7.15-50.41-7.16-75.44-.02-.35.1-.55.45-.45.78.63,2.04.94,3.06,1.57,5.11,24.27-7.02,48.85-7.02,73.12,0,.64-2.07.96-3.1,1.59-5.17.09-.29-.09-.6-.4-.69M96.66,359.91c-.25-.33-.37-.5-.62-.83-.14-.19-.31-.26-.68-.21-.24.03-.35.05-.59.09.04.03.06.04.1.07.07.45.1.67.17,1.11-.37.06-.56.09-.93.14-.21-1.35-.32-2.02-.53-3.37.72-.11,1.08-.17,1.8-.27.93-.13,1.49.18,1.58.85.04.34-.15.7-.46.89,0,0,0,0,0,0,.14.03.28.13.38.27.33.44.5.66.83,1.1-.42.05-.62.08-1.04.14M101.42,359.39c-1.21.12-1.94-.52-2.06-1.52-.11-1,.46-1.83,1.71-1.96,1.26-.13,1.98.58,2.07,1.58.09,1.01-.52,1.78-1.71,1.9M105.59,358.99c-.09-1.36-.14-2.04-.23-3.41.38-.03.57-.04.96-.06.06,1.01.09,1.51.16,2.52-.03.04-.05.05-.08.09.8-.05,1.21-.07,2.01-.11.01.32.02.48.04.81-1.14.05-1.71.09-2.84.16M110.57,358.74c-.04-1.36-.06-2.05-.1-3.41.38-.01.57-.02.96-.03.02,1.01.03,1.51.06,2.53-.03.03-.05.05-.08.09.8-.02,1.21-.03,2.01-.03,0,.32,0,.48,0,.81-1.14,0-1.71.02-2.85.05M117.27,358.76c-1.22-.02-1.86-.75-1.85-1.76,0-1,.68-1.77,1.93-1.74,1.26.03,1.89.81,1.86,1.82-.04,1.02-.73,1.71-1.93,1.68M124.61,356.46c-.86-.07-1.29-.09-2.15-.15.03.04.05.05.08.09-.01.16-.01.24-.02.4-.04.03-.06.05-.09.08.77.05,1.15.07,1.92.13-.02.32-.04.48-.06.8-.76-.06-1.15-.08-1.91-.13.03.03.05.05.08.09l-.07,1.15c-.37-.02-.56-.03-.93-.05.07-1.37.11-2.05.18-3.41,1.21.07,1.82.1,3.03.2-.02.32-.04.48-.06.8M129.83,356.96c-.86-.1-1.29-.15-2.15-.23.03.04.05.06.08.09-.02.16-.02.24-.04.4-.04.03-.06.05-.09.08.77.08,1.15.12,1.92.2-.04.32-.05.48-.09.8-.76-.09-1.14-.13-1.91-.2.03.04.05.06.08.09-.05.46-.07.69-.11,1.14-.37-.04-.56-.06-.93-.09.13-1.36.19-2.04.32-3.4,1.21.11,1.82.18,3.02.32-.04.32-.06.48-.09.8M133.52,357.88c.07.03.46.18.53.21.72.28,1.07.73,1,1.21-.09.56-.7.94-1.78.79-.65-.1-1.21-.37-1.63-.85.29-.22.43-.33.72-.54.27.33.72.55,1.1.61.5.07.63-.03.65-.14,0-.05,0-.17-.43-.33-.07-.03-.53-.21-.61-.24-.58-.23-1.19-.54-1.11-1.17.08-.59.76-.95,1.76-.8.68.1,1.2.4,1.56.85-.29.21-.44.31-.73.52-.22-.3-.59-.53-.98-.58-.46-.07-.64.02-.66.12-.01.09.08.15.6.35"/>
    </g>
    <polygon class="st5" points="262.67 365.61 266.49 364.57 266.6 365.36 267.85 365.98 265.78 366.67 262.67 365.61"/>
    <polygon class="st5" points="338.32 365.59 334.49 364.56 334.39 365.34 333.14 365.97 335.21 366.66 338.32 365.59"/>
    <g class="st6">
      <path class="st5" d="M260.6,356.32c.65-.4.97-.59,1.62-.98.07-1.21.1-1.82.17-3.02,0-4.54,0-9.09,0-13.63-.07-1.19-.1-1.78-.17-2.97-.65-.22-.98-.33-1.63-.56v-.8c3.58-.01,7.15-.02,10.73-.03.26,1.59.39,2.38.65,3.95-.14.06-.21.08-.35.14-.13-.07-.19-.1-.32-.17-.65-1.16-.97-1.75-1.62-2.95-1.26.01-1.9.02-3.16.04-.61.16-.92.25-1.53.41-.04.92-.06,1.38-.1,2.3,0,2.43,0,3.64,0,6.07.65.06.97.08,1.62.14,1.06-.2,1.6-.29,2.66-.48.22-.86.33-1.29.55-2.14.1-.08.15-.12.25-.2.12.05.18.08.3.13,0,2.25-.01,3.38-.02,5.63-.11.05-.16.08-.27.13-.11-.06-.16-.09-.27-.15-.21-.79-.32-1.19-.54-1.99-1.06.04-1.6.06-2.66.1-.65.24-.98.36-1.62.6,0,2.35,0,3.53,0,5.88.06,1.04.08,1.56.14,2.59.59.06.88.09,1.47.14,1.17-.27,1.75-.4,2.92-.65.56-.48.84-.72,1.4-1.18.56-1.31.85-1.96,1.41-3.24.12-.08.18-.12.3-.2.21.03.31.04.52.07-.52,1.96-.78,2.96-1.3,4.98-3.75.77-7.48,1.68-11.16,2.73v-.73Z"/>
      <path class="st5" d="M282.36,352.36c-1.99-5.3-3.92-10.61-5.79-15.95-.13,4.66-.26,9.33-.39,13.99.04.61.06.92.09,1.53.82.15,1.23.22,2.05.37.02.24.03.36.05.59-2.23.35-3.35.55-5.57.98,0-.23,0-.34,0-.57.81-.49,1.21-.73,2.02-1.2.13-.87.2-1.31.33-2.18.14-4.49.28-8.99.42-13.48-.04-.41-.06-.62-.1-1.03-.67-.24-1.01-.36-1.68-.61,0-.29,0-.43,0-.72h4.71c1.54,4.37,3.12,8.72,4.74,13.06.09.04.13.05.22.09.08-.09.12-.14.2-.24,1.08-3.28,2.18-6.56,3.29-9.83.37-1.24.55-1.85.92-3.08h4.91c.03.26.04.39.07.66-.59.14-.89.21-1.48.35-.1.47-.15.7-.25,1.17.09,3.82.18,7.64.27,11.47.12,1.07.18,1.61.29,2.68.66.14.99.21,1.66.35.02.22.03.33.05.55-2.53.14-3.79.23-6.31.48,0-.23-.01-.34-.02-.56.64-.2.97-.3,1.61-.49.1-.47.15-.7.25-1.17-.1-4.04-.19-8.08-.29-12.12-.05-.31-.07-.47-.12-.77-.15.04-.22.07-.37.11-1.64,4.75-3.23,9.51-4.79,14.28-.36.51-.54.77-.89,1.3-.04,0-.06,0-.1-.02"/>
      <path class="st5" d="M294.22,350.81c.65-.21.98-.31,1.63-.51.07-.92.11-1.38.18-2.3,0-3.5.01-7,.01-10.5-.07-.92-.1-1.38-.17-2.29-.65-.16-.98-.25-1.63-.41,0-.25,0-.38,0-.63,2.65.01,3.98.01,6.64.03,2.54,0,5.18,1.59,5.19,4.45,0,3.2-2.22,5.13-4.92,5.14-.52-.16-.77-.23-1.29-.39-.1-.21-.15-.31-.25-.52.02-.03.03-.05.05-.08.34.04.51.06.84.1,1.61,0,2.84-1.45,2.84-3.78,0-2.36-1.21-4.2-3.41-4.2-.51.12-.77.19-1.28.31-.04.75-.06,1.12-.1,1.87,0,3.62,0,7.23,0,10.85.06.91.09,1.37.15,2.28.62.17.94.25,1.56.42v.52c-2.42.02-3.63.05-6.05.17,0-.21,0-.31,0-.52"/>
      <path class="st5" d="M306.45,350.73c.65-.15.98-.23,1.63-.38.07-.92.1-1.38.17-2.29,0-3.51-.01-7.03-.02-10.54-.07-.92-.11-1.38-.18-2.3-.65-.18-.98-.27-1.63-.45,0-.24,0-.36,0-.6,2.46,0,3.69,0,6.14,0,0,.24,0,.37,0,.61-.65.18-.98.27-1.63.44-.06.93-.09,1.39-.14,2.32,0,3.54.02,7.09.02,10.63.06.93.09,1.4.15,2.33.65.22.98.33,1.64.56,0,.21,0,.32,0,.53-2.47-.19-3.7-.26-6.17-.34,0-.21,0-.31,0-.52"/>
      <path class="st5" d="M323.13,350.5c-1.38-2.51-2.07-3.72-3.45-6.08-.25-.17-.37-.26-.62-.43-.38-.03-.56-.04-.94-.06l.02,4.95c.06.96.09,1.44.16,2.4.63.24.95.37,1.58.63,0,.23,0,.35,0,.58-2.43-.31-3.65-.44-6.08-.65,0-.22,0-.34,0-.56.65-.12.98-.17,1.63-.29.07-.93.1-1.4.17-2.33-.01-3.63-.02-7.26-.03-10.89-.07-.95-.11-1.43-.18-2.37-.65-.18-.98-.26-1.63-.44,0-.26,0-.39,0-.64,2.68,0,4.01,0,6.69,0,2.57,0,4.92,1.77,4.93,5.04,0,2.14-1.84,3.91-3.19,4.29-.07.02-.1.03-.17.04,1.61,2.69,3.17,5.43,4.67,8.19,1.04.57,1.55.87,2.59,1.48,0,.25-.01.37-.02.62-1.23-.24-1.85-.35-3.08-.56-.94-.16-2.12-1.3-3.02-2.92M319.4,343.32c1.78.11,3.33-1.33,3.32-3.59,0-2.4-.83-4.59-3.22-4.61-.52.13-.78.19-1.31.32-.04.79-.06,1.18-.09,1.97,0,2.33.01,3.5.02,5.83.51.03.77.05,1.28.08"/>
      <path class="st5" d="M329.62,353.43c.65-.07.97-.1,1.62-.17.07-1.06.1-1.6.17-2.66-.01-4.11-.03-8.23-.04-12.34-.07-1.08-.11-1.62-.18-2.7-.65-.22-.98-.32-1.63-.53,0-.28,0-.41,0-.69,3.58,0,7.16.02,10.73.03.27,1.76.4,2.65.67,4.44-.14.05-.21.07-.35.12-.13-.09-.19-.13-.32-.22-.65-1.35-.98-2.01-1.63-3.31-1.26-.02-1.89-.03-3.16-.04-.61.15-.92.22-1.53.36-.04.88-.06,1.32-.09,2.2,0,2.33,0,3.49.02,5.82.65.19.98.29,1.63.49,1.06.04,1.59.07,2.66.11.21-.86.32-1.29.54-2.16.1-.07.15-.11.25-.18.12.08.18.12.3.2,0,2.43,0,3.65,0,6.08-.11.02-.16.03-.27.06-.11-.1-.16-.15-.27-.24-.22-.91-.33-1.37-.54-2.27-1.06-.24-1.59-.35-2.66-.57-.65.07-.97.11-1.62.18,0,2.25,0,3.38.01,5.63.06,1.02.09,1.53.15,2.55.59.31.89.47,1.48.8,1.17.26,1.75.4,2.92.69.56-.25.84-.37,1.4-.62.56-1.18.84-1.78,1.39-3.01.12-.04.18-.06.29-.11.21.11.31.17.52.28-.51,2.06-.77,3.08-1.27,5.07-3.69-1.02-7.42-1.9-11.17-2.63,0-.25,0-.38,0-.63"/>
      <path class="st5" d="M303.49,355.61c-.69-.01-.99.38-.99.98,0,.58.27.96.95.98.69.01.97-.35.99-.93.02-.59-.25-1-.95-1.02"/>
      <path class="st5" d="M286.7,356.27c-.69.07-.93.49-.87,1.09.06.58.38.92,1.07.85s.92-.47.87-1.05c-.05-.58-.37-.97-1.06-.9"/>
      <path class="st5" d="M339.7,359.18c-25.98-7.42-52.33-7.43-78.32-.02-.36.11-.57.47-.46.81.65,2.12.98,3.18,1.63,5.3,25.2-7.29,50.71-7.29,75.91,0,.66-2.15.99-3.22,1.65-5.37.09-.3-.09-.62-.41-.72M282.03,359.6c-.26-.35-.39-.52-.65-.86-.15-.19-.32-.27-.71-.22-.24.04-.37.05-.61.09.04.03.06.04.1.07.07.46.1.69.17,1.16-.38.06-.58.09-.96.15-.22-1.4-.33-2.1-.55-3.5.75-.12,1.12-.17,1.86-.28.96-.14,1.55.19,1.64.89.05.35-.16.72-.48.93,0,0,0,0,0,0,.14.03.29.14.4.28.35.46.52.69.86,1.14-.43.06-.65.08-1.08.15M286.97,359.05c-1.26.13-2.01-.54-2.14-1.58-.12-1.03.48-1.91,1.77-2.04,1.3-.13,2.05.6,2.15,1.64.09,1.05-.54,1.85-1.78,1.97M291.3,358.64c-.1-1.42-.15-2.12-.24-3.54.4-.03.6-.04.99-.07.06,1.05.1,1.57.16,2.62-.03.04-.05.06-.08.09.83-.05,1.25-.07,2.08-.11.02.33.02.5.04.83-1.18.06-1.77.09-2.95.17M296.47,358.39c-.04-1.42-.06-2.13-.11-3.54.4-.01.6-.02.99-.03.03,1.05.04,1.57.06,2.62-.04.03-.05.05-.09.09.83-.02,1.25-.03,2.09-.03,0,.33,0,.5,0,.84-1.18,0-1.77.02-2.96.06M303.43,358.4c-1.26-.03-1.93-.78-1.93-1.83,0-1.04.7-1.83,2-1.81,1.31.03,1.97.85,1.93,1.89-.04,1.05-.76,1.77-2,1.74M311.04,356.01c-.89-.07-1.34-.1-2.23-.15.03.04.05.06.08.09-.01.17-.02.25-.02.42-.04.03-.06.05-.09.09.8.05,1.2.08,2,.14-.02.33-.04.5-.06.83-.79-.06-1.19-.09-1.98-.13.03.04.05.05.08.09-.03.48-.04.71-.07,1.19-.39-.02-.58-.03-.97-.06.08-1.42.11-2.12.19-3.54,1.26.07,1.89.11,3.15.2-.03.33-.04.5-.06.83M316.46,356.54c-.89-.1-1.33-.15-2.23-.24.03.04.05.06.08.1-.02.17-.02.25-.04.41-.04.03-.06.05-.1.08.8.08,1.19.12,1.99.21-.04.33-.06.5-.1.83-.79-.09-1.19-.13-1.98-.21.03.04.05.06.08.1-.05.47-.07.71-.12,1.19-.39-.04-.58-.06-.96-.09.13-1.41.2-2.12.33-3.53,1.26.12,1.89.18,3.14.33-.04.33-.06.5-.1.83M320.3,357.49c.07.03.47.19.55.22.74.29,1.11.76,1.04,1.26-.09.58-.73.98-1.85.82-.68-.1-1.26-.38-1.69-.89.3-.22.45-.34.75-.56.28.34.75.57,1.14.63.52.08.65-.04.67-.15,0-.06,0-.18-.44-.35-.07-.03-.56-.22-.64-.25-.6-.24-1.23-.56-1.15-1.21.08-.62.79-.98,1.83-.83.71.1,1.25.42,1.62.88-.3.21-.45.32-.75.54-.22-.31-.62-.55-1.01-.61-.48-.07-.67.02-.68.13-.01.09.08.15.62.37"/>
      <path class="st5" d="M280.81,357.03c-.39.06-.58.08-.96.14.04.03.06.04.1.07.03.2.05.3.08.5-.03.04-.05.06-.08.1.36-.06.55-.08.91-.14.42-.06.52-.22.49-.41-.03-.19-.18-.32-.54-.27"/>
      <path class="st5" d="M306.22,326.2l-6.31-4.3-6.34,4.23-.99-.69c-.11.11-.26.18-.43.18-.02,0-.04,0-.06,0l1.79,7.12h11.36l2.53-7.12c-.11,0-.22-.04-.31-.11l-1.24.69Z"/>
      <path class="st5" d="M292.54,325.35c.11-.11.18-.27.18-.44,0-.34-.28-.62-.62-.62s-.62.28-.62.62c0,.32.24.58.55.61.02,0,.04,0,.06,0,.17,0,.32-.07.43-.18"/>
      <path class="st5" d="M307.85,324.29c-.34,0-.62.28-.62.62,0,.21.11.39.27.51.09.06.19.1.31.11.01,0,.03,0,.04,0,.34,0,.62-.28.62-.62s-.28-.62-.62-.62"/>
    </g>
    <rect x="432" y="320.4" width="95.52" height="47.76"/>
    <polygon class="st2" points="445.05 364.57 441.23 365.61 444.34 366.67 446.41 365.98 445.16 365.36 445.05 364.57"/>
    <polygon class="st2" points="513.2 364.57 517.02 365.61 513.91 366.67 511.84 365.98 513.09 365.36 513.2 364.57"/>
    <g class="st0">
      <path class="st2" d="M439.16,356.32c.65-.4.97-.59,1.62-.98.07-1.21.1-1.82.17-3.02,0-4.54,0-9.09,0-13.63-.07-1.19-.1-1.78-.17-2.97-.65-.22-.98-.33-1.63-.56v-.8c3.58-.01,7.15-.02,10.73-.03.26,1.59.39,2.38.65,3.95-.14.06-.21.08-.35.14-.13-.07-.19-.1-.32-.17-.65-1.16-.97-1.75-1.62-2.95-1.26.01-1.9.02-3.16.04-.61.16-.92.25-1.53.41-.04.92-.06,1.38-.1,2.3,0,2.43,0,3.64,0,6.07.65.06.97.08,1.62.14,1.06-.2,1.6-.29,2.66-.48.22-.86.33-1.29.55-2.14.1-.08.15-.12.25-.2.12.05.18.08.3.13,0,2.25-.01,3.38-.02,5.63-.11.05-.16.08-.27.13-.11-.06-.16-.09-.27-.15-.21-.79-.32-1.19-.54-1.99-1.06.04-1.6.06-2.66.1-.65.24-.98.36-1.62.6,0,2.35,0,3.53,0,5.88.06,1.04.08,1.56.14,2.59.59.06.88.09,1.47.14,1.17-.27,1.75-.4,2.92-.65.56-.48.84-.72,1.4-1.18.56-1.31.85-1.96,1.41-3.24.12-.08.18-.12.3-.2.21.03.31.04.52.07-.52,1.96-.78,2.96-1.3,4.98-3.75.77-7.48,1.68-11.16,2.73v-.73Z"/>
      <path class="st2" d="M460.92,352.36c-1.99-5.3-3.92-10.61-5.79-15.95-.13,4.66-.26,9.33-.39,13.99.04.61.06.92.09,1.53.82.15,1.23.22,2.05.37.02.24.03.36.05.59-2.23.35-3.35.55-5.57.98,0-.23,0-.34,0-.57.81-.49,1.21-.73,2.02-1.2.13-.87.2-1.31.33-2.18.14-4.49.28-8.99.42-13.48-.04-.41-.06-.62-.1-1.03-.67-.24-1.01-.36-1.68-.61,0-.29,0-.43,0-.72h4.71c1.54,4.37,3.12,8.72,4.74,13.06.09.04.13.05.22.09.08-.09.12-.14.2-.24,1.08-3.28,2.18-6.56,3.29-9.83.37-1.24.55-1.85.92-3.08h4.91c.03.26.04.39.07.66-.59.14-.89.21-1.48.35-.1.47-.15.7-.25,1.17.09,3.82.18,7.64.27,11.47.12,1.07.18,1.61.29,2.68.66.14.99.21,1.66.35.02.22.03.33.05.55-2.53.14-3.79.23-6.31.48,0-.23-.01-.34-.02-.56.64-.2.97-.3,1.61-.49.1-.47.15-.7.25-1.17-.1-4.04-.19-8.08-.29-12.12-.05-.31-.07-.47-.12-.77-.15.04-.22.07-.37.11-1.64,4.75-3.23,9.51-4.79,14.28-.36.51-.54.77-.89,1.3-.04,0-.06,0-.1-.02"/>
      <path class="st2" d="M472.78,350.81c.65-.21.98-.31,1.63-.51.07-.92.11-1.38.18-2.3,0-3.5.01-7,.01-10.5-.07-.92-.1-1.38-.17-2.29-.65-.16-.98-.25-1.63-.41,0-.25,0-.38,0-.63,2.65.01,3.98.01,6.64.03,2.54,0,5.18,1.59,5.19,4.45,0,3.2-2.22,5.13-4.92,5.14-.52-.16-.77-.23-1.29-.39-.1-.21-.15-.31-.25-.52.02-.03.03-.05.05-.08.34.04.51.06.84.1,1.61,0,2.84-1.45,2.84-3.78,0-2.36-1.21-4.2-3.41-4.2-.51.12-.77.19-1.28.31-.04.75-.06,1.12-.1,1.87,0,3.62,0,7.23,0,10.85.06.91.09,1.37.15,2.28.62.17.94.25,1.56.42v.52c-2.42.02-3.63.05-6.05.17,0-.21,0-.31,0-.52"/>
      <path class="st2" d="M485.01,350.73c.65-.15.98-.23,1.63-.38.07-.92.1-1.38.17-2.29,0-3.51-.01-7.03-.02-10.54-.07-.92-.11-1.38-.18-2.3-.65-.18-.98-.27-1.63-.45,0-.24,0-.36,0-.6,2.46,0,3.69,0,6.14,0,0,.24,0,.37,0,.61-.65.18-.98.27-1.63.44-.06.93-.09,1.39-.14,2.32,0,3.54.02,7.09.02,10.63.06.93.09,1.4.15,2.33.65.22.98.33,1.64.56,0,.21,0,.32,0,.53-2.47-.19-3.7-.26-6.17-.34,0-.21,0-.31,0-.52"/>
      <path class="st2" d="M501.69,350.5c-1.38-2.51-2.07-3.72-3.45-6.08-.25-.17-.37-.26-.62-.43-.38-.03-.56-.04-.94-.06l.02,4.95c.06.96.09,1.44.16,2.4.63.24.95.37,1.58.63,0,.23,0,.35,0,.58-2.43-.31-3.65-.44-6.08-.65,0-.22,0-.34,0-.56.65-.12.98-.17,1.63-.29.07-.93.1-1.4.17-2.33-.01-3.63-.02-7.26-.03-10.89-.07-.95-.11-1.43-.18-2.37-.65-.18-.98-.26-1.63-.44,0-.26,0-.39,0-.64,2.68,0,4.01,0,6.69,0,2.57,0,4.92,1.77,4.93,5.04,0,2.14-1.84,3.91-3.19,4.29-.07.02-.1.03-.17.04,1.61,2.69,3.17,5.43,4.67,8.19,1.04.57,1.55.87,2.59,1.48,0,.25-.01.37-.02.62-1.23-.24-1.85-.35-3.08-.56-.94-.16-2.12-1.3-3.02-2.92M497.96,343.32c1.78.11,3.33-1.33,3.32-3.59,0-2.4-.83-4.59-3.22-4.61-.52.13-.78.19-1.31.32-.04.79-.06,1.18-.09,1.97,0,2.33.01,3.5.02,5.83.51.03.77.05,1.28.08"/>
      <path class="st2" d="M508.18,353.43c.65-.07.97-.1,1.62-.17.07-1.06.1-1.6.17-2.66-.01-4.11-.03-8.23-.04-12.34-.07-1.08-.11-1.62-.18-2.7-.65-.22-.98-.32-1.63-.53,0-.28,0-.41,0-.69,3.58,0,7.16.02,10.73.03.27,1.76.4,2.65.67,4.44-.14.05-.21.07-.34.12-.13-.09-.19-.13-.32-.22-.65-1.35-.98-2.01-1.63-3.31-1.26-.02-1.89-.03-3.16-.04-.61.15-.92.22-1.53.36-.04.88-.06,1.32-.09,2.2,0,2.33,0,3.49.02,5.82.65.19.97.29,1.63.49,1.06.04,1.59.07,2.66.11.22-.86.32-1.29.54-2.16.1-.07.15-.11.25-.18.12.08.18.12.29.2,0,2.43,0,3.65,0,6.08-.11.02-.16.03-.27.06-.11-.1-.16-.15-.27-.24-.22-.91-.33-1.37-.54-2.27-1.06-.24-1.59-.35-2.66-.57-.65.07-.97.11-1.62.18,0,2.25,0,3.38.01,5.63.06,1.02.09,1.53.15,2.55.59.31.89.47,1.47.8,1.17.26,1.75.4,2.92.69.56-.25.84-.37,1.4-.62.56-1.18.84-1.78,1.39-3.01.12-.04.18-.06.29-.11.21.11.31.17.52.28-.51,2.06-.77,3.08-1.27,5.07-3.69-1.02-7.42-1.9-11.17-2.63,0-.25,0-.38,0-.63"/>
      <path class="st2" d="M484.78,326.2l-6.31-4.3-6.34,4.23-.99-.69c-.11.11-.26.18-.43.18-.02,0-.04,0-.06,0l1.79,7.12h11.36l2.53-7.12c-.11,0-.22-.04-.31-.11l-1.24.69Z"/>
      <path class="st2" d="M471.1,325.35c.11-.11.18-.27.18-.44,0-.34-.28-.62-.62-.62s-.62.28-.62.62c0,.32.24.58.55.61.02,0,.04,0,.06,0,.17,0,.32-.07.43-.18"/>
      <path class="st2" d="M486.41,324.29c-.34,0-.62.28-.62.62,0,.21.11.39.27.51.09.06.19.1.31.11.01,0,.03,0,.04,0,.34,0,.62-.28.62-.62s-.28-.62-.62-.62"/>
      <path class="st2" d="M465.26,356.27c-.69.07-.93.49-.87,1.09.06.58.38.92,1.07.85s.92-.47.87-1.05c-.05-.58-.37-.97-1.06-.9"/>
      <path class="st2" d="M459.37,357.03c-.39.06-.58.08-.96.14.04.03.06.04.1.07.03.2.05.3.08.5-.03.04-.05.06-.08.1.36-.06.55-.08.91-.14.42-.06.52-.22.49-.41-.03-.19-.18-.32-.54-.27"/>
      <path class="st2" d="M482.05,355.61c-.69-.01-.99.38-.99.98,0,.58.27.96.95.98.69.01.97-.35.99-.93.02-.59-.25-1-.95-1.02"/>
      <path class="st2" d="M518.26,359.18c-25.98-7.42-52.33-7.43-78.32-.02-.36.11-.57.47-.46.81.65,2.12.98,3.18,1.63,5.3,25.2-7.29,50.71-7.29,75.91,0,.66-2.15.99-3.22,1.65-5.37.09-.3-.09-.62-.41-.72M460.59,359.6c-.26-.35-.39-.52-.65-.86-.15-.2-.32-.27-.71-.22-.24.04-.37.05-.61.09.04.03.06.04.1.07.07.46.1.69.17,1.16-.38.06-.58.09-.96.15-.22-1.4-.33-2.1-.55-3.5.75-.12,1.12-.17,1.86-.28.96-.14,1.55.19,1.64.89.05.35-.16.72-.48.93,0,0,0,0,0,0,.14.03.29.14.4.28.35.46.52.69.86,1.15-.43.06-.65.08-1.08.15M465.53,359.05c-1.26.13-2.01-.54-2.14-1.58-.12-1.03.48-1.91,1.77-2.04,1.3-.13,2.05.6,2.15,1.64.09,1.05-.54,1.85-1.78,1.97M469.86,358.64c-.1-1.42-.15-2.12-.24-3.54.4-.03.6-.04.99-.07.06,1.05.1,1.57.16,2.62-.03.04-.05.06-.08.09.83-.05,1.25-.07,2.08-.11.02.33.02.5.04.83-1.18.06-1.77.09-2.95.17M475.03,358.39c-.04-1.42-.07-2.13-.11-3.54.4-.01.6-.02.99-.03.02,1.05.04,1.57.06,2.62-.04.03-.05.05-.09.09.83-.02,1.25-.03,2.09-.03,0,.33,0,.5,0,.84-1.18,0-1.77.02-2.95.06M481.99,358.4c-1.26-.03-1.93-.78-1.93-1.83,0-1.04.7-1.83,2-1.81,1.31.03,1.96.84,1.93,1.89-.04,1.05-.76,1.77-2,1.74M489.6,356.01c-.89-.07-1.34-.1-2.23-.15.03.04.05.06.08.09-.01.17-.02.25-.02.42-.04.03-.06.05-.09.09.8.05,1.2.08,2,.13-.02.33-.04.5-.06.83-.79-.06-1.19-.09-1.98-.13.03.04.05.06.08.09-.03.48-.04.71-.07,1.19-.39-.02-.58-.03-.97-.06.08-1.42.11-2.12.19-3.54,1.26.07,1.89.11,3.15.2-.03.33-.04.5-.06.83M495.02,356.54c-.89-.1-1.33-.15-2.23-.24.03.04.05.06.08.1-.02.17-.02.25-.04.41-.04.03-.06.05-.1.08.8.08,1.2.12,1.99.21-.04.33-.06.5-.1.83-.79-.09-1.19-.13-1.98-.21.03.04.05.06.08.1-.05.47-.07.71-.12,1.19-.39-.04-.58-.06-.96-.09.13-1.41.2-2.12.33-3.53,1.26.12,1.89.18,3.14.33-.04.33-.06.5-.1.83M498.86,357.49c.07.03.47.19.55.22.74.29,1.11.76,1.04,1.26-.09.58-.73.98-1.85.82-.68-.1-1.26-.38-1.69-.89.3-.22.45-.34.75-.56.28.34.75.57,1.14.63.52.08.65-.04.67-.15,0-.06,0-.18-.44-.35-.07-.03-.56-.22-.64-.25-.6-.24-1.23-.56-1.15-1.21.08-.62.79-.98,1.83-.83.71.1,1.25.42,1.62.88-.3.21-.45.32-.75.54-.22-.31-.62-.55-1.01-.61-.48-.07-.67.02-.68.13-.01.09.08.15.62.37"/>
    </g>
  </g>
</svg>