<?xml version="1.0" encoding="UTF-8"?>
<svg id="Layer_1" xmlns="http://www.w3.org/2000/svg" version="1.1" viewBox="0 0 93.4 147">
  <!-- Generator: Adobe Illustrator 30.1.0, SVG Export Plug-In . SVG Version: 2.1.1 Build 136)  -->
  <defs>
    <style>
      .st0 {
        fill: #fff;
      }

      .st1 {
        fill: #41a1d2;
      }
    </style>
  </defs>
  <g>
    <path class="st1" d="M69.14.59h-10.94c-3.68,0-7.17,1.41-9.81,3.98l-13.6,13.03h0S1.21,48.99,1.21,48.99l6.69,8.29v33.69c0,10.94,9.04,19.85,20.15,19.85h2.21s3.39,0,3.39,0v35.57l4.53.02c13.06,0,23.67-10.58,23.67-23.58v-11.98h15.37c8.6,0,15.59-6.96,15.59-15.52V24.17c0-13-10.62-23.58-23.67-23.58Z"/>
    <path class="st1" d="M69.14,0h-10.94c-3.83,0-7.47,1.47-10.22,4.14l-13.6,13.03L.41,48.94l6.9,8.56v33.48c0,11.27,9.3,20.43,20.74,20.43h2.2s2.8,0,2.8,0v35.57l5.12.03c13.38,0,24.26-10.84,24.26-24.17v-11.4h14.78c8.92,0,16.18-7.23,16.18-16.11V24.17c0-13.33-10.88-24.17-24.26-24.17Z"/>
  </g>
  <g>
    <path class="st0" d="M68.51,4.11h-10.94c-2.75,0-5.39,1.07-7.36,2.98l-13.67,13.26v122.51h1.01v.02c11.11,0,20.15-9,20.15-20.06V27.62c0-1.35,1.09-2.44,2.44-2.44h4.9c1.35,0,2.44,1.09,2.44,2.44v54.86c0,2.09-1.69,3.78-3.78,3.78h-3.12v21.07h16.01c6.67,0,12.07-5.38,12.07-12V24.17c0-11.06-9.04-20.06-20.15-20.06Z"/>
    <path class="st0" d="M33.92,107.3v-21.09h-3.67l.32-60.45L5.37,49.33l2.94,3.65,2.47-2.38v40.37c0,9.02,7.45,16.32,16.63,16.32v-.02l6.51.02Z"/>
  </g>
</svg>