<?xml version="1.0" encoding="UTF-8"?>
<svg id="Layer_1" xmlns="http://www.w3.org/2000/svg" version="1.1" viewBox="0 0 612 396">
  <!-- Generator: Adobe Illustrator 30.1.0, SVG Export Plug-In . SVG Version: 2.1.1 Build 136)  -->
  <defs>
    <style>
      .st0 {
        fill: #a3d4cf;
      }

      .st1 {
        fill: #ebae8d;
      }

      .st2 {
        fill: #fff;
      }

      .st3 {
        opacity: .14;
      }

      .st4 {
        fill: #849b93;
      }

      .st5 {
        fill: none;
        stroke: #41a1d2;
        stroke-miterlimit: 10;
      }

      .st6 {
        fill: #f2c899;
      }

      .st7 {
        fill: #cfddd2;
      }

      .st8 {
        fill: #f5e8e1;
      }

      .st9 {
        fill: #f1c7b5;
      }

      .st10 {
        fill: #5dafb6;
      }

      .st11 {
        fill: #d7d3c9;
      }

      .st12 {
        fill: #ecd9aa;
      }

      .st13 {
        fill: #f2d6c7;
      }

      .st14 {
        fill: #aa8595;
      }

      .st15 {
        fill: #e1e2e3;
      }

      .st16 {
        fill: #41a1d2;
      }
    </style>
  </defs>
  <g class="st3">
    <g>
      <g>
        <path class="st14" d="M620.73,124.08c0,1.05,0,2.1,0,3.15h-10.09c1.45-2.11,3.01-3.59,3.15-3.78q3.47.32,6.94.63"/>
        <path class="st14" d="M620.73,178.31c0,1.68,0,3.36,0,5.05-12.65-7.7-14.21-16.15,0-5.05"/>
        <path class="st6" d="M396.42,201.77h-4.88q-.4-1.63-.81-3.25c-3.07,2.64-3.4,3.49.81,3.25.94,7.48,12.25,15.06-3.25,8.13-5.54-14.04-9.48-34.37-14.63-49.57,3.45-5.1,20.01,36,22.75,41.45"/>
        <path class="st1" d="M303.78,109.13c21.96,37.83,8.66,46.27-3.25,11.38-1.92-5.61-7.85-11.01,3.25-11.38"/>
        <path class="st12" d="M322.47,159.51c6.47,23.53,18.4,36.13,2.44,23.57,3.99-12.17-10.88-10.52-2.44-23.57"/>
        <path class="st15" d="M577.53,23.82c5,2.37,1.53,3.81,1.58,4.1.03.19,1.26,1.78,1.26,1.89-.31,11.89-16.71,14.89-9.46,19.55-4.42-.15.08,3.66-3.78,2.52,2.13-7.87-4.85,1.39-5.99-.32,5.76-5.97,2.55-8.11,2.84-8.51.54-.75,3.67.21,5.99-.95.62-.31,7.6-7.76,7.88-8.51,1.98-5.31-2.56-9.28-.31-9.77"/>
        <path class="st15" d="M597.71,35.8c6.25,1.77-4.2,1.55-4.1,11.04-2.73,3.79-5.39-6.45,4.1-11.04"/>
        <path class="st15" d="M610.95,1.75c12.66-.83-4.43,7.67-5.36,4.1-.34-1.3,5.02-4.08,5.36-4.1"/>
        <path class="st15" d="M595.19,26.97c2.96-.44,4.97.36,7.25,2.21-3.55.04-14.92,4.41-7.25-2.21"/>
        <path class="st15" d="M586.36,50.93c13.41-.35-6.73,6.65-3.78.63,4.36,1.17,3.5-.62,3.78-.63"/>
        <path class="st8" d="M560.51,43.36c4.76.25-3.06,10.07-2.21,1.58q1.1-.79,2.21-1.58"/>
        <path class="st11" d="M598.97,45.26q1.42.16,2.84.32c1.09,4.85-6.43,3.43-2.84-.32"/>
        <path class="st8" d="M554.2,40.84c3.56,1.24,2.31,4.11-.32,1.58q.16-.79.32-1.58"/>
        <path class="st13" d="M563.03,25.08c2.76-.09,2.76,1.99,0,1.89v-1.89Z"/>
        <path class="st11" d="M601.49,20.03c.28.81,1.17,1.64.63,1.89-.79.37-2.27-1.06-.63-1.89"/>
        <path class="st9" d="M391.54,201.77c-4.22.24-3.88-.61-.81-3.25q.4,1.62.81,3.25"/>
      </g>
      <g>
        <path class="st6" d="M315.15,240.78c5.04,8.31,9.17,17.84,14.63,26-4.05,3.06-5.24.86-8.13,6.5-.56,1.1-1.39,2.04-1.62,3.25-.81-1.27-13.04-12.63-19.5-22.76-4.33-6.77-7.43-5.57-11.38-26.82-.15-.79-5.65,1.69-.81-13.82,13.23-7.86,20.79,17.69,26.82,27.63"/>
        <path class="st0" d="M300.53,253.78c6.47,10.12,18.7,21.49,19.5,22.75,2.35,3.68,1.38,5.99,1.62,6.5,1.84,3.86,8.54,7.18,2.44,8.13-19.56-13.15-18.22-4.79-19.5-4.88-7.99-.5-16.97-1.66-7.31-6.5,2.14-.19,4.35.12,6.5,0,7.63,1.4-2.84-11.62-9.75-17.88-5.81-13.16-2.95-10.79-3.25-11.38q4.87,1.62,9.75,3.25"/>
        <path class="st1" d="M336.28,276.53q-7.32-1.63-14.63-3.25c2.89-5.64,4.07-3.44,8.13-6.5,2.11,3.16,5.95,5.67,6.5,9.75"/>
        <path class="st7" d="M303.78,279.79c-2.1-6.1-10.48-13.51-11.38-15.44-1.07-2.3,1.69-2.3,1.63-2.44,6.92,6.26,17.39,19.28,9.75,17.88"/>
        <path class="st10" d="M326.53,343.17c-.09.08.35,1.81-1.63,1.63-7.31-2.04-13.29-3.66-19.5-8.13-15.07-10.83-22-15.75-9.75-35.76,3.03,6.26,1.52,22.04,3.25,25.19,3.93,7.16,30.35,6.91,27.63,17.07"/>
        <path class="st4" d="M328.16,318.79q-1.63,2.44-3.25,4.88c-7.24-8.42-14.8-16.89-21.13-26-.31-.46.7-2.69-.81-4.88-.27-.38-8.5,3.8-.81-3.25,8.63,1.28,19.2,21.95,26.01,29.26"/>
      </g>
    </g>
  </g>
  <path class="st16" d="M290.22,361.85c21.83,0,39.53-17.7,39.53-39.53V95.03h35.47v96.08h-24.03v39.53h40.74c12.6,0,22.82-10.21,22.82-22.82v-112.79c0-21.83-17.7-39.53-39.53-39.53h-75v306.34Z"/>
  <path class="st16" d="M289.71,364.48h-2.12V52.87h77.79c23.16,0,42,18.74,42,41.77v113.17c0,13.79-11.28,25.01-25.14,25.01h-43.23v-43.89h24.25v-92.18h-31.54v225.95c0,23.04-18.84,41.77-42,41.77"/>
  <path class="st5" d="M289.71,364.48h-2.12V52.87h77.79c23.16,0,42,18.74,42,41.77v113.17c0,13.79-11.28,25.01-25.14,25.01h-43.23v-43.89h24.25v-92.18h-31.54v225.95c0,23.04-18.84,41.77-42,41.77Z"/>
  <path class="st16" d="M270.92,230.64h5.76V95.4h-39.53v101.48c0,18.65,15.12,33.76,33.76,33.76"/>
  <path class="st16" d="M278.79,232.74h-7.87c-19.78,0-35.87-16.09-35.87-35.87v-103.58h43.74v139.45Z"/>
  <path class="st2" d="M290.22,361.85c21.83,0,39.53-17.7,39.53-39.53V95.03h35.47v96.08h-24.03v39.53h40.74c12.6,0,22.82-10.21,22.82-22.82v-112.79c0-21.83-17.7-39.53-39.53-39.53h-75v306.34Z"/>
  <path class="st2" d="M271.29,231.17h5.92V94.87h-40.59v102.27c0,18.79,15.52,34.03,34.67,34.03"/>
  <path class="st5" d="M271.29,231.17h5.92V94.87h-40.59v102.27c0,18.79,15.52,34.03,34.67,34.03Z"/>
</svg>