<?xml version="1.0" encoding="UTF-8"?>
<svg id="Layer_1" xmlns="http://www.w3.org/2000/svg" version="1.1" viewBox="0 0 81.17 147">
  <!-- Generator: Adobe Illustrator 30.1.0, SVG Export Plug-In . SVG Version: 2.1.1 Build 136)  -->
  <defs>
    <style>
      .st0 {
        fill: #41a0d1;
      }

      .st1 {
        fill: #a3d3cf;
      }

      .st2 {
        fill: #fff;
      }

      .st3 {
        opacity: .14;
      }

      .st4 {
        fill: none;
        stroke: #41a0d1;
        stroke-miterlimit: 10;
      }

      .st5 {
        fill: #849a93;
      }

      .st6 {
        fill: #ebad8c;
      }

      .st7 {
        fill: #ceddd1;
      }

      .st8 {
        fill: #f2c898;
      }

      .st9 {
        fill: #ecd8a9;
      }

      .st10 {
        fill: #f0c6b4;
      }

      .st11 {
        fill: #5daeb5;
      }
    </style>
  </defs>
  <g class="st3">
    <g>
      <g>
        <path class="st8" d="M75.34,70.32h-2.28q-.19-.76-.38-1.52c-1.43,1.23-1.59,1.63.38,1.52.44,3.49,5.72,7.03-1.52,3.79-2.59-6.55-4.43-16.05-6.83-23.15,1.61-2.38,9.34,16.81,10.62,19.35"/>
        <path class="st6" d="M32.09,27.07c10.25,17.66,4.04,21.6-1.52,5.31-.9-2.62-3.66-5.14,1.52-5.31"/>
        <path class="st9" d="M40.82,50.59c3.02,10.98,8.59,16.87,1.14,11,1.86-5.68-5.08-4.91-1.14-11"/>
        <path class="st10" d="M73.07,70.32c-1.97.11-1.81-.29-.38-1.52q.19.76.38,1.52"/>
      </g>
      <g>
        <path class="st1" d="M30.57,94.61c3.02,4.73,8.73,10.03,9.11,10.62,1.1,1.72.65,2.8.76,3.04.86,1.8,3.99,3.35,1.14,3.79-9.13-6.14-8.51-2.24-9.11-2.28-3.73-.23-7.92-.78-3.41-3.04,1-.09,2.03.06,3.04,0,3.56.65-1.32-5.42-4.55-8.35-2.71-6.14-1.38-5.04-1.52-5.31q2.28.76,4.55,1.52"/>
        <path class="st7" d="M32.09,106.75c-.98-2.85-4.89-6.31-5.31-7.21-.5-1.08.79-1.08.76-1.14,3.23,2.92,8.12,9,4.55,8.35"/>
        <path class="st11" d="M42.71,136.34s.16.84-.76.76c-3.41-.95-6.2-1.71-9.11-3.79-7.04-5.06-10.27-7.36-4.55-16.7,1.41,2.92.71,10.29,1.52,11.76,1.83,3.34,14.17,3.23,12.9,7.97"/>
        <path class="st5" d="M43.47,124.96q-.76,1.14-1.52,2.28c-3.38-3.93-6.91-7.89-9.87-12.14-.15-.21.33-1.26-.38-2.28-.12-.18-3.97,1.77-.38-1.52,4.03.6,8.96,10.25,12.14,13.66"/>
      </g>
    </g>
  </g>
  <path class="st0" d="M25.76,145.06c10.19,0,18.46-8.26,18.46-18.46V20.49h16.56v44.86h-11.22v18.45h19.02c5.88,0,10.65-4.77,10.65-10.65V20.49c0-10.19-8.26-18.46-18.46-18.46H25.76v143.03Z"/>
  <path class="st0" d="M25.52,146.29h-.99V.8h36.32c10.81,0,19.61,8.75,19.61,19.5v52.84c0,6.44-5.27,11.68-11.74,11.68h-20.18v-20.49h11.32V21.29h-14.73v105.49c0,10.76-8.8,19.5-19.61,19.5"/>
  <path class="st4" d="M25.52,146.29h-.99V.8h36.32c10.81,0,19.61,8.75,19.61,19.5v52.84c0,6.44-5.27,11.68-11.74,11.68h-20.18v-20.49h11.32V21.29h-14.73v105.49c0,10.76-8.8,19.5-19.61,19.5Z"/>
  <path class="st0" d="M16.75,83.8h2.69V20.66H.98v47.38c0,8.71,7.06,15.76,15.76,15.76"/>
  <path class="st0" d="M20.42,84.78h-3.67c-9.23,0-16.75-7.51-16.75-16.75V19.68h20.42v65.11Z"/>
  <path class="st2" d="M25.76,145.06c10.19,0,18.46-8.26,18.46-18.45V20.49h16.56v44.86h-11.22v18.45h19.02c5.88,0,10.65-4.77,10.65-10.65V20.49c0-10.19-8.26-18.46-18.46-18.46H25.76v143.03Z"/>
  <path class="st2" d="M16.92,84.05h2.76V20.41H.74v47.75c0,8.77,7.25,15.89,16.19,15.89"/>
  <path class="st4" d="M16.92,84.05h2.76V20.41H.74v47.75c0,8.77,7.25,15.89,16.19,15.89Z"/>
</svg>