<?xml version="1.0" encoding="UTF-8"?>
<svg id="Layer_1" xmlns="http://www.w3.org/2000/svg" version="1.1" viewBox="0 0 612 396">
  <!-- Generator: Adobe Illustrator 30.1.0, SVG Export Plug-In . SVG Version: 2.1.1 Build 136)  -->
  <defs>
    <style>
      .st0 {
        fill: #a3d4cf;
      }

      .st1 {
        fill: #ebae8d;
      }

      .st2 {
        fill: #fff;
      }

      .st3 {
        opacity: .14;
      }

      .st4 {
        fill: #849b93;
      }

      .st5 {
        fill: none;
        stroke: #41a1d2;
        stroke-miterlimit: 10;
      }

      .st6 {
        fill: #f2c899;
      }

      .st7 {
        fill: #cfddd2;
      }

      .st8 {
        fill: #f1c7b5;
      }

      .st9 {
        fill: #5dafb6;
      }

      .st10 {
        fill: #ecd9aa;
      }

      .st11 {
        fill: #a6d7b7;
      }

      .st12 {
        fill: #41a1d2;
      }
    </style>
  </defs>
  <g class="st3">
    <g>
      <g>
        <path class="st6" d="M345.17,202.27h-1.89q-.16-.63-.31-1.26c-1.19,1.02-1.32,1.35.31,1.26.36,2.9,4.75,5.84-1.26,3.15-2.15-5.45-3.68-13.34-5.67-19.23,1.34-1.98,7.76,13.97,8.83,16.08"/>
        <path class="st1" d="M309.22,166.32c8.52,14.68,3.36,17.95-1.26,4.41-.74-2.18-3.05-4.27,1.26-4.41"/>
        <path class="st10" d="M316.48,185.87c2.51,9.13,7.14,14.02.95,9.14,1.55-4.72-4.22-4.08-.95-9.14"/>
        <path class="st11" d="M305.44,175.78c-.11,1.15-.68,6.59-.63,6.94h-.63c-.04-2.14-1.61-3.9-2.52-5.68,1.61-.52,1.79-1.22,1.89-1.26.38-.14,1.27.09,1.89,0"/>
        <path class="st10" d="M375.43,139.21c1.72-.67,1.51,2.43.95,2.52l-.95-2.52"/>
        <path class="st10" d="M375.43,139.21q-.16-.63-.32-1.26.16.63.32,1.26"/>
        <path class="st8" d="M343.28,202.27c-1.64.09-1.51-.24-.32-1.26q.16.63.32,1.26"/>
      </g>
      <g>
        <path class="st6" d="M313.64,217.4c1.96,3.23,3.56,6.92,5.67,10.09-1.57,1.19-2.03.33-3.15,2.52-.22.43-.54.79-.63,1.26-.31-.49-5.06-4.9-7.57-8.83-1.68-2.63-2.88-2.16-4.41-10.4-.06-.31-2.19.66-.32-5.36,5.13-3.05,8.06,6.86,10.4,10.72"/>
        <path class="st0" d="M307.96,222.45c2.51,3.93,7.25,8.34,7.57,8.83.91,1.43.54,2.32.63,2.52.71,1.5,3.31,2.79.95,3.15-7.59-5.1-7.07-1.86-7.57-1.89-3.1-.19-6.58-.65-2.84-2.52.83-.07,1.69.05,2.52,0,2.96.54-1.1-4.51-3.78-6.94-2.26-5.11-1.14-4.19-1.26-4.41q1.89.63,3.78,1.26"/>
        <path class="st10" d="M291.57,252.71q-.95-.63-1.89-1.26c3.12.42,1.57,1.11,1.89,1.26"/>
        <path class="st1" d="M321.84,231.27q-2.84-.63-5.68-1.26c1.12-2.19,1.58-1.33,3.15-2.52.82,1.23,2.31,2.2,2.52,3.78"/>
        <path class="st7" d="M309.22,232.53c-.82-2.37-4.07-5.24-4.41-5.99-.42-.89.65-.89.63-.95,2.68,2.43,6.74,7.48,3.78,6.94"/>
        <path class="st7" d="M317.42,249.56c1.61,1.88,2.92,2.93,4.41,5.05-1.06-.1-2.56,1.42-3.78,2.52,1.05-3.94-9.2-3.84-10.72-6.62-.67-1.22-.09-7.35-1.26-9.77q1.58-.63,3.15-1.26c2.46,3.54,5.39,6.82,8.2,10.09"/>
        <path class="st9" d="M318.05,257.13s.14.7-.63.63c-2.84-.79-5.15-1.42-7.57-3.15-5.85-4.2-8.54-6.11-3.78-13.87,1.18,2.43.59,8.55,1.26,9.77,1.52,2.78,11.77,2.68,10.72,6.62"/>
        <path class="st4" d="M318.68,247.67q-.63.95-1.26,1.89c-2.81-3.27-5.74-6.55-8.2-10.09-.12-.18.27-1.04-.32-1.89-.1-.15-3.3,1.47-.32-1.26,3.35.5,7.45,8.52,10.09,11.35"/>
      </g>
    </g>
  </g>
  <path class="st12" d="M303.97,264.37c8.47,0,15.34-6.87,15.34-15.34v-88.18h13.76v37.27h-9.32v15.34h15.81c4.89,0,8.85-3.96,8.85-8.85v-43.76c0-8.47-6.87-15.34-15.34-15.34h-29.1v118.85Z"/>
  <path class="st12" d="M303.77,265.39h-.82v-120.89h30.18c8.99,0,16.3,7.27,16.3,16.21v43.91c0,5.35-4.38,9.7-9.76,9.7h-16.77v-17.03h9.41v-35.76h-12.24v87.66c0,8.94-7.31,16.21-16.3,16.21"/>
  <path class="st5" d="M303.77,265.39h-.82v-120.89h30.18c8.99,0,16.3,7.27,16.3,16.21v43.91c0,5.35-4.38,9.7-9.76,9.7h-16.77v-17.03h9.41v-35.76h-12.24v87.66c0,8.94-7.31,16.21-16.3,16.21Z"/>
  <path class="st12" d="M296.48,213.47h2.24v-52.47h-15.34v39.37c0,7.23,5.87,13.1,13.1,13.1"/>
  <path class="st12" d="M299.53,214.28h-3.05c-7.67,0-13.92-6.24-13.92-13.91v-40.18h16.97v54.1Z"/>
  <path class="st2" d="M303.97,264.37c8.47,0,15.34-6.87,15.34-15.33v-88.18h13.76v37.27h-9.32v15.34h15.81c4.89,0,8.85-3.96,8.85-8.85v-43.76c0-8.47-6.87-15.34-15.34-15.34h-29.1v118.85Z"/>
  <path class="st2" d="M296.62,213.67h2.3v-52.88h-15.75v39.68c0,7.29,6.02,13.2,13.45,13.2"/>
  <path class="st5" d="M296.62,213.67h2.3v-52.88h-15.75v39.68c0,7.29,6.02,13.2,13.45,13.2Z"/>
</svg>