<?xml version="1.0" encoding="UTF-8"?>
<svg id="Layer_1" xmlns="http://www.w3.org/2000/svg" version="1.1" viewBox="0 0 91.32 147">
  <!-- Generator: Adobe Illustrator 30.1.0, SVG Export Plug-In . SVG Version: 2.1.1 Build 136)  -->
  <defs>
    <style>
      .st0 {
        fill: #fff;
      }

      .st1 {
        fill: #41a1d2;
      }
    </style>
  </defs>
  <path class="st1" d="M68.26,0h-11.21c-3.46,0-6.73,1.33-9.22,3.74l-14.93,14.88-.57,48.64h-1.65s-.08-47.05-.08-47.05L0,48.78l6.36,7.13.19-.18v18.44c0,10.55,8.72,19.13,19.44,19.13h6.01v53.68l4.53.02c12.71,0,23.05-10.3,23.05-22.96l.03-30.75h16.92c8.15,0,14.78-6.6,14.78-14.7V22.96c0-12.66-10.34-22.96-23.05-22.96ZM59.68,26.4l3.96.1v38.94c0,.81-.66,1.46-1.46,1.46h-2.54l.04-40.5Z"/>
  <g>
    <path class="st0" d="M67.77,2.41h-11.21c-2.82,0-5.52,1.1-7.54,3.06l-14.01,13.59v125.52h1.03v.02c11.38,0,20.65-9.22,20.65-20.55V26.49c0-1.38,1.12-2.5,2.5-2.5h5.02c1.38,0,2.5,1.12,2.5,2.5v38.94c0,2.14-1.73,3.87-3.87,3.87h-3.19v21.58h16.4c6.83,0,12.37-5.51,12.37-12.3V22.96c0-11.33-9.26-20.55-20.65-20.55Z"/>
    <path class="st0" d="M32.33,90.86v-21.61h-3.76l.33-44.67L3.08,48.74l3.02,3.74,2.53-2.44v24.1c0,9.24,7.63,16.72,17.04,16.72v-.02l6.67.02Z"/>
  </g>
</svg>