<?xml version="1.0" encoding="UTF-8"?>
<svg id="Layer_1" xmlns="http://www.w3.org/2000/svg" version="1.1" viewBox="0 0 100 93.49">
  <!-- Generator: Adobe Illustrator 30.1.0, SVG Export Plug-In . SVG Version: 2.1.1 Build 136)  -->
  <defs>
    <style>
      .st0 {
        fill: #fff;
      }

      .st1 {
        fill: #41a1d2;
      }

      .st2 {
        fill: #43a1d2;
      }
    </style>
  </defs>
  <rect class="st2" x=".17" y="69.79" width="99.86" height="1.32"/>
  <path class="st0" d="M36.06,85.66c-.13-.53-.32-1.03-.57-1.48-.25-.46-.55-.87-.91-1.24s-.76-.68-1.21-.94-.94-.46-1.48-.6c-.54-.14-1.11-.21-1.72-.21-.91,0-1.74.15-2.49.46s-1.39.74-1.93,1.29-.95,1.2-1.24,1.95-.44,1.57-.44,2.45.15,1.7.44,2.45.71,1.4,1.24,1.95c.54.55,1.18.98,1.93,1.29s1.58.46,2.49.46,1.75-.15,2.5-.46,1.39-.74,1.92-1.29c.53-.55.94-1.2,1.24-1.95.29-.75.44-1.57.44-2.45,0-.59-.07-1.15-.2-1.68h-.01ZM33.7,89.12c-.18.52-.43.97-.76,1.33-.33.36-.73.64-1.19.84-.47.19-1,.29-1.59.29s-1.12-.1-1.59-.29c-.47-.19-.87-.47-1.2-.84-.33-.36-.58-.81-.76-1.33-.18-.53-.27-1.12-.27-1.78s.09-1.25.27-1.78c.18-.52.43-.97.76-1.34s.73-.65,1.2-.84c.47-.19,1-.29,1.59-.29s1.12.1,1.59.29c.47.19.87.47,1.19.84.33.37.58.81.76,1.34.18.53.27,1.12.27,1.78s-.09,1.25-.27,1.78Z"/>
  <path class="st0" d="M20,88.54c0,.46-.06.88-.19,1.25s-.3.69-.54.95c-.23.26-.52.46-.86.61-.34.14-.73.22-1.16.22s-.82-.07-1.16-.22h0c-.34-.15-.63-.36-.87-.62s-.42-.58-.54-.95c-.13-.37-.19-.79-.19-1.25v-7.2h-2.24v7.21c0,.72.11,1.38.34,1.99.23.61.56,1.13.99,1.57.43.44.95.79,1.57,1.03.62.25,1.31.37,2.09.37s1.47-.12,2.08-.37c.62-.25,1.14-.59,1.57-1.03.43-.44.76-.97.99-1.57.23-.61.35-1.27.35-1.99v-7.21h-2.24v7.21Z"/>
  <path class="st0" d="M8.73,81.48c-.12.11-.21.22-.27.34l-2.19,4.02c-.12.24-.23.46-.32.67-.09.21-.18.42-.25.63-.08-.21-.17-.42-.26-.63-.1-.21-.21-.44-.34-.67l-2.2-4.02c-.08-.14-.17-.26-.29-.36-.11-.09-.27-.14-.46-.14H.17l4.39,7.38v4.66h2.23v-4.66l4.39-7.38h-1.98c-.19,0-.34.05-.47.16Z"/>
  <polygon class="st0" points="85.4 86.5 79.75 86.5 79.75 81.32 77.5 81.32 77.5 93.36 79.75 93.36 79.75 88.1 85.4 88.1 85.4 93.36 87.65 93.36 87.65 81.32 85.4 81.32 85.4 86.5"/>
  <path class="st0" d="M97.93,81.33v7.21c0,.46-.06.88-.19,1.25-.12.37-.3.69-.54.95-.23.26-.52.46-.86.61-.34.14-.73.22-1.16.22s-.82-.07-1.16-.22h0c-.34-.15-.63-.36-.87-.62-.24-.26-.42-.58-.54-.95s-.19-.79-.19-1.25v-7.2h-2.24v7.21c0,.72.12,1.38.35,1.99.23.61.56,1.13.99,1.57.43.44.95.79,1.57,1.03.62.25,1.31.37,2.09.37s1.47-.12,2.08-.37c.62-.25,1.14-.59,1.57-1.03.43-.44.76-.97.99-1.57.23-.61.35-1.27.35-1.99v-7.21h-2.24Z"/>
  <path class="st0" d="M74.65,82.39c-.38-.34-.87-.6-1.46-.79-.59-.19-1.29-.28-2.09-.28h-3.9v12.04h2.24v-4.24h1.67c.78,0,1.47-.1,2.05-.29.59-.19,1.07-.47,1.46-.82.39-.35.68-.77.87-1.25.19-.49.29-1.02.29-1.6s-.09-1.08-.28-1.55c-.19-.47-.47-.88-.85-1.22ZM73.4,86.08c-.1.27-.25.51-.45.7s-.46.34-.76.44c-.3.1-.66.15-1.07.15h-1.68v-4.32h1.67c.42,0,.78.05,1.08.15.31.1.56.24.76.42s.35.41.45.67c.1.26.15.55.15.87,0,.34-.05.65-.15.92Z"/>
  <path class="st0" d="M56.99,87.32v1.27c0,.12.04.22.12.3.08.08.19.12.34.12h1.52v2.18c-.33.16-.67.29-1.02.38-.35.09-.75.14-1.19.14-.62,0-1.19-.1-1.69-.3-.51-.2-.94-.48-1.3-.86-.36-.37-.63-.83-.83-1.37-.2-.54-.3-1.16-.3-1.84,0-.64.09-1.23.27-1.75.18-.52.44-.97.78-1.34s.75-.66,1.23-.86c.48-.2,1.02-.3,1.61-.3.37,0,.69.03.97.08.28.05.53.11.76.19.22.08.43.17.61.27.18.11.37.21.55.32.19.12.36.16.52.12.16-.04.29-.14.39-.3l.64-1.02c-.25-.23-.52-.45-.82-.64-.3-.19-.63-.36-1-.5-.36-.14-.76-.24-1.18-.32-.43-.08-.88-.12-1.37-.12-.96,0-1.83.15-2.6.45s-1.43.72-1.97,1.27c-.54.54-.96,1.19-1.25,1.95-.29.75-.44,1.58-.44,2.49s.15,1.72.46,2.47.74,1.4,1.3,1.95c.56.54,1.24.97,2.04,1.27.8.31,1.69.46,2.67.46.79,0,1.53-.1,2.22-.31.69-.21,1.34-.54,1.95-.99v-4.87h-4,.01Z"/>
  <path class="st0" d="M46.41,81.32v7.32c0,.16,0,.34.02.52.01.19.02.38.04.57l-6.31-8.06c-.06-.08-.12-.14-.17-.19s-.1-.08-.15-.11c-.05-.02-.11-.04-.18-.05-.07,0-.15-.01-.25-.01h-1.17v12.04h1.97v-7.39c0-.31-.02-.65-.05-1.02l6.29,8.03c.11.14.23.24.35.3s.27.09.45.09h1.15v-12.04h-1.99Z"/>
  <g>
    <path class="st1" d="M60.54,4.88h-4.66c-1.57,0-3.05.6-4.18,1.69l-5.79,5.55h0s-14.29,13.37-14.29,13.37l2.85,3.53v14.34c0,4.66,3.85,8.45,8.58,8.45h.94s1.44,0,1.44,0v15.14h1.93c5.56,0,10.08-4.49,10.08-10.03v-5.1h6.54c3.66,0,6.64-2.96,6.64-6.61V14.92c0-5.54-4.52-10.04-10.08-10.04Z"/>
    <path class="st1" d="M60.54,4.63h-4.66c-1.63,0-3.18.63-4.35,1.76l-5.79,5.55-14.46,13.53,2.94,3.64v14.26c0,4.8,3.96,8.7,8.83,8.7h.94s1.19,0,1.19,0v15.14h2.18c5.7.01,10.33-4.61,10.33-10.28v-4.85h6.29c3.8,0,6.89-3.08,6.89-6.86V14.92c0-5.67-4.63-10.29-10.33-10.29Z"/>
  </g>
  <g>
    <path class="st0" d="M60.27,6.38h-4.66c-1.17,0-2.29.46-3.13,1.27l-5.82,5.65v52.16h.43c4.73,0,8.58-3.82,8.58-8.53V16.39c0-.57.47-1.04,1.04-1.04h2.09c.57,0,1.04.47,1.04,1.04v23.36c0,.89-.72,1.61-1.61,1.61h-1.33v8.97h6.81c2.84,0,5.14-2.29,5.14-5.11V14.92c0-4.71-3.85-8.54-8.58-8.54Z"/>
    <path class="st0" d="M45.55,50.32v-8.98h-1.56l.14-25.74-10.73,10.04,1.25,1.55,1.05-1.01v17.19c0,3.84,3.17,6.95,7.08,6.95h0s2.77,0,2.77,0Z"/>
  </g>
</svg>