<?xml version="1.0" encoding="UTF-8"?>
<svg id="Layer_1" xmlns="http://www.w3.org/2000/svg" version="1.1" viewBox="0 0 100 93.49">
  <!-- Generator: Adobe Illustrator 30.1.0, SVG Export Plug-In . SVG Version: 2.1.1 Build 136)  -->
  <defs>
    <style>
      .st0 {
        fill: #ebae8d;
      }

      .st1 {
        fill: #cfddd2;
      }

      .st2 {
        fill: #ecd9aa;
      }

      .st3 {
        fill: #fff;
      }

      .st4 {
        opacity: .14;
      }

      .st5 {
        fill: #a3d4cf;
      }

      .st6 {
        fill: #41a1d2;
      }

      .st7 {
        fill: #43a1d2;
      }

      .st8 {
        fill: #849b93;
      }

      .st9 {
        fill: none;
        stroke: #41a1d2;
        stroke-miterlimit: 10;
      }

      .st10 {
        fill: #f1c7b5;
      }

      .st11 {
        fill: #5dafb6;
      }

      .st12 {
        fill: #f2c899;
      }
    </style>
  </defs>
  <g>
    <g class="st4">
      <g>
        <g>
          <path class="st12" d="M65.71,31.27h-1q-.08-.33-.17-.66c-.63.54-.7.71.17.66.19,1.53,2.5,3.08-.66,1.66-1.13-2.87-1.94-7.02-2.99-10.13.71-1.04,4.09,7.36,4.65,8.47"/>
          <path class="st0" d="M46.78,12.34c4.49,7.73,1.77,9.45-.66,2.32-.39-1.15-1.6-2.25.66-2.32"/>
          <path class="st2" d="M50.6,22.63c1.32,4.81,3.76,7.38.5,4.82.81-2.49-2.22-2.15-.5-4.82"/>
          <path class="st10" d="M64.71,31.27c-.86.05-.79-.13-.17-.66q.08.33.17.66"/>
        </g>
        <g>
          <path class="st12" d="M49.11,39.24c1.03,1.7,1.87,3.65,2.99,5.31-.83.63-1.07.18-1.66,1.33-.12.23-.28.42-.33.66-.16-.26-2.66-2.58-3.99-4.65-.88-1.38-1.52-1.14-2.32-5.48-.03-.16-1.15.35-.17-2.82,2.7-1.61,4.25,3.61,5.48,5.65"/>
          <path class="st5" d="M46.12,41.9c1.32,2.07,3.82,4.39,3.99,4.65.48.75.28,1.22.33,1.33.38.79,1.74,1.47.5,1.66-4-2.69-3.72-.98-3.99-1-1.63-.1-3.47-.34-1.49-1.33.44-.04.89.02,1.33,0,1.56.29-.58-2.37-1.99-3.65-1.19-2.69-.6-2.21-.66-2.32q1,.33,1.99.66"/>
          <path class="st1" d="M46.78,47.21c-.43-1.25-2.14-2.76-2.32-3.15-.22-.47.34-.47.33-.5,1.41,1.28,3.55,3.94,1.99,3.65"/>
          <path class="st11" d="M51.43,60.16s.07.37-.33.33c-1.49-.42-2.71-.75-3.98-1.66-3.08-2.21-4.5-3.22-1.99-7.31.62,1.28.31,4.5.66,5.15.8,1.46,6.2,1.41,5.65,3.49"/>
          <path class="st8" d="M51.76,55.18q-.33.5-.66,1c-1.48-1.72-3.02-3.45-4.32-5.31-.06-.09.14-.55-.17-1-.05-.08-1.74.78-.17-.66,1.76.26,3.92,4.49,5.31,5.98"/>
        </g>
      </g>
    </g>
    <path class="st3" d="M94.02,91.34c-.34-.14-.63-.35-.87-.61-.24-.26-.42-.58-.54-.95-.12-.37-.19-.79-.19-1.25v-7.2h-2.24v7.21c0,.72.12,1.38.35,1.99.23.61.56,1.13.99,1.57.43.44.95.79,1.57,1.03.62.25,1.31.37,2.09.37s1.47-.12,2.08-.37c.62-.25,1.14-.59,1.57-1.03.43-.44.76-.97.99-1.57.23-.61.35-1.27.35-1.99v-7.21h-2.24v7.21c0,.46-.06.88-.19,1.25-.12.37-.3.69-.54.95-.23.26-.52.46-.86.61-.34.14-.73.22-1.16.22s-.82-.07-1.16-.22M85.4,81.32v5.18h-5.65v-5.18h-2.25v12.04h2.25v-5.26h5.65v5.26h2.25v-12.04h-2.25ZM67.2,81.32v12.04h2.24v-4.24h1.67c.78,0,1.47-.1,2.05-.29.59-.19,1.07-.47,1.46-.82.39-.35.68-.77.87-1.25.19-.49.29-1.02.29-1.6s-.09-1.08-.28-1.55c-.19-.47-.47-.88-.85-1.22-.38-.34-.87-.6-1.46-.79-.59-.19-1.29-.28-2.09-.28h-3.91ZM69.44,87.37v-4.32h1.67c.42,0,.78.05,1.08.15.31.1.56.24.76.42.2.18.35.41.45.67.1.26.15.55.15.87,0,.34-.05.65-.15.92-.1.27-.25.51-.45.7-.2.19-.46.34-.76.44s-.66.15-1.07.15h-1.67ZM56.99,87.32v1.27c0,.12.04.22.12.3.08.08.19.12.34.12h1.52v2.18c-.33.16-.67.29-1.02.38-.35.09-.75.14-1.19.14-.62,0-1.19-.1-1.69-.3-.51-.2-.94-.48-1.3-.86-.36-.37-.63-.83-.83-1.37-.2-.54-.3-1.16-.3-1.84,0-.64.09-1.23.27-1.75s.44-.97.78-1.34c.34-.37.75-.66,1.23-.86.48-.2,1.02-.3,1.61-.3.37,0,.69.03.97.08.28.05.53.11.76.19.22.08.43.17.61.27.18.11.37.21.55.32.19.12.36.16.52.12.16-.04.29-.14.39-.3l.64-1.02c-.25-.23-.52-.45-.82-.64-.3-.19-.63-.36-1-.5-.36-.14-.76-.24-1.18-.32-.43-.08-.88-.12-1.37-.12-.96,0-1.83.15-2.6.45-.77.3-1.43.72-1.97,1.27-.54.54-.96,1.19-1.25,1.95-.29.75-.44,1.58-.44,2.49s.15,1.72.46,2.47c.31.75.74,1.4,1.3,1.95.56.54,1.24.97,2.04,1.27.8.31,1.69.46,2.67.46.79,0,1.53-.1,2.22-.31.69-.21,1.34-.54,1.95-.99v-4.87h-4ZM46.41,81.32v7.32c0,.16,0,.34.02.52.01.19.02.38.04.57l-6.31-8.06c-.06-.08-.12-.14-.17-.19-.05-.05-.1-.08-.15-.11-.05-.02-.11-.04-.18-.05-.07,0-.15-.01-.25-.01h-1.17v12.04h1.97v-7.39c0-.31-.02-.65-.05-1.02l6.29,8.03c.11.14.23.24.35.3.12.06.27.09.45.09h1.15v-12.04h-1.97ZM33.7,89.12c-.18.52-.43.97-.76,1.33-.33.36-.73.64-1.19.84-.47.19-1,.29-1.59.29s-1.12-.1-1.59-.29c-.47-.19-.87-.47-1.2-.84-.33-.36-.58-.81-.76-1.33-.18-.53-.27-1.12-.27-1.78s.09-1.25.27-1.78c.18-.52.43-.97.76-1.34.33-.37.73-.65,1.2-.84.47-.19,1-.29,1.59-.29s1.12.1,1.59.29c.47.19.87.47,1.19.84.33.37.58.81.76,1.34.18.53.27,1.12.27,1.78s-.09,1.25-.27,1.78M36.06,85.66c-.13-.53-.32-1.03-.57-1.48-.25-.46-.55-.87-.91-1.24s-.76-.68-1.21-.94c-.45-.26-.94-.46-1.48-.6-.54-.14-1.11-.21-1.72-.21-.91,0-1.74.15-2.49.46-.75.31-1.39.74-1.93,1.29-.54.55-.95,1.2-1.24,1.95-.29.75-.44,1.57-.44,2.45s.15,1.7.44,2.45c.29.75.71,1.4,1.24,1.95.54.55,1.18.98,1.93,1.29.75.31,1.58.46,2.49.46s1.75-.15,2.5-.46c.75-.31,1.39-.74,1.92-1.29.53-.55.94-1.2,1.24-1.95.29-.75.44-1.57.44-2.45,0-.59-.07-1.15-.2-1.68M16.1,91.34c-.34-.14-.63-.35-.87-.61-.24-.26-.42-.58-.54-.95-.13-.37-.19-.79-.19-1.25v-7.2h-2.24v7.21c0,.72.11,1.38.34,1.99.23.61.56,1.13.99,1.57.43.44.95.79,1.57,1.03.62.25,1.31.37,2.09.37s1.47-.12,2.08-.37c.62-.25,1.14-.59,1.57-1.03.43-.44.76-.97.99-1.57.23-.61.35-1.27.35-1.99v-7.21h-2.24v7.21c0,.46-.06.88-.19,1.25-.13.37-.3.69-.54.95-.23.26-.52.46-.86.61-.34.14-.73.22-1.16.22s-.82-.07-1.16-.22M11.18,81.32h-1.98c-.19,0-.34.05-.47.16-.12.11-.21.22-.27.34l-2.19,4.02c-.12.24-.23.46-.32.67-.09.21-.18.42-.25.63-.08-.21-.17-.42-.26-.63-.1-.21-.21-.44-.34-.67l-2.2-4.02c-.08-.14-.17-.26-.29-.36-.11-.09-.27-.14-.46-.14H.17l4.39,7.38v4.66h2.23v-4.66l4.39-7.38Z"/>
    <path class="st6" d="M44.01,63.98c4.46,0,8.08-3.62,8.08-8.08V9.46h7.25v19.63h-4.91v8.08h8.32c2.57,0,4.66-2.09,4.66-4.66V9.46c0-4.46-3.62-8.08-8.08-8.08h-15.32v62.59Z"/>
    <path class="st6" d="M43.91,64.51h-.43V.84h15.89c4.73,0,8.58,3.83,8.58,8.54v23.12c0,2.82-2.3,5.11-5.14,5.11h-8.83v-8.97h4.95V9.81h-6.44v46.17c0,4.71-3.85,8.54-8.58,8.54"/>
    <path class="st9" d="M43.91,64.51h-.43V.84h15.89c4.73,0,8.58,3.83,8.58,8.54v23.12c0,2.82-2.3,5.11-5.14,5.11h-8.83v-8.97h4.95V9.81h-6.44v46.17c0,4.71-3.85,8.54-8.58,8.54Z"/>
    <path class="st6" d="M40.07,37.17h1.18V9.53h-8.08v20.73c0,3.81,3.09,6.9,6.9,6.9"/>
    <path class="st6" d="M41.68,37.6h-1.61c-4.04,0-7.33-3.29-7.33-7.33V9.1h8.94v28.49Z"/>
    <path class="st3" d="M44.01,63.98c4.46,0,8.08-3.62,8.08-8.08V9.46h7.25v19.63h-4.91v8.08h8.32c2.57,0,4.66-2.09,4.66-4.66V9.46c0-4.46-3.62-8.08-8.08-8.08h-15.32v62.59Z"/>
    <path class="st3" d="M40.14,37.27h1.21V9.43h-8.29v20.9c0,3.84,3.17,6.95,7.08,6.95"/>
    <path class="st9" d="M40.14,37.27h1.21V9.43h-8.29v20.9c0,3.84,3.17,6.95,7.08,6.95Z"/>
  </g>
  <rect class="st7" x=".17" y="69.79" width="99.86" height="1.32"/>
</svg>