<?xml version="1.0" encoding="UTF-8"?>
<svg id="Layer_1" xmlns="http://www.w3.org/2000/svg" version="1.1" viewBox="0 0 612 396">
  <!-- Generator: Adobe Illustrator 30.1.0, SVG Export Plug-In . SVG Version: 2.1.1 Build 136)  -->
  <defs>
    <style>
      .st0 {
        fill: #231f20;
      }
    </style>
  </defs>
  <path class="st0" d="M341.38,191.4l-.03.11s0,.01-.01.01c0-.04.02-.08.04-.12"/>
  <path class="st0" d="M514.3,180.66c.14.05.28.08.42.08.35,0,.73-.16,1.22-.38.51-.27,1.01-.64.73-1.5l-.06-.32c-.06-.29-.11-.55-.06-.8.12-.68.66-1.82,1.1-2.52.12-.19.22-.38.31-.58.11-.24.19-.38.29-.45l.34-.19-.03-.43s.12-.16.2-.24c.16-.17.35-.39.47-.67.34-.28.49-.63.59-.87.04-.1.09-.2.13-.26.23-.2.39-.56.27-1.09-.16-.74-.68-.79-.83-.79-.12,0-.25-.02-.38-.03-.19-.03-.37-.04-.63-.03-.73.09-1.34.57-1.78,1.44-.07.16-.17.3-.27.44-.16.24-.34.49-.45.81-.47.43-.74.95-.98,1.4l-.18.33c-.33.6-.66,1.21-.88,1.94-.05.27-.15.53-.21.63-.27.29-.3.6-.29.85l-.12.07-.02.43c-.02.62.07,1.16.26,1.61.18.44.37.9.84,1.09"/>
  <path class="st0" d="M454.96,185.16c-.25-.21-.62-.54-1.06-.54h0c-.54-.11-1.13-.22-1.67-.21-1.21-.2-2.76-.15-4.17.09-.25.04-.5.09-.8.13-1.02.23-2.05.55-3.04.87-.48.15-.97.31-1.42.44-.49.12-.92.32-1.32.53-.4.2-.79.39-1.2.44-.66.13-1.25.43-1.82.71-.5.26-.97.5-1.43.58l-.19.04-.15.13c-.65.55-1.43.8-2.26,1.07-.31.1-.61.2-.96.33-.25.11-.57.25-.85.5-.15.1-.3.2-.45.28.23-.76.6-1.47.99-2.21.31-.59.63-1.19.89-1.88.12-.39.31-.75.49-1.12.22-.43.44-.87.59-1.35.07-.22.23-.48.4-.76.29-.48.62-1.03.7-1.67.44-.43.54-.9.6-1.24.02-.11.04-.21.06-.26l.05-.18c.09-.52.14-.75.32-.95.43-.37.67-1,.74-1.41.06-.36.21-.69.37-1.05.08-.18.16-.36.23-.51.27-.39.6-.88.49-1.52l.11-.17c.04-.09.1-.17.16-.24.14-.21.32-.47.41-.77.14-.23.37-.59.32-1.04.19-.17.48-.48.41-.87,0-.19.12-.43.26-.69.14-.27.3-.57.36-.92,0-.03.06-.12.1-.19.09-.16.22-.38.29-.77.01-.27.14-.58.28-.91.17-.41.35-.86.38-1.37.53-.52.61-1.07.66-1.44l.03-.19c.05-.28.07-.39.12-.46.35-.51.58-1.13.78-1.67l.12-.29c.2-.48.45-1.09.33-1.66.02-.06.15-.22.23-.33.17-.23.39-.5.52-.84l.06-.25c.19-1.04.36-2.03.92-3l.23-.25-.21-.37s.08-.15.12-.22c.08-.13.16-.27.23-.42.12-.28.13-.53.15-.86l.27-.18.06-.32c.08-.43.21-.85.34-1.26.19-.61.39-1.24.43-1.87.03-.17.05-.33.07-.5.07-.58.11-.85.43-1.08l.25-.18.12-.77c0-.32.09-.6.34-.97.21-.31.23-.65.25-.9,0-.08,0-.16.02-.25l-.04-.33c.33-.63.39-1.24.44-1.78.01-.16.03-.31.05-.47.09-.19.12-.38.14-.58l.11-.25c.24-.75.48-1.52.62-2.31l.55-3.14c.05-.3.09-.6.13-.89.08-.56.15-1.09.3-1.59.25-.72.36-1.34.36-2.08,0-.32.04-.64.07-.97.03-.34.06-.69.08-1.08,0-.12.06-.32.12-.51.14-.45.31-1.06.09-1.71v-.04c.22-.57.5-1.33.28-2.09.2-.7.12-1.34.06-1.86-.03-.27-.07-.53-.07-.7.06-.31.06-.65.06-.99,0-.25-.01-.51.03-.74.12-.66.06-1.38-.18-2.18,0-.17-.05-.31-.1-.42.27-1.04.22-1.74-.21-2.59.21-1.21-.14-2.3-.45-3.28-.08-.24-.15-.49-.2-.58-.04-.54-.21-1.09-.51-1.61l-.16-.2c-.17-.15-.25-.24-.29-.32l.04-.33c.03-.43-.24-.76-.36-.89l-.28-.19s-.05-.07-.12-.37c-.15-.34-.38-.58-.58-.77-.25-.24-.29-.31-.28-.42v-.29s-.18-.22-.18-.22c-.07-.09-.34-.33-.62-.36-.14-.03-.16-.04-.27-.25-.07-.22-.28-.86-.94-.94-.26-.08-.5-.26-.78-.46-.37-.27-.78-.57-1.43-.73-.41-.05-.75-.26-1.14-.5-.24-.15-.48-.29-.9-.47-.11-.02-.21-.06-.31-.09-.41-.13-1.01-.31-1.8.08-.43-.29-.87-.25-1.28-.21-.61-.06-1.22.02-1.81.11-.55.08-1.07.15-1.66.1-.22,0-.39.08-.49.15l-1.62.4c-1.31.11-2.65.47-3.82,1.02-.6.22-1.17.47-1.74.72-.54.24-1.09.47-1.73.72-.44.23-.86.51-1.29.8-.37.26-.74.51-1.15.72-.41.22-.81.45-1.21.69-.78.45-1.51.88-2.29,1.21-.82.31-1.46.91-1.68,1.52-.19.32-.36.46-.87.64-.57.21-1.42.53-1.71,1.51-.06.03-.17.08-.4.16-.13.07-.26.13-.39.2-.53.25-1.14.55-1.68,1.19-.16.22-.44.42-.73.62-.3.22-.6.44-.92.77-.28.35-.62.65-.98.97-.45.4-.93.81-1.25,1.3-.03.03-.14.08-.22.11-.2.08-.47.2-.67.48-.29.43-.69.76-1.17,1.15l-.4.33c-.32.28-.58.51-.58.68-.28.6-.71.97-1.35,1.52l-.49.5c-.81.81-1.64,1.65-2.15,2.84-.6.28-.9.82-1.13,1.22-.06.11-.12.21-.13.24l-.16.19c-.06.07-.14.18-.14.19-.36,0-.75.18-.99.47-.23.26-.33.59-.29.84,0,.11-.19.35-.49.52l-.18.15c-.71.79-1.28,1.49-1.63,2.58,0,0,0,0,0,0-.84.57-1.37,1.37-1.89,2.13-.24.35-.47.71-.76,1.05-.17.22-.31.47-.44.72-.21.4-.35.65-.56.78-.48.22-.69.61-.64,1.24-.03.01-.05.03-.09.05-.24.14-.61.34-.8.78-.09.18-.17.37-.25.56-.21.5-.34.79-.75,1.05-.34.29-.41.72-.45,1.06,0,.09-.06.22-.18.42-.05.09-.1.18-.1.19-.3.45-.58.92-.86,1.39-.26.45-.52.89-.73,1.22-.42.45-.58.95-.73,1.39l-.13.37c-.06.15-.22.35-.38.54-.23.28-.49.59-.63.95-.07.15-.12.31-.17.46-.08.23-.15.43-.26.56-.49.62-.72,1.25-.89,1.71-.14.24-.23.5-.32.75-.08.24-.16.45-.25.51l-.27.17-.1.68c0,.16-.12.45-.22.7-.12.28-.24.58-.27.79-.26.81-.61,1.57-.93,2.05-.63.85-.94,1.87-1.21,2.79l-1.3,3.67c-.15.41-.27.84-.4,1.26-.24.82-.46,1.59-.85,2.31l-.23.23.21.36s-.05.14-.09.21c-.1.22-.24.53-.2.72-.02.13-.08.26-.12.38-.11.3-.25.67-.21,1.18,0,.05-.08.18-.12.27-.15.29-.38.71-.18,1.23,0,.04-.05.14-.09.21-.1.23-.24.54-.2.72l-.36,2c-.08.32-.17.71-.07,1.1-.3.37-.25.8-.19,1.07,0,0,0,0,0,0-.39.46-.28,1.03-.22,1.36.02.1.05.24.04.29-.21,1.19-.31,2.35-.4,3.54l-.22,3.06c-.13.73-.22,1.77.06,2.63.09.29.09.67.09,1.07,0,.31,0,.62.04.98.03.21.07.41.12.62.09.44.18.85.18,1.19-.13.75-.04,1.55.24,2.2.04.13.06.29.07.47.02.24.04.52.11.76.02.07.01.2.01.32,0,.36-.03,1.12.53,1.5-.24.47-.2.94.11,1.31l.21.35c.17.4.29.83.4,1.27.19.69.38,1.4.75,2.08.01.56.34.9.52,1.1.06.06.14.15.14.16.19.98.76,1.91,1.5,2.5l.45.55c.29.76.81,1.25,1.24,1.64,1.33,1.46,3.19,2.11,5.36,1.87.74,0,1.43-.25,1.98-.71l.21-.17.02-.11c.09-.13.22-.36.16-.67l-.14-.43-.16-.09c-.33-.42-.81-.61-1.2-.76l-.14-.03c-.29-.22-.67-.3-1-.26-.27.04-.51.17-.7.35-.14.06-.22,0-.41-.13-.48-.31-.95-.8-1.41-1.51l-.14-.15c-.27-.23-.41-.52-.5-1.07-.16-.51-.44-.99-.7-1.45-.24-.41-.46-.8-.59-1.19-.11-.28-.18-.58-.26-.88-.12-.49-.26-1.05-.52-1.51-.08-.19-.12-.46-.17-.75-.06-.36-.12-.74-.24-1.03-.19-.59-.29-1.2-.42-1.94-.02-.08-.04-.21-.05-.35-.03-.34-.07-.77-.34-1.14.15-.69.01-1.32-.1-1.85-.03-.15-.06-.3-.1-.49-.03-.15-.04-.32-.05-.48-.02-.32-.05-.69-.18-1.06.25-.63.07-1.15-.06-1.52,0-.01,0-.02-.01-.04.15-.19.31-.48.2-.88l.02-.11-.14-.24c-.11-.18-.08-.41,0-.82.06-.36.13-.76.06-1.02.03-.36.01-.71,0-1.07-.03-.6-.05-1.13.16-1.64.17-.47.14-.9.11-1.25-.01-.2-.03-.37,0-.5.05-.28.06-.57.08-.86.02-.52.04-.96.28-1.39l.11-1.17c-.06-.82-.03-1.42.25-2.09.32-.63.44-1.12.38-1.44,0-.19.08-.45.17-.72.08-.25.17-.5.21-.76.03-.14.09-.31.17-.5.15-.39.35-.88.22-1.49.05-.09.1-.19.12-.29.06-.19.15-.37.24-.54.24-.47.55-1.09.36-1.79.33-.44.46-.89.57-1.26.07-.25.14-.47.24-.6l.2-.26-.05-.32c-.04-.28.1-.63.26-1,.2-.47.42-1.01.34-1.62,1.03-1.72,1.69-3.38,2.02-5.02l.69-1.23c.17-.38.33-.76.49-1.13.34-.8.66-1.56,1-2.17.25-.32.36-.65.46-.92.11-.3.16-.44.31-.55l.26-.17.11-.78v-.04c.29-.17.75-.51.65-1.16.01-.03.08-.12.13-.18.11-.13.21-.27.32-.49.14-.36.35-.71.56-1.05.35-.59.72-1.2.92-1.91.44-.34.62-.71.52-1.11h0c.08-.06.18-.14.27-.26.13-.13.2-.27.22-.36.66-.56,1-1.23,1.3-1.82.11-.21.21-.43.32-.6.05-.08.13-.16.21-.23.23-.23.64-.63.64-1.24.4-.26.63-.71.82-1.09.3-.59.55-1.02.93-1.44.17-.1.32-.26.41-.46l.17-.54s.09-.08.14-.14c.1-.1.2-.19.27-.28.45-.48.78-1.06,1.09-1.6l.18-.27c.18-.28.3-.47.61-.74l1.96-2.34.11-.16c.24-.35.52-.75.55-1.28.02-.02.05-.05.09-.08.29-.15.5-.34.67-.6.71-.89,1.46-1.67,2.22-2.33.4-.23.61-.59.7-.79l.38-.46c.68-.83,1.39-1.69,2.23-2.15.4-.19.86-.57.95-1.09.03-.17.09-.24.46-.45l.19-.16c.08-.09.17-.16.27-.24.26-.21.59-.48.83-1.09-.01.09-.08.19.03.09.49-.28.88-.65,1.26-1,.41-.39.79-.75,1.21-.88l.44-.14.04-.27.13-.13.05-.27c.02-.13.11-.21.5-.42.21-.11.45-.25.73-.49l.25-.25c.33-.32.73-.71.99-1.37.07-.02.16-.05.23-.07.38-.12.9-.27,1.22-.69l.4-.43.19-.3c.86,0,1.47-.46,2-.87l.36-.26c1.36-1.07,2.9-2.01,4.45-2.72,1.42-.66,2.94-1.31,4.25-1.81,1.46-.5,2.53-.72,3.57-.72.19,0,.36-.04.67-.1l.35-.07h.01c.07.1.34.38.67.38h0c.37.05.74.12,1.11.19.48.09.97.18,1.49.24.2.37.56.49.69.49h.01l.32.24c.23.57.8.77,1.14.93.08.25.24.72.65.88.33.24.51.64.71,1.09.21.47.45.99.9,1.39l.05.26c.05.61.12,1.36.61,1.98-.08.54.06.95.19,1.32l.2.42.32,3.62c.11,1.16.12,2.35.14,3.36-.05.26-.02.49.06.64l-.14.15c-.28.4-.38,1.07-.23,1.56.11.28.05.7,0,1.16-.05.39-.1.8-.07,1.18,0,.2.04.39.06.57.06.33.06.42-.01.55-.24.42-.25.81-.26,1.11,0,.27-.02.34-.08.43l-.36.47.28.35s-.02.08-.03.12c-.06.22-.14.54-.04.88-.01.06-.06.15-.1.22-.11.21-.33.68-.12,1.14-.02.07-.08.19-.11.27-.09.19-.19.41-.23.66l-.06.34.07.09c0,.12.02.27.09.44-.28.29-.3.66-.31.86l-.03.19.06.18c.04.14.07.34-.19.73-.13.26-.17.52-.21.74-.02.12-.05.27-.08.34-.18.35-.12.67-.06.89-.12.25-.16.48-.19.67-.02.12-.04.22-.07.28l-.07.2c-.03.17-.07.32-.1.47-.09.35-.19.74-.16,1.33,0,.04-.07.18-.13.29-.12.21-.28.48-.35.94,0,.21-.09.49-.19.78-.16.49-.34,1.05-.24,1.63-.49.64-.68,1.3-.6,2.07l-.14.3c-.09.31-.2.6-.3.89-.19.53-.37,1.04-.45,1.51-.1.36-.23.72-.35,1.06-.22.63-.45,1.27-.52,1.94-.13.25-.16.5-.19.68-.01.08-.03.19-.11.26-.33.28-.47.74-.34,1.12l.02.04h0l-.34.6c-.18.37-.4.83-.37,1.27-.01.35-.17.72-.35,1.14-.11.27-.23.54-.28.71-.21.42-.26.72-.33,1.07-.06.31-.19.64-.33,1-.18.47-.38.95-.44,1.47-.38.62-.59,1.26-.79,1.88-.1.3-.2.6-.32.91-.1.26-.22.52-.34.78-.33.73-.71,1.55-.77,2.39-.01.05-.11.19-.18.28-.17.23-.39.52-.46.92-.21,1.15-.76,2.33-1.35,3.57l-.36.78c-.15.32-.24.67-.33,1.02-.09.36-.17.68-.32.93h-.16s-.2.43-.2.43c-.11.23-.09.43-.03.6h0c-.22.2-.48.56-.53.89-.09.3-.24.58-.39.86-.28.54-.6,1.16-.69,1.88l-.07.1c-.16.15-.4.39-.47.81-.06.34-.25.71-.44,1.1-.22.43-.46.92-.56,1.45l-.03.03c-.46.39-.56.93-.6,1.2-.02.14-.08.27-.12.39-.06.18-.12.34-.12.39-.07.24-.24.5-.42.78-.31.48-.69,1.07-.7,1.83-.82,1.04-1.25,2.24-1.66,3.4-.17.44-.38.72-.71.95-.56.39-1.1.69-1.68,1.01-1.6.7-3.18,1.62-4.71,2.5-.64.38-1.29.75-1.92,1.1-.29.16-.57.3-.85.44-.87.43-1.76.88-2.59,1.63-1.06.44-2.01,1.04-2.94,1.62-.52.33-1.04.66-1.6.97-1.78,1.04-3.54,2.2-5.23,3.32l-1.85,1.22c-.14.09-.27.18-.4.28-.2.15-.33.24-.52.29-1.21.38-2.32,1.25-3.03,1.86-.71.56-1.47,1-2.28,1.45-.82.47-1.67.95-2.49,1.59-.21.17-.44.31-.69.46-.19.11-.38.22-.69.44-.31.31-.68.54-1.07.78-.35.22-.69.43-.86.6-.64.35-1.28.8-1.89,1.22-.18.12-.35.26-.52.39-.28.22-.52.41-.81.52-.87.34-1.82.83-2.43,1.83l-.18.15c-.74.29-1.3.73-1.85,1.16-.17.14-.35.27-.57.44-.13.11-.28.21-.42.3-.27.18-.56.37-.73.59-.53.5-1.08.93-1.63,1.35-.38.29-.76.58-1.08.86-.23.18-.47.34-.72.52-.82.58-1.76,1.23-2.5,2.26-.07.1-.22.22-.43.33-.6.4-1.08.88-1.55,1.35-.34.34-.67.67-1.07.97-.39.33-.69.7-.95,1.03-.31.39-.58.73-1.09,1.03-.33.18-.93.49-1.02,1.33l-.21.07c-.55.25-.91.69-1.17,1.02l-.04.07c-.14.11-.22.24-.37.41-.72.55-1.24,1.21-1.75,1.86-.25.32-.5.64-.8.97l-2.21,2.71c-.2.24-.39.5-.58.76-.47.64-.93,1.24-1.5,1.73-.42.36-.61.82-.76,1.19-.08.21-.16.4-.26.5-.51.57-.84,1.13-1.14,1.62-.13.21-.25.42-.4.65-.13.21-.29.41-.44.6-.38.48-.81,1.02-.9,1.76-.05.06-.15.14-.24.22-.5.54-.82,1.05-1.02,1.59-.2.42-.42.82-.62,1.22-.34.63-.66,1.25-.95,2-.04.24-.17.47-.25.54-.23.19-.49.55-.57,1.08,0,.27-.21.6-.41.94-.17.28-.34.57-.48,1.01-.07.42-.23.82-.39,1.25-.1.26-.2.53-.35.97-.05.1-.14.26-.17.48-.03.17-.06.35-.08.53-.05.37-.11.84-.24,1.01-.35.52-.35.99-.35,1.34,0,.1,0,.18,0,.24l-.22.43c-.15.31-.18.81.03,1.05.05.09.03.22-.04.5l-.05.23c-.32,1.16-.28,2.1-.09,3.3.05.21.08.45.11.69.09.64.19,1.37.65,2.05.01.03.02.12.03.19.04.28.1.76.52,1.13l.19.12c.23.1.37.47.46.74.08.24.31.95,1.07.95.07,0,.13.04.33.23.09.09.19.19.28.26,1.02.84,2.38,1.32,4.24,1.46h5.36l.21-.18c.35-.31.8-.36,1.31-.43l.36-.05c.77-.11,1.39-.4,1.98-.67l.49-.19.12-.18s.09-.03.14-.07c.86-.14,1.59-.4,2.41-.9.35-.3.89-.59,1.69-.9,1.02-.61,2.2-1.26,3.43-1.88.12-.04.31-.1.49-.25l.16-.19c.36-.6.95-.97,1.58-1.35.51-.31,1.03-.64,1.56-1.2.02-.04.2-.12.31-.17.3-.14.7-.34,1.08-.84.07-.11.21-.21.38-.33.23-.16.53-.37.74-.72.94-.62,1.89-1.29,2.55-2.36.96-.65,1.86-1.42,2.65-2.28.16-.17.34-.32.51-.48.4-.36.81-.74,1.16-1.24l.21-.24c.7-.48,1.22-1.09,1.71-1.68.37-.43.71-.84,1.11-1.18.22-.19.49-.55.55-.93.02-.04.11-.12.16-.18.08-.08.16-.16.22-.24.1-.09.21-.16.32-.23.41-.29.92-.65,1.15-1.32.06-.16.26-.35.49-.56.21-.2.43-.41.52-.54.29-.25.37-.55.33-.67.61-.33.98-.86,1.31-1.33.09-.13.18-.26.35-.5.13-.25.15-.26.3-.31.4-.18.56-.5.71-.77.2-.27.38-.55.55-.83.31-.49.61-.96,1.03-1.31.35-.3.57-.62.67-1.02.1-.14.18-.25.26-.33.6-.4.96-.92,1.36-1.55.17-.45.43-.84.67-1.2l.45-.55c.82-1.01,1.6-1.96,2.15-2.98.3-.49.62-.92.93-1.34.44-.6.89-1.21,1.29-1.95.55-.81,1.12-1.66,1.85-2.58.09-.15.17-.31.25-.47.19-.37.36-.73.67-.99.7-.7,1.1-1.57,1.47-2.39.09-.13.15-.26.2-.41,1.02-.96,1.78-2.19,2.37-3.87,1.02-1.34,1.94-2.79,2.74-4.3.11-.19.21-.4.31-.61.17-.34.33-.67.53-.89.37-.41.58-.87.79-1.31.18-.4.35-.76.61-1.05l.27-.24c.21-.22.23-.48.22-.66.12-.25.28-.48.44-.71.3-.45.63-.94.8-1.57.19-.22.32-.46.43-.67.1-.19.19-.36.38-.58l.15-.21c.26-.35.57-.78.64-1.24.58-.4.69-1.05.7-1.18.26-.66.64-1.28,1-1.88.43-.71.87-1.45,1.13-2.24l.17-.29v-.03c.1-.17.2-.33.29-.49.39-.66.8-1.34.93-2.08.89-.65,1.22-1.61,1.46-2.34.18-.38.38-.75.57-1.12.35-.66.7-1.34.9-1.92.05-.08.12-.16.2-.24.24-.29.7-.82.59-1.48.32-.5.59-.99.81-1.62.3-.15.57-.32.82-.49.27-.18.53-.35.81-.41.7-.24,1.31-.59,1.9-.92.56-.32,1.08-.62,1.58-.79.46-.11.84-.36,1.13-.56l.32-.21c.52-.37,1.06-.67,1.74-.99.39-.14.79-.27,1.2-.41,1.21-.4,2.46-.81,3.58-1.44l.7-.28c.26-.03.52-.11.8-.2.15-.05.3-.1.55-.16,1.6-.6,3.33-1.17,5.07-1.05.3.06.63.09.98.12.27.02.56.05.87.1l.28.04c.82.12,1.85.26,2.93-.35l.31-.17.23-1.31-.47-.26c-.07-.04-.16-.12-.26-.2M388.23,220.31c.35-.29.68-.56,1.07-.76.78-.39,1.53-.95,2.25-1.48.33-.25.67-.5,1.04-.74.73-.54,1.57-1.07,2.36-1.57.75-.4,1.43-.88,2.08-1.34.65-.46,1.26-.9,1.96-1.26.94-.53,1.91-1.17,2.88-1.81l.16-.11c.71-.61,1.61-1.11,2.47-1.61.29-.16.57-.32.85-.49,1.9-1.17,3.87-2.37,5.81-3.47.78-.49,1.66-1.05,2.54-1.51,1.99-1.25,3.95-2.4,6.14-3.66.84-.5,1.66-.96,2.54-1.44l-.04.07c-.64,1.04-1.02,1.95-1.23,2.98-.78.5-.98,1.23-1.12,1.78-.04.12-.07.24-.07.28-.27.56-.59,1.06-.9,1.55-.28.45-.56.89-.82,1.4-.34.81-.8,1.64-1.38,2.49-.45.72-.79,1.49-1.12,2.24-.14.32-.28.64-.43.94-.1.2-.24.4-.38.61-.28.41-.59.86-.75,1.4-.41.43-.61.92-.77,1.32-.13.33-.25.61-.5.87-.38.47-.6.99-.8,1.44-.2.48-.38.88-.66,1.16-.42.36-.52.75-.53,1.07-.21.09-.49.24-.65.56-.14.27-.14.53-.11.75-.57.47-.75,1.03-.91,1.48l-.07.21c-.12.3-.27.64-.52.8-.42.35-.85.71-.97,1.41l-.14.19c-.33.38-.52.76-.72,1.15-.25.54-.63,1.1-1.01,1.64l-.73,1.13c-.46.73-.9,1.42-1.31,2.22-.04.1-.17.25-.3.39-.2.22-.42.47-.54.76-.39.76-.99,1.64-1.87,2.75l-.38.62c-.57.91-1.1,1.78-1.74,2.53-.45.51-.81,1.07-1.15,1.62-.21.32-.41.64-.59.88-.12.14-.24.31-.35.48-.13.2-.26.39-.41.52-.62.53-.99,1.26-1.33,1.91l-.41.68c-.34.35-.64.73-.93,1.11-.35.46-.69.9-1.12,1.27l-.2.25-.06.22c-.12.45-.48.77-.89,1.14-.31.28-.66.6-.94,1.01-.4.6-.93,1.16-1.43,1.7l-.54.59c-.22.24-.43.54-.64.85-.16.24-.32.48-.49.66l-4.54,4.87c-.27.3-.57.56-.86.83-.57.52-1.16,1.06-1.63,1.82-.07.14-.31.38-.59.55-.59.31-1.02.77-1.4,1.18-.24.26-.47.52-.71.69-.82.52-1.63,1.17-2.39,1.93-.29.28-.64.5-1,.73-.52.33-1.1.7-1.46,1.18l-.17.16-.06.02c-.89.28-1.61.83-2.2,1.33-1,.85-2.12,1.43-3.3,2.04l-1.09.53c-.55.24-1.12.48-1.78,1.02-.82-.05-1.57.28-2.24.56l-.42.17c-.34.16-.65.24-1,.26-.35-.13-.74-.1-1.11.07l-.12.07c-.42.3-.89.3-1.43.3-1.59-.11-2.64-.56-3.38-1.46-.15-.18-.33-.29-.57-.45-.15-.41-.4-.73-.61-1-.19-.24-.35-.46-.37-.58-.01-.41-.1-.83-.19-1.25-.16-.68-.29-1.26.03-2.06.06-.36-.03-.63-.14-.81,0-.06,0-.12-.01-.19-.03-.34-.02-.45.04-.55.32-.47.33-.93.33-1.27,0-.11,0-.21.02-.31.03-.16.07-.32.12-.49.12-.44.26-.96.16-1.53l.14-.36c.02-.1.11-.27.2-.43.2-.35.5-.9.3-1.56.01-.02.03-.04.04-.06l.15-.23c.34-.66.6-1.23.59-1.94,0-.04.02-.1.03-.16.48-.38.67-.89.8-1.28l.11-.28c.4-1.12.99-2.14,1.62-3.23l.16-.27c.27-.45.52-.89.56-1.21.19-.45.49-.85.81-1.28.22-.3.44-.59.65-.94.61-1.06,1.19-2.07,2.04-2.96.37-.37.65-.84.94-1.32.18-.31.37-.62.58-.91.09-.12.19-.23.29-.35.33-.38.72-.82.93-1.4.58-.47.98-1.05,1.33-1.57.39-.56.72-1.05,1.24-1.37l.25-.25c.43-.73,1.04-1.36,1.69-2.02.42-.44.85-.87,1.23-1.34l.12-.15c.12-.13.32-.33.42-.65.82-.31,1.29-.94,1.7-1.5.23-.32.45-.62.68-.82.59-.44,1.21-.98,1.82-1.52.3-.26.6-.53.96-.84l.42-.46c.38-.4.7-.75,1.17-1.01.78-.41,1.6-1.1,2.39-2.01l.97-.74c.52-.56,1.12-.98,1.76-1.42.26-.18.52-.36.83-.59,1.35-1.24,2.7-2.27,4-3.04.35-.21.67-.47.99-.73M446.74,106.61s-.01-.01-.02-.02l.08-.04-.06.06Z"/>
  <path class="st0" d="M582.2,194.46c-.56-.28-1.49-.02-2.76.82l-.32.21c-.45.29-.88.57-1.34.72-.66.21-1.4.42-2.04.56l-.32.07c-.52.11-1.01.22-1.5.28l-.96.06c-.92.07-1.8.12-2.7.08-.18,0-.36,0-.54.02-.3,0-.59.03-.97-.02-.25,0-.45.07-.62.14-.43-.07-.85-.2-1.28-.33-.19-.06-.39-.08-.59-.11-.03,0-.07,0-.1,0v-.1s-.97-.48-.97-.48l-.09.07c-.05-.03-.12-.06-.18-.09-.18-.1-.39-.21-.65-.27-.21-.37-.59-.55-.87-.68l-.18-.1c-.11-.12-.34-.34-.66-.41-.18-.28-.42-.47-.6-.61-.1-.08-.19-.15-.2-.16-.64-.95-1.68-.81-2.06-.76-.88.09-1.79.28-2.57,1.1-.33.34-.56.71-.79,1.07-.23.37-.45.72-.73.96l-.29.28-.03.39s-.06.11-.11.19c-.1.14-.18.28-.2.34-.08.13-.17.26-.26.38-.25.35-.53.75-.66,1.27l-.31.46c-.37.53-.75,1.08-1.01,1.65-.19.16-.37.42-.33.84-.03.03-.05.05-.08.08-.26.29-.63.71-.68,1.31-.09.11-.18.22-.26.34,0,0,0-.02-.01-.02.08-.17.2-.43.21-.74.23-.3.23-.64.23-.81.09-.19.2-.45.19-.76.24-.26.3-.6.32-.75l.05-.31c.03-.24.06-.46.2-.72.08-.22.13-.46.17-.71.03-.15.05-.31.11-.48.09-.27.15-.55.22-.82.06-.23.11-.46.19-.69.06-.19.11-.39.15-.6.07-.31.13-.6.31-.9.16-.34.22-.67.26-.94.04-.2.06-.36.16-.55l.1-.23c.13-.31.3-.69.28-1.05.03-.35.16-.71.29-1.09.13-.38.26-.76.34-1.28,0-.03.04-.12.06-.18.07-.17.17-.42.17-.71.27-.36.39-.78.35-1.26l.03-.08-.07-.13c.38-.83.03-1.53-.2-2.01l-.22-.51-.49-.05c-.67-.07-1.42.03-2.32.35-.29.13-.95.5-1.16,1.14-.37.13-.67.46-.74.85-.02.11-.27.32-.45.46l-.25.23c-.31.25-.42.5-.42.73-.04.08-.14.17-.4.38-.4.27-.65.64-.85.94l-.12.18c-.39.67-.83,1.28-1.26,1.75-.29.24-.53.54-.76.84-.12.15-.24.3-.4.48-.16.18-.22.36-.24.51-.03.03-.07.06-.11.1-.37.2-.56.5-.68.7-.05.08-.07.15-.08.14-.4.18-.61.52-.78.78-.06.09-.11.18-.27.38l-.24.4c-.77.66-1.32,1.31-1.72,2.01l-1.2.91-2.07,2.07c-.35.35-.72.72-1.09,1.03-.62.46-1.25.93-1.64,1.52l-.19.21c-.18.21-.37.42-.49.5-.47.25-.84.57-1.17.85-.29.22-.57.49-.83.76-.26.26-.5.5-.74.65l-.17.1c-.24.13-.69.36-.87.84-.17.05-.37.15-.51.32-.28.29-.7.54-1.1.78-.2.09-.5.23-.66.48-.33.39-.8.53-1.34.69l-.33.1c-.35.12-.54.18-.77.13l-.24-.07c-.44-.12-.51-.17-.54-.27l-.06-.54h-.38c-.02-.11-.05-.2-.08-.32-.02-.14-.06-.4-.33-.83-.02-.1-.03-.2-.05-.3v-.12c.02-.33.03-.76-.14-1.18.12-.32.08-.63.06-.84-.01-.06-.03-.16-.07-.11.21-.31.16-.64.1-.98.06-.18.06-.37.06-.6.17-.34.25-.76.29-1.09l.32-.22c.31-.21.63-.42.9-.7.17-.14.36-.31.62-.38.16-.08.57-.28.69-.49.43-.39.89-.76,1.34-1.14.7-.57,1.43-1.17,2.12-1.88.1-.12.18-.25.25-.4.48-.17.74-.53.91-.77.05-.06.08-.11.03-.08.5-.35.99-.85,1.32-1.34.1-.15.22-.27.33-.39.09-.09.17-.17.16-.17.26-.22.5-.52.65-.81.18-.35.4-.61.61-.76.14-.06.53-.22.68-.84.05-.05.1-.11.09-.11,0,0,0,0,0,0,.23-.19.55-.45.61-.81.08-.3.28-.55.52-.84.19-.24.37-.47.48-.67.08-.12.17-.24.26-.36.34-.46.73-.97.81-1.61l.26-.38c.14-.17.35-.45.38-.81t0,0c.1-.1.25-.26.34-.49.12-.19.16-.39.19-.51l.27-1.51c.16-.89-.21-1.45-.47-1.69-.54-.66-1.29-.84-1.95-1l-.48-.12c-.62-.12-1.16.1-1.72.37-.25.13-.55.27-.86.4l-.37.18c-.39.1-.61.36-.71.52-.43.14-.71.4-.93.61-.11.1-.2.19-.29.24l-.27.24c-.2.31-.51.55-.84.81-.33.26-.65.52-.92.85-.21.24-.45.47-.68.71-.35.34-.71.7-1.02,1.12-.4.23-.58.6-.7.84-.03.06-.07.15-.07.15-.62.6-1.11,1.25-1.51,2.02-.04.08-.11.22-.24.32-.36.31-.52.68-.65.98-.04.1-.08.2-.14.3-.07.12-.16.22-.24.33-.16.2-.34.43-.46.71-.07.12-.1.24-.12.34-.11.07-.23.16-.34.31-.05.05-.1.14-.16.21-.45.27-.68.62-.7.91-.32.29-.55.63-.76.96-.1.15-.2.31-.39.58-.08.15-.13.25-.22.35-.36.19-.56.52-.75.86-.07.11-.13.23-.24.47-.19.03-.41.14-.53.39l-.14.17c-.38.61-.92,1.15-1.48,1.72l-.66.71c-.15.21-.31.36-.49.53-.11.1-.22.2-.31.3l-5.77,5.95-.22.16c-.34.16-.81.37-1.02.71-.63.6-1.22,1.01-1.86,1.31-.24.11-.44.28-.62.43-.17.13-.34.26-.51.4-.28.23-.56.45-.85.61-.01,0-.03,0-.04.01-.04-.15-.1-.29-.16-.43-.14-.33-.16-.43-.11-.57l.1-.25-.08-.26c-.05-.15-.06-.39-.06-.44.13-.34.09-.64.04-.82.23-.4.24-.75.25-1.01,0-.08,0-.16.02-.24.03-.18.05-.35.08-.53.04-.29.07-.58.19-.98.04-.19.07-.38.11-.55.08-.4.16-.77.16-1.03.09-.5.22-.98.45-1.62.26-.32.26-.62.2-.84l.18-.28c.07-.12.19-.33.18-.6.09-.43.24-.87.41-1.33.15-.41.29-.82.4-1.25.17-.72.41-1.41.64-2.09.11-.32.22-.64.31-.92l.41-1.08c.1-.27.17-.55.24-.83.11-.46.2-.85.42-1.14.34-.35.43-.76.49-1.03.02-.09.05-.23.07-.26l.25-.15-.12-.38s.09-.14.14-.21c.14-.19.32-.43.37-.75v-.09c.18-.34.32-.68.46-1.03.1-.23.19-.46.31-.71,0,0,0,0,.01,0,.37-.18.63-.52.7-.91.03-.15.11-.34.2-.54.06-.14.12-.28.21-.55.22-1.22-.54-1.52-.78-1.58l-.69-.02c-.18,0-.55,0-.89.11-.44.14-1.26.4-1.45,1.42-.27.29-.45.6-.61.88-.1.18-.2.36-.36.56-.23.3-.34.62-.44.89-.1.29-.17.46-.3.57l-.24.32-.06.4.03.14s-.08.14-.11.2c-.31.33-.67.8-.65,1.32-.07.38-.19.67-.38.93-.17.24-.23.49-.31.85l-.37.43.19.32s-.04.04-.06.06c-.23.2-.28.43-.29.62-.39.43-.61.43-1.02.25-.13-.05-.24-.11-.36-.18-.24-.14-.53-.3-.84-.35-.25-.06-.46-.2-.7-.37-.15-.1-.29-.2-.51-.31-.1-.04-.19-.09-.27-.14-.17-.1-.37-.21-.61-.29l.02-.03c-.13-.21-.32-.52-.89-.74-.12-.02-.22-.11-.39-.26l-.46-.34c-.09-.05-.22-.13-.24-.14l-.1-.64-.68-.07c-.07-.06-.15-.16-.27-.33-.12-.18-.27-.39-.48-.58-.19-.5-.48-.89-.75-1.23-.16-.22-.33-.44-.44-.63-.2-.46-.58-.7-.83-.87-.07-.04-.13-.08-.22-.15-.52-.39-.98-.35-1.26-.28-.72.17-1.44.52-1.95.91-.55.26-.65.67-.64.94-.3.21-.45.49-.46.86-.42.38-.6.85-.74,1.21-.04.1-.08.21-.09.24-.43.75-.8,1.52-1.06,2.22-.16.34-.33.66-.5.98-.34.64-.69,1.29-.88,1.96l-.32.68c-.07.13-.15.26-.23.39-.27.44-.57.94-.65,1.45l-.1.2c-.51.88-.88,1.77-1.2,2.51-.08.14-.13.29-.18.43-.01.05-.03.1-.05.15-.33.27-.43.55-.42.83-.08.1-.17.21-.17.29l-.78,1.87c-.28.78-.54,1.51-.9,2.18-.22.32-.3.64-.36.87-.04.16-.07.26-.14.36-.21.31-.32.63-.42.91-.13.36-.21.58-.41.74l-.23.32-.04.27c-.03.15-.11.34-.21.52-.02-.04-.05-.08-.08-.12,0-.05.02-.11.03-.17l.04-.21c.03-.19.04-.37.04-.55,0-.24,0-.29.06-.38l.12-.29c.03-.15.06-.52-.05-.72l.07-.22c.06-.31.01-.59-.02-.81-.01-.08-.03-.16.01-.36.06-.19.13-.45.11-.74-.02-.69-.03-1.34.08-1.97l.06-.29c.07-.34.16-.72.09-1.14-.04-.54-.07-1,.09-1.6.07-.4.08-.77.09-1.15,0-.3,0-.61.06-.93l.08-.42-.03-.03c.07-.17.13-.41.08-.78-.03-.1,0-.29.05-.57.02-.11.02-.23.02-.5l.24-.31-.16-.38c0-.06.03-.25.05-.38.04-.21.08-.43.08-.64,0-.15-.01-.3-.03-.44-.03-.27-.04-.38.04-.55l.12-.27-.09-.29c-.05-.15,0-.41.05-.68.05-.28.11-.6.09-.97-.01-.15.02-.35.06-.58.05-.31.11-.65.08-.86.03-.3.04-.6.05-.9.02-.55.04-1.07.18-1.63.14-.79-.06-1.53-.6-2.2-.45-.55-1.01-.34-1.11-.29-.06.02-.14.03-.27.03-.24,0-.57.02-.81.17-.42.13-.66.34-.93.9-.13.53-.16,1.02-.19,1.49-.04.56-.07,1.08-.26,1.59l-.08.38.06.19c.02.07,0,.26-.03.41-.05.32-.12.76.07,1.21-.1.2-.13.4-.1.62-.01.09-.02.17-.03.26-.02.2-.04.38-.1.53-.09.23-.05.38-.04.56-.12.08-.3.08-.37.2-.14.24-.16.51-.1.74-.11.15-.2.3-.29.45-.34.33-.63.69-.92,1.04-.16.2-.31.39-.54.66-.14.21-.35.4-.57.6-.14.12-.27.25-.4.38-.29.29-.52.62-.76.94-.33.46-.62.86-1.15,1.17-.18.15-.27.34-.35.52h0s-.06.07-.06.07c-.4.19-.64.49-.85.73l-.23.28c-.05.08-.16.18-.28.29-.16.16-.33.32-.53.57-.15.22-.37.46-.66.71l-.3.25c-.5.42-1.02.85-1.35,1.33l-.57.47c-.25.2-.48.38-.61.53-.16.13-.25.29-.33.45-.47.14-.66.53-.77.79-.25.18-.48.41-.72.64-.15.14-.3.29-.38.37-.29.19-.64.42-.91.77-.38.15-.66.41-.89.62l-.34.39c-.17.05-.34.11-.51.17-.59.2-.86.28-1.1.12l-.26-.15h-.21l-.08-.19-.23-.14c-.31-.38-.57-.77-.82-1.15.02-.33-.09-.66-.33-.94-.06-.07-.11-.29-.14-.45-.05-.24-.11-.5-.2-.66-.01-.05,0-.24-.06-.13.11-.27.11-.55-.02-.83.07-.25.06-.55-.19-.91.13-.26.18-.58-.03-.95,0-.06,0-.1-.01-.15.14-.52.06-.98,0-1.35-.04-.27-.08-.49-.03-.67l.16-.32-.15-.27c.05-.22.12-.52.04-.86-.09-.35-.01-.78.08-1.27.03-.15.03-.3.03-.45,0-.07,0-.14,0-.2.03-.19,0-.35-.03-.52l.1-.11v-.28c0-.19.03-.4.05-.6.03-.26.05-.52.05-.69.03-.33.06-.66.09-.99.06-.67.11-1.35.25-2.21,0-.13.03-.28.05-.42.04-.22.08-.48.07-.81-.05-.44-.04-.91-.04-1.36,0-.27.01-.53,0-.81-.03-.65-.13-1.48-.58-2.14-.17-.3-.42-.46-.57-.47-.11-.28-.24-.53-.37-.79-.11-.21-.22-.42-.37-.81-.07-.24-.24-.78-.84-.97-.14-.16-.43-.49-.83-.49,0,0-.01,0-.02,0l-.27-.05c-.35-.07-.78-.17-1.19-.1-.1,0-.2,0-.3-.02-.27-.02-.57-.04-.92.03-.15.02-.33.02-.53,0-.14,0-.26-.01-.36-.01-.63-.1-.93.22-.97.31-.04.04-.14.07-.31.11-.13.03-.27.07-.51.17l-.27.14c-.32.16-.65.33-1.05.72-.51.1-.98.38-1.38.81-.17.19-.4.36-.64.54-.29.21-.6.44-.85.72-.31.31-.64.59-.97.87-.5.42-1.02.86-1.45,1.38l-.29.29c-.55.56-1.11,1.14-1.52,1.86l-.06.03c-.54.28-.87.68-1.03,1.28-.23.15-.36.37-.47.55-.25.24-.42.51-.57.74-.15.23-.28.43-.31.47-.35.16-.5.44-.6.63l-.12.29c-.01.08-.12.21-.16.27-.25.21-.55.46-.62.88-.02.11-.17.3-.3.47-.21.27-.49.63-.57,1.08-.42.37-.74.81-.93,1.31-.14.47-.39.84-.72,1.34-.09.2-.16.4-.22.61-.09.3-.16.48-.27.58l-.29.25.02.25s0,0-.01.02c-.23.37-.27.68-.22.93-.23.37-.34.76-.44,1.1l-.12.42s-.31,1.79-.11,2.38c.1.3.35,1.09,1.33,1.09.16,0,.31.04.58.18.95.34,1.83-.11,2.55-.49.39-.21.71-.5,1-.76l.16-.15c.51-.35.88-.69,1.28-1.16.25-.33.57-.65.95-.97l.14-.16c.25-.32.5-.64.83-.98l.28-.3c.48-.51.98-1.04,1.29-1.64.12-.21.34-.4.59-.59.35-.28.76-.63,1.01-1.16.24-.25.44-.5.64-.76.19-.24.37-.49.7-.8.36-.29.44-.59.44-.76,0,0,.01-.01.03-.02.04-.03.07-.07.11-.11.41-.29.85-.61,1.19-1.21.43-.24.69-.6.88-.88.1-.14.2-.28.4-.48.23-.3.47-.57.71-.84.15-.17.3-.33.43-.49.23-.26.49-.5.75-.73.45-.4.91-.82,1.28-1.4.09-.16.19-.24.36-.38l.23-.19c.38-.33.78-.67,1.12-1.09.02.02.04.04.06.06.18.19.39.27.61.29,0,.09,0,.18,0,.26,0,.16.01.29,0,.39-.06.35-.13.71-.12,1.13,0,.16.01.33.02.5.02.24.04.48-.03.68-.12.46-.13.87-.14,1.23-.01.36-.02.66-.12.94l-.31.34.26.53c.06.11.03.35,0,.57-.02.15-.03.31-.02.33l-.06.3c-.09.4-.18.85-.11,1.32.07.44.02.91-.03,1.4-.04.34-.07.68-.06,1.11.01.09-.01.24-.04.41l-.03.14.03.14c.1.47.2,1.09.16,1.76.01.34.05.67.08,1.01.03.31.06.62.08,1.06-.01.15-.04.43.1.71.21.49.24.76.24.89.03.65.24,1.16.43,1.61l.12.29c.24.6.62,1.24,1,1.73.08.18.24.56.63.7.16.07.28.12.35.17v.07s.61.61.61.61h.35c.06,0,.16.03.26.06.24.07.57.17.99.11.11.02.22.03.32.03.3,0,.58-.07.82-.13.11-.03.21-.05.26-.06,1.16-.1,2.07-.47,2.75-1.11.09-.08.24-.22.21-.21.76-.22,1.27-.69,1.72-1.11.12-.11.24-.22.33-.3.57-.41,1.13-.97,1.58-1.51.17-.09.48-.27.59-.55.12-.17.27-.3.53-.42.42-.26.86-.58.93-1.05.03-.03.14-.11.21-.17.15-.11.3-.22.53-.45.15-.11.39-.29.49-.59.1-.06.2-.15.3-.29.2-.33.51-.61.84-.91.22-.2.45-.4.66-.64.21-.24.43-.45.65-.67.55-.54,1.11-1.1,1.53-1.81l.07-.05c.13-.07.23-.16.33-.25l.22-.16c.16-.16.3-.33.45-.5.16-.19.31-.38.53-.57.05-.05.09-.11.14-.17,0,.02,0,.03,0,.05.05.33.04.75,0,1.05-.17.62-.18,1.2-.19,1.76,0,.25-.01.5-.02.68,0,.04-.04.11-.07.18-.07.19-.18.45-.16.82.08.81.06,1.52-.05,2.17l-.09.53c-.01.25,0,.5.01.75.02.32.03.62,0,.8-.21.7-.23,1.34-.06,2.03.07.22.09.46.09.47-.3.51-.24,1.01-.21,1.32l.02.16c-.06.13-.16.36-.11.67.02.14.07.28.11.42.01.04.03.08.04.12v.07c-.12.61-.09,1.2.06,1.84l.05.25c.03.14.07.3.07.48-.05,1.02.57,1.75,1.59,1.9.11.03.23.05.35.05.13,0,.27-.02.41-.03h.23c.7.1,1.4-.23,1.86-.91.07-.1.14-.19.23-.29.28-.34.61-.76.71-1.31l.16-.23c.09-.2.2-.41.31-.62.16-.31.33-.63.49-1.01.07-.18.11-.35.14-.52.02-.08.07-.24-.01-.15.37-.37.52-.76.65-1.07.06-.16.12-.3.19-.41.28-.42.4-.89.34-1.22,0-.18.07-.35.27-.58.17-.26.3-.52.41-.74l.31-.83c.19-.56.37-1.1.66-1.61.1-.2.19-.42.26-.64.09-.24.17-.47.29-.65.36-.54.54-1.08.68-1.51l.19-.49c.16-.44.32-.86.56-1.26.15-.16.3-.4.33-.62.18-.64.48-1.25.79-1.9.29-.59.58-1.19.75-1.71.05-.1.1-.21.14-.34.03-.09.07-.21.11-.25.16-.19.23-.38.32-.63.42-.35.41-.78.35-.9.4-.65.85-1.42,1.02-2.24.29-.3.45-.67.57-.98.09-.17.16-.35.24-.52.11-.26.22-.52.34-.7.2-.24.32-.47.41-.69,0,0,0,.02.02.03.15.25.3.49.5.73.12.14.25.24.37.33.06.04.14.11.15.13.06.18.2.64.65.78.02.03.06.11.07.11h0c.1.32.3.55.63.73.12.06.25.16.39.28.22.18.49.4.8.51l.15.16c.37.35.77.61,1.16.78.11.05.2.13.3.19.24.17.55.39.98.48.84.76,1.85,1.06,2.88,1.27.16,0,.31.04.57.17.32.11.62.1.82.11.03,0,.05-.01.08,0-.01.04-.04.12-.05.15-.05.12-.08.25-.11.37-.06.23-.09.33-.2.44l-.16.17-.06.35c-.3.93-.53,1.85-.75,2.72l-.06.23c-.22.7-.38,1.4-.55,2.13-.07.33-.15.67-.27,1.11-.06.13-.17.35-.16.65l-.04.29c-.17.39-.25.86-.24,1.32,0,.04-.04.15-.06.23-.08.25-.2.6-.12.88.01.2-.02.42-.09.77-.05.27-.11.65.02,1.02-.12.26-.14.57-.02.91.04.09.04.28.05.45,0,.2.01.4.07.75.08.57.2,1.4.98,1.82.39.64,1.04.77,1.55.77.24,0,.44-.03.58-.05l2.1-.5.07.02.66-.34.02-.14c.37-.26.74-.5,1.11-.72.27-.17.53-.34.79-.51.22-.07.41-.2.54-.32.71-.72,1.54-1.28,2.28-1.75l.42-.36c.15-.13.75-.75,2.3-2.36,1.4-1.45,3.52-3.65,3.78-3.86.36-.25.57-.56.74-.81.08-.12.17-.25.22-.31l.19-.16c.05-.04.09-.11.14-.15-.32,1.37-.6,2.71-.56,3.02-.04,1.05.03,2.22.21,3.39.01.2.09.36.16.48-.06.47.22.82.34.96.17.21.3.52.43.83.14.46.38.67.61.76.05.04.11.11.18.17.19.2.46.48.87.61.38.56.92.53,1.16.56,1.09.15,2.18-.06,3.23-.27l.39-.09c.45,0,.91-.17,1.21-.43.35-.25.71-.51,1.13-.64.51-.21.94-.5,1.36-.78.22-.15.43-.29.61-.39.2-.09.5-.23.65-.47.43-.49.75-.72,1.24-.9.19-.08.5-.22.7-.51.49-.64,1.1-1.16,1.78-1.69.52-.31.8-.57.96-.9.11-.24.29-.36.62-.59l.23-.16c.09-.08.19-.15.29-.21.26-.17.58-.39.76-.71.45-.61.94-1.14,1.43-1.56.24-.17.81-.74,2.07-2.01.7-.7,1.66-1.67,1.84-1.81.29-.2.48-.47.64-.7.12-.16.22-.31.33-.39.18-.08.38-.26.48-.61.31-.19.51-.48.68-.73l.15-.15c.13-.12.44-.39.51-.81.1-.05.18-.11.26-.18l.15-.17c.16-.26.38-.49.63-.74.29-.3.58-.6.79-.94.12-.16.24-.31.36-.46.14-.16.27-.33.4-.5-.02.08-.04.16-.06.24-.05.25-.11.5-.2.73-.28.78-.6,1.67-.67,2.57l-.07.21c-.22.47-.43.91-.52,1.46-.05.3-.14.6-.23.89-.08.27-.15.54-.21.81-.24.32-.23.69-.19.93-.22.37-.27.73-.3,1.01l-.03.19c-.05.25-.07.39-.11.47-.21.39-.27.76-.31,1.06-.04.28-.07.45-.17.61l-.14.2v.24c.02.62-.1,1.32-.32,1.9-.3.66-.32,1.29-.32,1.7-.02.1-.06.2-.1.3-.12.31-.28.74-.18,1.21-.17.65-.21,1.26-.25,1.84-.02.38-.04.74-.11,1.11l-.09.51c-.06.33.02.62.08.83.02.07.05.16.05.28.11.63.71.79,1.05.88.19.06.38.08.55.08.31,0,.58-.07.8-.13.1-.03.2-.05.3-.07.8-.11,1.37-.6,1.62-1.35.06-.15.13-.29.2-.43.09-.18.19-.37.28-.64.13-.37.26-.75.56-1.07.22-.25.57-.67.56-1.21.07-.13.17-.32.18-.57.08-.09.18-.21.32-.47.11-.19.29-.48.25-.82,0-.1.06-.2.28-.39.38-.33.49-.66.49-.91h.01c.05-.08.12-.19.16-.33.16-.33.33-.65.5-.97.19-.35.38-.7.5-.97.16-.24.22-.47.26-.68.38-.36.57-.76.74-1.11l.33-.58c.33-.51.63-1,.91-1.56l.17-.38c.26-.6.49-1.13.87-1.56.13-.09.24-.23.32-.4l.22-.6-.07-.08c.05-.07.12-.14.17-.19l.63-.48.02-.39c0-.14.11-.28.29-.52.1-.12.19-.25.28-.39.06.04.11.07.16.09.08.04.19.11.2.11l.06.85.55-.11c.15.38.52.67.95.74.21.1.38.24.51.39l.22.18c.16.09.33.13.58.19l.14.33h.5c.28,0,.55.12.91.29l1.15.34c.34.06.71.08,1.07.09.42.01.83.03,1.1.15l.3.06c.18,0,.46,0,.72-.15.04,0,.1,0,.33,0,.54.04,1.04-.02,1.52-.07.44-.05.85-.11,1.24-.07h.43s.19-.12.19-.12c.11-.07.17-.07.28-.04l.19.03c.27,0,.5-.07.83-.16.42.07.84-.03,1.2-.12.13-.03.26-.07.38-.09l.23-.05c.5-.12.93-.23,1.36-.23.19,0,.48,0,.74-.17.34-.15.71-.26,1.07-.37.45-.14.91-.27,1.31-.46,1.3-.56,1.68-.95,2.46-1.99.3-.3.32-.64.34-.95,0-.37-.2-.69-.52-.86M527.52,195.29l.56.4c-.04.13-.11.2-.11.2l-.45-.6h0M529.57,193.5l.1-.31c.05-.14.2-.3.37-.48.14-.15.29-.3.41-.47.15-.13.37-.36.46-.76.38-.33.76-.73.95-1.17.14-.06.34-.16.49-.39l.16-.15.03-.09c.16-.14.43-.37.55-.74.21-.2.4-.42.6-.64.45-.5.87-.96,1.26-1.18.44-.14.72-.47.86-.65.07-.06.13-.12.23-.24.05,0,.1,0,.15,0-.04.09-.08.19-.12.28-.11.25-.22.5-.22.59-.12.18-.27.4-.3.61-.11.28-.21.57-.38.71-.14.11-.39.32-.4.52-.3.78-.81,1.53-1.66,2.48-.15.19-.23.37-.3.52-.03.07-.08.16-.07.16l-.28.15c-.19.17-.32.46-.34.75-.4.3-.71.68-1,1.03l-.1.13c-.46.45-.97.96-1.3,1.6-.1.06-.23.12-.44.32-.22.26-.44.5-.66.72-.34.36-.67.7-.96,1.09-.32.11-.54.31-.69.47.05-.15.1-.3.14-.44.1-.35.19-.65.36-.85.41-.45.64-.94.66-1.37l.04.03.37-.51.09-.21c.14-.32.25-.57.47-.79l.5-.68v-.03ZM444.18,195.71l.03.02h-.03s0-.02,0-.02M454.03,189.12l-.04.03c-.77.46-1.49,1.16-2.02,1.96-.08.09-.3.36-.5.45-.62.28-.93.75-1.28,1.27-.26.38-.66.83-1.06,1.18-.2.2-.38.41-.57.62-.29.33-.56.65-.8.82-.3.14-.44.38-.5.53l-.14.32c-.48.31-.8.72-1.08,1.09-.19.26-.38.5-.52.61-.31.19-.69.54-.85,1-.37.23-.6.53-.79.78-.11.15-.21.28-.32.37-.16.08-.27.21-.35.29l-.21.27c-.14.32-.42.61-.74.94-.29.3-.61.64-.86,1.04-.13.19-.32.35-.59.58-.11.08-.3.2-.45.42l-.12.29c-.01.06-.2.21-.33.31l-.15.13c.01-.08.03-.17.04-.27.17-.27.3-.58.43-.89.17-.41.34-.8.61-1.06l.18-.17.04-.25c.03-.2.17-.4.38-.72.32-.62.68-1.14,1.21-1.72.1-.15.16-.28.2-.4.01-.04.03-.08.02-.08,0,0,0,0-.02.01l.25-.32c.24-.3.5-.62.76-1.02.13-.25.32-.5.5-.76.11-.16.23-.31.38-.52.08-.11.19-.26.26-.5l.04-.06c.65-.31.92-.86,1.12-1.28l.07-.15c.16-.26.35-.49.58-.69.42-.27.77-.65.99-1.04.14-.18.35-.36.58-.56.28-.24.57-.49.83-.84.08-.12.26-.26.42-.4l.14-.12c.17-.11.32-.25.46-.39.12-.11.22-.22.31-.25l.25-.09.13-.23c.13-.23.33-.35.66-.55.29-.17.62-.36.89-.66.23-.22.56-.36.94-.52.28-.11.55-.23.86-.4.07-.05.21-.09.36-.12.1-.03.22-.06.34-.1.24.21.49.35.68.44,0,.05.01.09.02.13-.06.04-.13.09-.21.15l-.19.08c-.38.16-.93.4-1.25,1.01M453.17,185.26s0,0,0,0v-.02s0,.02,0,.02Z"/>
  <path class="st0" d="M440.47,232.08h0c-.32-.31-.76-.56-1.3-.73-.53-.17-1.18-.25-1.92-.25h-3.71l-2,11.33h2.3l.69-3.94h1.41c.72,0,1.38-.09,1.96-.26.6-.18,1.12-.44,1.57-.77.45-.33.82-.74,1.1-1.2.28-.46.47-.97.57-1.51.09-.54.09-1.04-.01-1.49-.11-.46-.33-.85-.66-1.18M438.84,234.75c-.05.28-.14.53-.28.76h0c-.12.22-.3.41-.5.57-.21.16-.45.29-.76.38-.29.09-.64.14-1.03.14h-1.41l.64-3.61h1.41c.78,0,1.33.16,1.63.48.3.31.39.74.3,1.29"/>
  <polygon class="st0" points="451.69 235.81 446.5 235.81 447.33 231.1 445.02 231.1 443.03 242.42 445.33 242.42 446.18 237.61 451.37 237.61 450.52 242.42 452.82 242.42 454.82 231.1 452.52 231.1 451.69 235.81"/>
  <path class="st0" d="M467.22,232.61c-.43-.51-.98-.92-1.65-1.2-1.33-.57-3.21-.57-4.77,0-.77.28-1.47.69-2.07,1.2-.6.51-1.12,1.12-1.53,1.84-.41.7-.69,1.48-.83,2.31-.15.83-.14,1.62.02,2.31.16.71.46,1.33.88,1.84.42.51.97.91,1.65,1.2.67.28,1.44.42,2.3.42s1.69-.14,2.46-.42c.77-.29,1.47-.69,2.07-1.2.61-.51,1.12-1.13,1.53-1.84.41-.7.69-1.48.83-2.31.15-.83.14-1.61-.01-2.31-.16-.71-.45-1.33-.88-1.84M465.78,236.76c-.1.59-.29,1.13-.54,1.6-.25.47-.55.85-.91,1.18-.36.31-.77.56-1.23.73-.48.17-.98.26-1.52.26s-1.03-.09-1.43-.26c-.39-.17-.72-.42-.97-.73-.25-.32-.42-.71-.5-1.17-.08-.47-.07-1.01.03-1.61.1-.59.28-1.13.53-1.6.25-.46.56-.86.92-1.18.36-.32.78-.57,1.23-.74.46-.17.98-.26,1.52-.26s1.02.09,1.43.26c.4.17.73.42.97.74.24.31.41.71.5,1.17.09.48.08,1.02-.03,1.61"/>
  <polygon class="st0" points="471.33 233.06 474.9 233.06 473.24 242.42 475.53 242.42 477.18 233.06 480.74 233.06 481.08 231.1 471.68 231.1 471.33 233.06"/>
  <path class="st0" d="M492.65,232.61c-.43-.51-.98-.91-1.65-1.2-1.33-.56-3.21-.57-4.76,0-.77.29-1.47.69-2.07,1.2-.6.51-1.11,1.12-1.53,1.84-.41.71-.69,1.48-.84,2.32-.15.83-.14,1.61.02,2.31.16.71.46,1.33.88,1.83.42.51.97.91,1.65,1.2.66.28,1.44.42,2.3.42s1.7-.14,2.46-.42c.77-.29,1.47-.69,2.07-1.2.61-.52,1.12-1.13,1.53-1.84.41-.7.69-1.48.83-2.31.15-.83.14-1.61-.02-2.32-.16-.71-.45-1.33-.88-1.84M488.33,232.99c.55,0,1.01.09,1.43.26.4.17.73.42.97.73.25.31.41.71.5,1.17.08.47.08,1-.03,1.6-.1.6-.29,1.14-.54,1.6-.25.47-.55.85-.91,1.17-.36.32-.77.56-1.22.73-.95.35-2.12.35-2.95,0-.39-.17-.72-.41-.97-.73-.25-.32-.42-.71-.5-1.17-.09-.46-.08-1,.03-1.6.1-.6.29-1.14.54-1.61.24-.46.55-.85.91-1.17.36-.32.78-.57,1.24-.73.47-.17.97-.26,1.52-.26"/>
  <path class="st0" d="M499.68,234c.36-.32.8-.57,1.28-.74.49-.18,1.02-.27,1.59-.27.39,0,.72.03.99.08.27.06.51.12.7.2.2.08.36.16.49.25.15.1.28.19.39.26.19.13.39.17.62.12.2-.05.39-.17.54-.35l.8-.95-.18-.19c-.21-.22-.45-.41-.72-.6-.26-.17-.55-.33-.88-.45-.34-.13-.69-.23-1.07-.29-.4-.07-.83-.1-1.28-.1-.91,0-1.78.14-2.57.42-.79.28-1.51.67-2.13,1.18-.62.51-1.14,1.13-1.55,1.84-.4.7-.68,1.49-.83,2.34-.15.85-.14,1.63.02,2.33.17.71.49,1.33.94,1.84.45.51,1.04.91,1.76,1.19.71.28,1.55.42,2.49.42.78,0,1.53-.1,2.23-.3.71-.2,1.4-.5,2.06-.91l.16-.09.82-4.66h-4.15l-.22,1.22c-.03.18.01.34.12.46.07.08.2.17.44.17h1.33l-.3,1.72c-.13.05-.25.1-.38.15-.18.07-.37.13-.56.17-.19.05-.39.08-.6.11-.21.03-.43.04-.66.04-.61,0-1.12-.09-1.58-.26-.44-.17-.8-.42-1.07-.75-.27-.32-.46-.73-.55-1.2-.1-.47-.1-1.03.01-1.64.1-.58.28-1.11.54-1.58.25-.46.56-.85.94-1.18"/>
  <path class="st0" d="M515.44,237.58c.24-.08.46-.18.68-.29.4-.21.76-.46,1.05-.74.31-.29.57-.62.76-.99.2-.36.33-.75.4-1.16.09-.49.07-.95-.03-1.37-.11-.41-.34-.77-.67-1.07-.32-.28-.76-.5-1.29-.65-.52-.15-1.17-.22-1.91-.22h-3.54l-2,11.33h2.3l.77-4.38h.76c.21,0,.29.03.31.05.05.03.1.08.14.17l2.1,3.68c.1.22.32.49.83.49h2.13l-2.7-4.67c-.03-.06-.07-.12-.11-.18M515.79,235.22c-.12.2-.29.38-.49.53-.21.15-.47.27-.77.36-.31.09-.66.13-1.05.13h-1.19l.58-3.26h1.24c.78,0,1.33.14,1.64.41.29.25.4.62.31,1.13-.05.26-.14.49-.26.7"/>
  <path class="st0" d="M528.47,231.1h-2.1l-6.72,11.32h1.76c.21,0,.41-.06.59-.18.16-.11.3-.25.37-.39l1.31-2.28h4.49l.51,2.27c.03.16.11.3.24.42.13.11.31.16.52.16h1.76l-2.68-11.13-.05-.2ZM526.83,234.11s.05-.1.08-.15c.01.05.02.09.03.14l.83,3.7h-3.07l2.12-3.69Z"/>
  <path class="st0" d="M543.14,232.08h0c-.32-.31-.76-.56-1.3-.73-.53-.17-1.18-.25-1.92-.25h-3.71l-2,11.33h2.3l.7-3.94h1.41c.73,0,1.37-.09,1.96-.26.6-.18,1.12-.44,1.57-.77.45-.33.82-.74,1.1-1.2.28-.46.47-.97.56-1.51.09-.54.09-1.04-.01-1.49-.11-.46-.33-.85-.66-1.18M541.52,234.75c-.05.28-.14.53-.28.76h0c-.12.22-.29.41-.5.57-.21.16-.46.29-.76.38-.29.09-.64.14-1.03.14h-1.41l.64-3.61h1.41c.78,0,1.33.16,1.63.48.3.31.4.74.3,1.29"/>
  <polygon class="st0" points="554.45 235.81 549.27 235.81 550.1 231.1 547.79 231.1 545.8 242.42 548.1 242.42 548.95 237.61 554.14 237.61 553.29 242.42 555.59 242.42 557.59 231.1 555.29 231.1 554.45 235.81"/>
  <path class="st0" d="M569.62,231.1c-.21,0-.41.06-.59.19-.13.1-.25.21-.33.33l-3.13,4.01c-.09.13-.18.25-.25.36-.04-.12-.08-.24-.13-.38l-1.71-3.98c-.05-.15-.13-.28-.25-.37-.13-.11-.3-.16-.51-.16h-2.04l3.15,6.87-.78,4.45h2.29l.78-4.45,5.57-6.87h-2.05Z"/>
  <path class="st0" d="M324.56,206.77c-.17-.1-.46-.25-.84-.25-.88,0-1.4.34-1.68.63-.36.37-.54.86-.5,1.63-.11.09-.21.19-.3.29-.06.06-.15.15-.25.17-.57.06-1.15.16-1.73.26-.82.14-1.6.28-2.39.28-.86.05-1.73,0-2.54-.04-1.04-.05-2.1-.11-3.24.02l-.19-.07c-.53-.18-.92-.18-1.36-.18h-3.66c-.18,0-.35-.03-.53-.05-.42-.06-.94-.12-1.55,0-.76-.29-1.54-.25-2.26-.21-.36.02-.72.04-1.16,0-.22,0-.43.02-.63.04-.15.01-.36.05-.39.02-.98-.38-2.01-.42-3.01-.45-.57-.02-1.13-.04-1.53-.1-1.07-.38-2.14-.44-3.15-.18l-.18-.09c-1.12-.4-2.48-.76-4.09-.48-.54-.34-1.17-.36-1.67-.38-.24,0-.53-.02-.66-.07l-.24-.07c-.31-.04-.62-.08-.92-.11-.57-.05-1.12-.11-1.71-.3-.4-.06-.79-.07-1.17-.05-.51,0-.88.01-1.23-.15-.69-.31-1.41-.3-2.02-.26-.39,0-.78.02-1.02-.05-.67-.21-1.35-.32-2.02-.43-.63-.1-1.22-.19-1.8-.4l-.33-.1c-.45-.15-1.02-.33-1.61-.19-.5.06-1.06-.06-1.66-.2-.33-.08-.67-.15-.96-.2-.3-.05-.62-.07-.95-.09-.49-.03-.96-.05-1.37-.27-.65-.25-1.3-.37-1.92-.48-.75-.14-1.41-.26-1.94-.59-.34-.32-.79-.37-.98-.34-.59.12-1.23-.15-1.84-.37l-.41-.15c-.11-.03-.21-.07-.31-.1-.39-.14-.91-.33-1.79-.16,0,0-.07-.03-.13-.05-.46-.93-1.28-.93-1.72-.93h-.58c-.87-.45-1.81-.77-2.73-1.09-.66-.23-1.33-.46-1.91-.71-.5-.24-1.04-.39-1.57-.53-.67-.18-1.24-.34-1.65-.69l-.32-.27-.41.05c-.39.03-.61-.11-1.09-.45-.23-.16-.46-.32-.71-.45l-.29-.36-.3-.08c-.83-.22-1.61-.61-2.42-1.04-.58-.3-1.16-.6-1.67-.79-.4-.19-.79-.37-1.19-.54-.74-.32-1.43-.63-1.99-.96-.59-.48-1.22-.86-1.96-1.14.53-.14.99-.23,1.28-.15.79.43,1.4-.05,1.83-.41.54.05,1.08-.07,1.54-.18.33-.08.67-.16,1.02-.1.32,0,.82,0,1.27-.54.04-.03.1-.03.29-.01h.3c.57.01,1.03-.1,1.51-.22l.4-.11c.66-.28,1.37-.43,2.12-.6.87-.19,1.78-.39,2.68-.8.99.09,1.91-.25,3.14-.97,1.42,0,2.75-.52,4.04-1.02l.68-.26c.56-.22,1.14-.39,1.71-.56,1.17-.35,2.39-.71,3.48-1.42,1.2-.09,2.18-.67,2.99-1.16.25-.11.51-.17.77-.23.65-.15,1.45-.34,2.16-1.04.71-.03,1.32-.33,1.82-.59l.35-.17c.37-.17.75-.36,1.12-.56.79-.41,1.59-.83,2.16-.98.2,0,.62,0,.86-.24,2.09-1.09,4.05-2.17,6.07-3.3.57-.38,1-.63,1.37-.82.71-.17,1.25-.5,1.69-.76.52-.27.99-.62,1.46-.98.47-.36.92-.7,1.3-.86.11-.04.23-.06.34-.08.32-.07.72-.15,1.16-.43.66-.41,1.29-.9,1.92-1.38.83-.64,1.61-1.25,2.46-1.67,1-.46,1.85-1.19,2.76-1.96.38-.39.96-.76,1.53-1.11.29-.18.57-.36.89-.59,1.05-.89,2.11-1.69,3.34-2.51.75-.49,1.36-1.06,1.94-1.61.42-.39.83-.78,1.29-1.12l1.14-.85c.6-.51,1.12-1.07,1.64-1.63.72-.77,1.4-1.5,2.31-2.09l.21-.14.11-.23c.1-.19.36-.41.63-.64.47-.4,1.05-.89,1.29-1.68.03-.03.15-.12.46-.22.45-.21.75-.46.91-.73,1.04-1.01,1.91-2.14,2.76-3.23.69-.88,1.34-1.72,1.98-2.4.18-.15.5-.43.65-.92.13-.22.34-.47.55-.72.36-.43.77-.91,1.01-1.52.63-.6,1.01-1.33,1.35-1.98.28-.53.55-1.04,1.01-1.55.35-.51.39-.96.42-1.28.01-.16.02-.26.01-.26,1.78-3.04,1.94-3.74,2.46-6.72l.17-.17.04-.21c.22-.5.24-.98.26-1.37.02-.4.04-.69.22-1.01l.21-.35-.11-.39c-.12-.44-.14-.96-.15-1.5-.03-1.06-.07-2.25-.87-3.32-.99-2.65-1.14-2.88-3.07-4.44-.38-.85-1.13-1.34-1.75-1.74-.26-.17-.51-.33-.75-.55-.62-.55-1.31-.73-1.88-.88-.26-.07-.51-.13-.77-.18-.72-.17-1.4-.32-1.89-.63-.75-.5-1.54-.47-2.14-.44h-.37c-.26.01-.52-.04-.78-.1-.41-.08-.84-.16-1.29-.16h0c-3.03-.12-6.62-.16-10.22.57-.4.08-.81.15-1.21.23-.86.15-1.75.31-2.61.59-1.47.35-2.92.82-4.32,1.28-.81.26-1.62.52-2.46.77-.94.3-1.9.74-2.86,1.2-.58.38-1.17.66-1.77.95-.66.32-1.33.65-1.91,1.03-.39.21-.85.38-1.32.56-.41.15-.84.31-1.24.5-.43.2-.77.47-1.08.71-.45.36-.73.56-1.07.56h-.35l-.26.23c-.07.06-.19.18-.3.35-1.94,1.31-3.89,2.63-5.9,4.12-.35.3-.73.57-1.1.84-.67.49-1.36.98-1.9,1.63-.61.83-1.4,1.3-2.24,1.81l-.74.47c-.26.22-.48.49-.69.74-.29.36-.43.51-.61.54l-.51.08-.2.47c-.2.46-.64.77-1.14,1.12-.35.24-.68.48-.95.76l-.25.26c-.16.14-.43.37-.45.57-.27.64-.79,1.05-1.39,1.53l-.58.48c-.63.64-1.34,1.37-1.93,2.12-.14.19-.31.35-.47.51-.35.34-.76.75-.99,1.32-.62.4-1.1.96-1.28,1.33-.29.42-.66.81-1.01,1.17-.3.32-.59.63-.89,1.03-.52.87-1.16,1.62-1.86,2.45-.7.83-1.26,1.66-1.74,2.39-.37.38-.68.82-.98,1.28-.24.36-.49.72-.71.97-.42.36-.79.95-.86,1.37v.24s-.13.06-.13.06c-.04.02-.07.04-.11.06.38-.77.58-1.55.55-2.06.03-.08.16-.28.26-.41.28-.39.7-.99.64-1.71.36-.54.45-1.09.53-1.55.06-.36.11-.64.24-.86.14-.21.49-.78.61-1.46.05-.31.12-.69.42-1.08.17-.33.21-.68.24-.96,0-.08.01-.17-.04-.15.57-.51.57-1.11.57-1.42,0-.14,0-.2,0-.21.4-.86.91-2.02,1.32-3.48.04-.22.18-.52.33-.84.3-.64.68-1.42.56-2.29.54-.99,1.06-2.01,1.18-3.12.38-.71.58-1.44.75-2.09.17-.64.34-1.25.69-1.82.3-.58.28-1.12.27-1.47,0-.11,0-.25,0-.27l.22-.19.08-.29c.16-.62.4-1.22.64-1.81.39-.97.79-1.98.88-3.01.03-.17.05-.29.1-.38.5-.51.57-1.1.62-1.5.01-.12.04-.31.06-.35l.19-.2.05-.26c.09-.51-.13-1.27-.76-1.75-.4-.3-.85-.39-1.21-.46-.12-.02-.22-.04-.48-.11-.99-.17-1.49-.15-2.27.68-1.3,1.36-2.01,2.98-2.53,4.35l-1.4,3.38c-.15.34-.27.69-.4,1.05-.27.76-.51,1.48-.9,1.99-.43.37-.43.86-.43,1.23-.06.34-.21.76-.44,1.22-.4.78-.68,1.58-.95,2.35-.33.92-.63,1.79-1.12,2.61l-.47,1.58c-.45,1.42-.91,2.88-1.76,4.21l-.19.69c-.07.79-.43,1.6-.81,2.45-.3.68-.61,1.39-.78,2.07l-.8,2.27c-.25.62-.47,1.25-.68,1.88-.2.59-.4,1.19-.63,1.76-.27.63-.47,1.28-.67,1.93-.31,1.04-.6,2.01-1.21,2.92l-.25.98c-.05.64-.34,1.27-.65,1.94-.31.67-.62,1.37-.74,2.08-.12.41-.29.8-.45,1.19-.26.63-.53,1.29-.66,2.02l-.09.53c-.07.12-.14.24-.22.36-.36.58-.88,1.42-.66,2.4-.44.71-.65,1.4-.85,2.08l-.21.73c-.11.63-.18.98-.6,1.52-.42.63-.74,1.43-.88,2.26-.04.2-.06.42-.08.64-.03.24-.06.61-.12.73-.62,1.26-.98,2.54-1.33,3.78-.29,1.01-.55,1.97-.87,2.75-.15.23-.24.46-.31.67-.03.07-.06.17-.09.23-.24.28-.33.63-.24,1.08-.54.48-.65,1.07-.7,1.36,0,.03-.01.05-.01.08-.03-.01-.06-.02-.1-.03-.4-.08-.73-.23-1.15-.42l-.5-.22c-1.33-.47-2.85-.48-4.3-.04-.97.15-1.67,1.4-1.79,2.11-.2,1.07.62,1.52.93,1.69,1.5.74,3.05,1.17,4.8,1.32.32,0,.62,0,.86.06-.19.49-.34,1-.49,1.51-.16.54-.32,1.08-.56,1.67-.22.65-.51,1.31-.81,1.97-.46,1.03-.94,2.09-1.19,3.24-.45.47-.56,1.07-.63,1.49-.03.16-.06.32-.1.42l-1.46,3.67c-.28.75-.41,1.46-.5,2.04-.08.21-.17.41-.26.62-.22.5-.45,1.01-.54,1.58-.06.36-.26.73-.46,1.11-.16.3-.31.6-.44.94-.09.28-.15.56-.22.82-.18.73-.31,1.27-.78,1.81l-.17.19-.1.49v.1c.02.81-.25,1.6-.55,2.44-.12.36-.25.71-.34,1.04l-.44,1.33c-.49,1.47-1.01,2.99-1.29,4.61-.03.15-.08.33-.14.52-.1.31-.2.64-.32,1.03-.44.72-.44,1.27-.26,1.69-.67,1.08-.94,2.34-1,2.73-.3.91-.5,1.83-.69,2.74-.18.85-.36,1.7-.61,2.47-.16.37-.23.75-.29,1.09-.04.26-.09.5-.16.68-.16.39-.17.74-.17.97l-.08.28c-.43.51-.45,1.13-.47,1.63,0,.13,0,.26-.02.4-.52.61-.65,1.31-.36,1.96-.33.45-.34.91-.34,1.17l-.02.38c0,.07-.09.26-.14.38-.14.32-.32.73-.25,1.2l.11.31c0,.07-.06.28-.11.41-.04.15-.09.3-.12.45-.11.22-.18.45-.26.7-.06.18-.12.37-.22.59l-.07.4c-.03.92-.06,1.79-.25,2.97.01.68.17,1.65,1.4,2.19.74.34,1.51.38,2.17.41.25.01.5.02.74.05.15.05.31.08.47.08.54,0,1.1-.27,1.41-.74.11-.16.25-.33.4-.5.35-.4.73-.86.96-1.45.52-1.39.91-2.79,1.21-3.97.4-.78.55-1.4.44-2.01.01-.08.14-.32.23-.47.11-.19.21-.37.27-.51.32-.63.53-1.22.62-1.75.19-1.05.52-2.18.94-3.11.23-.68.39-1.36.56-2.04.26-1.06.5-2.05.97-2.98.22-.44.25-.86.27-1.17,0-.12,0-.18,0-.17l.83-2.44c.31-.89.46-1.79.56-2.36.13-.47.3-.94.47-1.41.38-1.05.77-2.14.75-3.13l.21-.65c.41-.93.88-1.98.75-3.1l.1-.19c.23-.45.39-.89.54-1.34.13-.37.25-.73.48-1.2.21-.58.27-1.13.32-1.58.02-.16.03-.32.02-.32.12-.31.19-.62.26-.94.08-.36.14-.67.3-.95.47-.81.61-1.61.82-2.52l.12-.27c.11-.4.26-.78.4-1.16.3-.8.61-1.63.66-2.46.03-.16.14-.4.25-.63.25-.52.58-1.22.38-1.99.52-.63.68-1.29.8-1.83.1-.4.17-.71.36-.97l.18-.25v-.31c.01-.73.26-1.51.54-2.35.23-.7.47-1.44.57-2.19.35-.55.48-1.12.6-1.63.03-.14.07-.29.12-.47.2.21.57.53,1.19.53.15,0,.36,0,.41.02.3.6.88.75,1.23.84.14.04.32.09.26.02.66.81,1.68,1.14,2.77,1.47.31.23.65.38.95.52.23.1.47.21.61.29.48.41,1.23.98,2.47,1.18h.38c.17-.02.47-.03.48-.07.62.75,1.38,1.05,1.99,1.3.22.09.43.17.76.33.54.19,1.06.4,1.58.61.94.38,1.9.77,2.88,1.02.41.14.8.32,1.19.49,1.06.47,2.24,1.01,3.78.93.87.71,1.95.8,2.81.8.18,0,.27.05.28.06l.21.19c.69.46,1.61.7,2.73.7.23,0,.46.09.76.21.37.14.83.32,1.24.32.02,0,.03,0,.04,0,1.53.26,3.07.67,4.61,1.07.26.07.51.14.77.22.82.24,1.66.49,2.6.49.61,0,1.21.07,1.79.15.83.11,1.7.21,2.49.12.16,0,.23.04.51.2.61.43,1.13.45,1.53.29.44.12.89.15,1.29.18.43.03.83.06,1.15.22.69.43,1.18.23,1.3.09.31-.14.52-.11,1.08.09.52.18,1.23.41,2.03.19,1.41.32,3.23.66,5.14.5.65,0,1.27,0,1.64.21.22.19.56.35.99.2l.74-.03c1.26.29,2.61.56,3.91.56h2.17c.62,0,1.02,0,1.48.2.55.24,1.1.15,1.5.09.06,0,.14-.02.21-.03l.17.07c.54.23,1.04.18,1.41.14.2-.02.36-.04.39-.04.59.32,1.27.23,1.88.16.17-.02.35-.04.51-.05.59.11,1.54.12,1.39.02.61.34,1.22.16,1.61.03.07-.02.16-.05.21-.07.08.03.18.06.28.07,1.01.48,2.12.37,3.11.28.9-.09,1.74-.09,2.61-.21.45-.06.89-.12,1.25-.13,1.93.14,3.8-.18,5.51-.56,1.65-.35,2.93-1.31,3.97-2.21.56-.66.91-1.31,1.02-2.16-.07-.99-.89-1.69-1.94-1.71M272.93,131.47l.45-.39c.65-.64,1.56-1.27,2.55-1.8.47-.15.98-.35,1.39-.86.56-.48,1.25-.85,2.04-1.29.26-.17.52-.39.76-.6.21-.18.52-.45.6-.47.51-.1.9-.32,1.24-.51.25-.14.47-.26.49-.28.67,0,1.07-.48,1.34-.8.08-.09.19-.23.17-.23,1.98-.91,4.03-1.86,6.19-2.41.34-.12.66-.28.98-.44.36-.17.73-.35,1.17-.5,2.53-.79,5.21-1.47,7.93-1.99l.32-.05c1.16-.16,2.21-.16,3.2-.29.2-.03.4-.06.71-.06.67-.07,1.33,0,2.05.07.66.06,1.35.1,2.02.1l.2.13c.77.42,1.5.55,2.03.39.42,0,.86.12,1.17.18l.38.18c1.81.86,3.68,1.74,4.91,3.08.42.51.82,1.16,1.22,1.8l.16.19c.17.16.25.57.34.99.06.31.12.62.22.91.35,1.08.44,2.27.25,3.35-.04.24-.03.47,0,.67-.36.5-.31,1.05-.25,1.44l-.18.15-.03.39c-.05.65-.35,1.28-.66,1.95-.29.64-.6,1.29-.8,2.19-.68.95-1.16,1.9-1.63,2.82-.31.6-.61,1.21-.96,1.81-.39.57-.83,1.13-1.27,1.69-.76.97-1.54,1.96-2.12,3.08-1,.75-1.69,1.66-2.36,2.54-.36.48-.71.94-1.12,1.37-.25.27-.45.54-.63.8-.18.25-.33.46-.6.7-.03.03-.14.08-.21.12-.31.16-.88.47-1.1,1.15-.73.5-1.31,1.13-1.88,1.75-.64.7-1.25,1.37-1.98,1.76-.36.17-1.41.65-1.78,1.8l-.7.48c-1.27.86-2.57,1.74-3.65,3.07-.54.23-.95.59-1.33.91-.25.21-.48.41-.7.54-.53.29-1,.67-1.45,1.04-.26.22-.54.44-.88.69-.29.24-.69.48-1.16.76l-2.39,1.68-.36.33-.12.04c-.75.26-1.39.69-2.02,1.11-.41.28-.82.56-1.27.77-.39.1-.73.39-.88.76-.14.2-.39.3-.78.46-.15.05-.29.11-.47.2-.91.46-1.84,1.04-2.78,1.63-.46.29-.92.57-1.32.81-.99.51-2.01,1.05-3.17,1.46-1.54.64-3.28,1.37-4.76,2.38-.29.19-.64.32-1.01.45-.27.09-.53.19-.77.3-.21.09-.4.2-.58.31-.24.13-.5.28-.63.28-.76,0-1.13.32-1.5.63-.18.16-.36.25-.47.29-.45-.11-.88.05-1.4.52-.21.26-.43.32-.88.4l-.43.09c-1.1.34-2.14.76-3.18,1.17-.99.4-1.99.8-3.02,1.12-.66.19-1.35.43-2.06.68-.83.29-1.68.59-2.56.82-.45.14-.96.36-1.47.57-.45.19-.89.38-1.19.49l-.41.07c-.53.08-1.14.18-1.66.54-.19.09-.45.1-.78.11-.3.01-.63.03-1.12.14-1.82.73-3.85,1.12-5.8,1.5l-1.22.26c-.96.22-1.87.41-2.76.34-.39,0-.68.09-.89.18.24-.73.49-1.49.68-2.39.07-.16.16-.37.14-.41l.14-.31c.25-.54.57-1.22.54-1.97,0-.33.21-.85.39-1.32l.19-.48c.24-.57.5-1.17.61-1.81.09-.5.13-.71.36-.99l.15-.2c.14-.18.32-.39.38-.83.03-.65.33-1.28.67-2.02.12-.25.24-.51.32-.72l.3-.61c.47-.94.87-1.75,1.49-2.44l.26-.43c.15-.28.3-.58.4-.97.51-1.05,1.11-2.04,1.74-3.09.37-.63.76-1.26,1.16-2,.04-.09.15-.21.27-.34.25-.27.6-.64.7-1.21.02-.05.13-.16.2-.24.21-.22.48-.53.51-.8.19-.47.5-.86.87-1.31.41-.5.87-1.06,1.22-1.99.03-.15.25-.4.45-.61l.25-.25c.22-.15.6-.4.69-.88l.03-.14v-.14c-.03-.16.04-.28.42-.65.19-.17.39-.37.52-.57l.28-.35c.47-.58,1-1.23,1.21-2.12.58-.41.94-.92,1.24-1.34.19-.27.35-.5.58-.7.37-.38.68-.83.99-1.28.24-.36.48-.72.77-1.02l.29-.48c.08-.17.11-.22.15-.27.4-.16.69-.55.82-.91.34-.63.86-1.11,1.41-1.63.33-.3.65-.61,1-1.01.67-.9,1.49-1.82,2.39-2.69.41-.35.79-.79,1.17-1.25.24-.28.48-.57.81-.92.12-.15.32-.3.53-.47.41-.3.94-.71,1.21-1.38.35-.23.62-.51.84-.75.32-.33.51-.52.79-.6l.44-.12.18-.41c.22-.52.66-.83,1.27-1.26.3-.21.61-.43.92-.7.4-.35.48-.74.46-.75.16-.39.34-.53.45-.57,1.16-.41,2.01-1.15,2.83-1.86M233.88,189.45l-.18-.57s0-.02,0-.03l.17.61ZM232.25,192.74s0,0,0,0l.47-.91c.05.06.11.21.08.4l-.55.51Z"/>
  <path class="st0" d="M336.37,213.14c-.52-.44-.52-1.03-.34-1.47,0-1.03.34-2.06.69-2.95.17-.59.34-1.03.86-1.47.69-.59,1.21-1.03,2.24-.89h.52c1.55,0,2.07.3,1.73,1.33-.17.88,0,1.62.34,2.36.35.74.35,1.47,0,2.06-.34.88-1.21,1.48-2.24,1.62-.52.15-.86,0-1.38,0h-.52c-.69.15-1.38-.15-1.9-.59"/>
  <path class="st0" d="M61.56,227.57h-1.01c-1.79,0-3.49-.96-4.54-2.57-1.17-1.78-1.37-4.01-.53-5.96l28.41-65.96.42-1.09c1.01-2.58,3.33-4.51,6.55-5.43,1.25-.36,3.58-.3,4.04-.29l2.12.07-1.4,3.59c4.76-2.2,9.18-3.08,13.29-3.68h0c19.65-2.85,58-1.38,58.38-1.36l-1.32,2.83s-3.57.17-3.57.17c-.6,0-23.2.23-54.26,6.77-8.73,1.84-17.34,8.1-21.43,15.58-7.45,13.62-24.59,55.96-24.77,56.39l-.38.94Z"/>
  <path class="st0" d="M176.32,144.89l-.38.94c-.17.43-17.21,42.87-24.72,56.72-4.13,7.61-12.78,13.99-21.51,15.86-31.09,6.66-61.96,6.13-62.56,6.13,0,0-.44,0-.45,0l-1.43,3.02c.2,0,17.1,1.06,30.14,1.06,10.97,0,23.5-.34,32.58-1.59h.08c2.27-.45,4.34-.86,6.35-1.29,9.69-2.07,18.93-8.89,23.52-17.36,7.59-14,25.23-56.59,25.4-57.01l2.77-6.49h-9.79Z"/>
  <path class="st0" d="M187.78,135.81c-.79-1.26-2.28-1.99-4.1-1.99h-11.21l-3.56,7.35h18.47l.41-.85c.78-1.62.78-3.26-.01-4.52Z"/>
</svg>