<?xml version="1.0" encoding="UTF-8"?>
<svg id="Layer_1" xmlns="http://www.w3.org/2000/svg" version="1.1" xmlns:xlink="http://www.w3.org/1999/xlink" viewBox="0 0 612 396">
  <!-- Generator: Adobe Illustrator 30.1.0, SVG Export Plug-In . SVG Version: 2.1.1 Build 136)  -->
  <defs>
    <style>
      .st0 {
        opacity: .65;
      }

      .st1 {
        clip-path: url(#clippath-6);
      }

      .st2 {
        clip-path: url(#clippath-7);
      }

      .st3 {
        fill: #7e8ec7;
      }

      .st4 {
        clip-path: url(#clippath-4);
      }

      .st5 {
        fill: #231f20;
      }

      .st6 {
        fill: #decb72;
      }

      .st7 {
        clip-path: url(#clippath-9);
      }

      .st8 {
        clip-path: url(#clippath-10);
      }

      .st9 {
        fill: #fff;
      }

      .st10 {
        clip-path: url(#clippath-11);
      }

      .st11 {
        fill: none;
      }

      .st12 {
        fill: #4454a5;
      }

      .st13 {
        clip-path: url(#clippath-1);
      }

      .st14 {
        clip-path: url(#clippath-5);
      }

      .st15 {
        clip-path: url(#clippath-8);
      }

      .st16 {
        clip-path: url(#clippath-3);
      }

      .st17 {
        clip-path: url(#clippath-2);
      }

      .st18 {
        fill: #a5a3a4;
      }

      .st19 {
        clip-path: url(#clippath);
      }

      .st20 {
        fill: #e7c945;
      }
    </style>
    <clipPath id="clippath">
      <rect class="st11" width="612" height="396"/>
    </clipPath>
    <clipPath id="clippath-1">
      <rect class="st11" width="612" height="396"/>
    </clipPath>
    <clipPath id="clippath-2">
      <rect class="st11" x="10" y="77.04" width="592" height="169.35"/>
    </clipPath>
    <clipPath id="clippath-3">
      <rect class="st11" x="51.84" y="263.52" width="165.83" height="47.44"/>
    </clipPath>
    <clipPath id="clippath-4">
      <rect class="st11" x="90.01" y="271.8" width="4.71" height="15.38"/>
    </clipPath>
    <clipPath id="clippath-5">
      <rect class="st11" x="90.01" y="271.8" width="4.71" height="15.38"/>
    </clipPath>
    <clipPath id="clippath-6">
      <rect class="st11" x="70.15" y="279.82" width="6.76" height="11.68"/>
    </clipPath>
    <clipPath id="clippath-7">
      <rect class="st11" x="70.15" y="279.82" width="6.76" height="11.68"/>
    </clipPath>
    <clipPath id="clippath-8">
      <rect class="st11" x="81" y="267.26" width="5.49" height="20.99"/>
    </clipPath>
    <clipPath id="clippath-9">
      <rect class="st11" x="81" y="267.26" width="5.49" height="20.99"/>
    </clipPath>
    <clipPath id="clippath-10">
      <rect class="st11" x="234.5" y="263.52" width="165.83" height="47.44"/>
    </clipPath>
    <clipPath id="clippath-11">
      <rect class="st11" x="417.15" y="263.52" width="165.83" height="47.44"/>
    </clipPath>
  </defs>
  <g class="st19">
    <g class="st13">
      <g class="st17">
        <path class="st12" d="M260.65,145.86c-.22.36-.46.62-.7.8-.24.18-.56.27-.95.27-.34,0-.71-.11-1.1-.32-.39-.21-.84-.46-1.33-.72-.5-.27-1.06-.51-1.7-.72-.64-.21-1.36-.32-2.18-.32-1.41,0-2.46.3-3.15.9-.69.6-1.03,1.41-1.03,2.43,0,.65.21,1.19.62,1.62.42.43.96.8,1.64,1.11.67.31,1.45.6,2.31.86.87.26,1.75.55,2.66.87.9.32,1.79.69,2.66,1.12.86.43,1.64.98,2.31,1.64.68.67,1.22,1.48,1.64,2.43.41.96.62,2.11.62,3.46,0,1.5-.26,2.9-.78,4.2-.52,1.3-1.27,2.44-2.26,3.41-.99.97-2.2,1.73-3.65,2.29-1.44.56-3.08.83-4.92.83-1.01,0-2.03-.1-3.08-.31-1.05-.21-2.06-.5-3.03-.88-.98-.38-1.9-.83-2.76-1.34-.86-.52-1.61-1.1-2.25-1.74l2.22-3.51c.18-.25.41-.46.7-.63.29-.17.6-.26.94-.26.44,0,.89.14,1.34.42.45.28.96.59,1.53.93.57.34,1.23.65,1.97.93.74.28,1.61.42,2.62.42,1.36,0,2.42-.3,3.18-.9.76-.6,1.13-1.55,1.13-2.85,0-.76-.21-1.37-.62-1.85-.41-.47-.96-.87-1.63-1.18-.68-.31-1.44-.59-2.3-.82-.86-.24-1.74-.5-2.65-.79-.9-.29-1.78-.64-2.65-1.07-.86-.42-1.63-.98-2.3-1.67-.68-.69-1.22-1.55-1.64-2.58-.41-1.03-.62-2.3-.62-3.81,0-1.21.25-2.4.73-3.56.49-1.16,1.21-2.18,2.16-3.09.95-.9,2.11-1.63,3.49-2.17,1.38-.54,2.96-.81,4.73-.81,1,0,1.96.08,2.9.23.94.15,1.83.38,2.68.69.85.3,1.64.67,2.37,1.09.73.42,1.39.9,1.97,1.43l-1.87,3.49Z"/>
        <path class="st12" d="M265.66,168.17c0-.53.1-1.03.3-1.49.2-.46.48-.86.82-1.2.35-.34.76-.61,1.24-.81.47-.2.99-.3,1.56-.3s1.06.1,1.53.3c.47.2.89.47,1.24.81.35.34.63.74.83,1.2.2.46.3.96.3,1.49s-.1,1.04-.3,1.5c-.2.47-.48.87-.83,1.21-.36.34-.77.61-1.24.8-.48.19-.99.29-1.53.29s-1.08-.1-1.56-.29c-.47-.19-.89-.46-1.24-.8-.35-.34-.62-.74-.82-1.21-.2-.46-.3-.97-.3-1.5"/>
        <polygon class="st12" points="298.51 145.24 289.39 145.24 289.39 171.67 281.88 171.67 281.88 145.24 272.77 145.24 272.77 139.28 298.51 139.28 298.51 145.24"/>
        <path class="st12" d="M297.8,168.17c0-.53.1-1.03.3-1.49.2-.46.48-.86.82-1.2.35-.34.76-.61,1.24-.81.47-.2.99-.3,1.56-.3s1.06.1,1.53.3c.47.2.89.47,1.24.81.35.34.63.74.83,1.2.2.46.3.96.3,1.49s-.1,1.04-.3,1.5c-.2.47-.48.87-.83,1.21-.36.34-.77.61-1.24.8-.48.19-.99.29-1.53.29s-1.08-.1-1.56-.29c-.48-.19-.89-.46-1.24-.8-.35-.34-.62-.74-.82-1.21-.2-.46-.3-.97-.3-1.5"/>
        <path class="st12" d="M331.85,139.28c2.28,0,4.24.27,5.88.81,1.64.54,2.99,1.29,4.04,2.23,1.06.95,1.84,2.07,2.35,3.36.5,1.29.76,2.68.76,4.18,0,1.62-.26,3.1-.78,4.45-.52,1.35-1.31,2.51-2.38,3.47-1.07.96-2.42,1.72-4.06,2.26-1.64.54-3.58.81-5.81.81h-3.91v10.82h-7.51v-32.39h11.42ZM331.85,155.17c1.96,0,3.36-.47,4.23-1.4.86-.93,1.29-2.24,1.29-3.91,0-.74-.11-1.42-.33-2.02-.22-.6-.56-1.13-1.01-1.57-.45-.44-1.02-.77-1.71-1.01-.69-.24-1.51-.35-2.46-.35h-3.91v10.27h3.91Z"/>
        <path class="st12" d="M375.2,171.67h-6.8c-1.26,0-2.16-.48-2.71-1.42l-5.38-9.4c-.25-.4-.53-.69-.84-.88-.31-.18-.75-.28-1.33-.28h-1.91v11.98h-7.51v-32.39h10.54c2.34,0,4.34.24,5.99.72,1.65.48,3,1.15,4.04,2.01,1.04.86,1.8,1.88,2.28,3.04.47,1.17.71,2.44.71,3.82,0,1.05-.14,2.04-.42,2.98-.28.93-.7,1.8-1.24,2.59-.55.79-1.23,1.5-2.03,2.12-.81.62-1.74,1.14-2.79,1.53.49.25.95.57,1.38.95.43.38.82.82,1.16,1.34l6.89,11.27ZM359.24,154.5c1.02,0,1.89-.13,2.61-.39.72-.26,1.31-.62,1.77-1.08.46-.46.79-1,1-1.61.21-.61.31-1.28.31-1.99,0-1.42-.46-2.54-1.39-3.33-.93-.8-2.36-1.2-4.3-1.2h-3.02v9.6h3.02Z"/>
        <path class="st12" d="M409.14,155.46c0,2.34-.4,4.52-1.21,6.53-.81,2.02-1.94,3.77-3.41,5.26-1.47,1.49-3.23,2.66-5.3,3.5-2.07.85-4.36,1.27-6.88,1.27s-4.82-.42-6.89-1.27c-2.07-.84-3.85-2.01-5.32-3.5-1.48-1.49-2.62-3.24-3.42-5.26-.81-2.01-1.21-4.19-1.21-6.53s.4-4.52,1.21-6.54c.81-2.01,1.95-3.76,3.42-5.25,1.48-1.48,3.25-2.65,5.32-3.49,2.08-.84,4.37-1.27,6.89-1.27s4.81.43,6.88,1.28c2.07.85,3.83,2.02,5.3,3.5,1.47,1.48,2.61,3.23,3.41,5.24.81,2.02,1.21,4.19,1.21,6.51M401.45,155.46c0-1.6-.21-3.04-.62-4.32-.42-1.28-1.01-2.37-1.79-3.26-.78-.89-1.73-1.57-2.86-2.04-1.13-.48-2.41-.71-3.85-.71s-2.74.24-3.88.71c-1.13.48-2.09,1.15-2.87,2.04-.78.89-1.38,1.98-1.79,3.26-.42,1.28-.62,2.72-.62,4.32s.21,3.06.62,4.34c.41,1.28,1.01,2.37,1.79,3.26.78.89,1.74,1.57,2.87,2.03,1.13.47,2.43.7,3.88.7s2.72-.23,3.85-.7c1.13-.47,2.08-1.15,2.86-2.03.78-.89,1.37-1.97,1.79-3.26.41-1.28.62-2.73.62-4.34"/>
        <path class="st12" d="M424.98,139.28c2.28,0,4.24.27,5.88.81,1.64.54,2.99,1.29,4.04,2.23,1.06.95,1.84,2.07,2.35,3.36.51,1.29.76,2.68.76,4.18,0,1.62-.26,3.1-.78,4.45-.52,1.35-1.31,2.51-2.38,3.47-1.07.96-2.42,1.72-4.06,2.26-1.64.54-3.57.81-5.81.81h-3.91v10.82h-7.51v-32.39h11.42ZM424.98,155.17c1.96,0,3.36-.47,4.23-1.4.86-.93,1.29-2.24,1.29-3.91,0-.74-.11-1.42-.33-2.02-.22-.6-.56-1.13-1.01-1.57-.45-.44-1.02-.77-1.71-1.01-.69-.24-1.51-.35-2.46-.35h-3.91v10.27h3.91Z"/>
        <polygon class="st12" points="449.39 145.06 449.39 152.62 459.57 152.62 459.57 158.17 449.39 158.17 449.39 165.89 462.68 165.89 462.68 171.67 441.83 171.67 441.83 139.28 462.68 139.28 462.68 145.06 449.39 145.06"/>
        <path class="st12" d="M493.8,171.67h-6.8c-1.26,0-2.16-.48-2.72-1.42l-5.38-9.4c-.25-.4-.53-.69-.85-.88-.31-.18-.75-.28-1.33-.28h-1.91v11.98h-7.51v-32.39h10.54c2.34,0,4.34.24,5.99.72,1.65.48,3,1.15,4.04,2.01,1.04.86,1.8,1.88,2.28,3.04.47,1.17.71,2.44.71,3.82,0,1.05-.14,2.04-.42,2.98-.28.93-.7,1.8-1.24,2.59-.55.79-1.23,1.5-2.03,2.12-.81.62-1.74,1.14-2.79,1.53.49.25.95.57,1.38.95.43.38.82.82,1.16,1.34l6.89,11.27ZM477.84,154.5c1.02,0,1.89-.13,2.61-.39.72-.26,1.31-.62,1.77-1.08.46-.46.79-1,1-1.61.21-.61.31-1.28.31-1.99,0-1.42-.46-2.54-1.39-3.33-.93-.8-2.36-1.2-4.3-1.2h-3.02v9.6h3.02Z"/>
        <polygon class="st12" points="519.16 145.24 510.05 145.24 510.05 171.67 502.54 171.67 502.54 145.24 493.42 145.24 493.42 139.28 519.16 139.28 519.16 145.24"/>
        <rect class="st12" x="522.96" y="139.28" width="7.56" height="32.39"/>
        <polygon class="st12" points="544.35 145.06 544.35 152.62 554.53 152.62 554.53 158.17 544.35 158.17 544.35 165.89 557.64 165.89 557.64 171.67 536.79 171.67 536.79 139.28 557.64 139.28 557.64 145.06 544.35 145.06"/>
        <path class="st12" d="M580.16,145.86c-.22.36-.46.62-.7.8-.24.18-.56.27-.94.27-.34,0-.71-.11-1.1-.32-.39-.21-.84-.46-1.33-.72-.49-.27-1.06-.51-1.7-.72-.64-.21-1.36-.32-2.18-.32-1.41,0-2.45.3-3.15.9-.69.6-1.03,1.41-1.03,2.43,0,.65.21,1.19.62,1.62.42.43.96.8,1.64,1.11.67.31,1.44.6,2.31.86.87.26,1.75.55,2.66.87.9.32,1.79.69,2.66,1.12.87.43,1.64.98,2.31,1.64.67.67,1.22,1.48,1.64,2.43.41.96.62,2.11.62,3.46,0,1.5-.26,2.9-.78,4.2-.52,1.3-1.27,2.44-2.26,3.41-.99.97-2.2,1.73-3.65,2.29-1.44.56-3.09.83-4.92.83-1.01,0-2.03-.1-3.08-.31-1.05-.21-2.06-.5-3.04-.88-.98-.38-1.9-.83-2.76-1.34-.86-.52-1.61-1.1-2.25-1.74l2.22-3.51c.18-.25.41-.46.7-.63.29-.17.6-.26.95-.26.44,0,.89.14,1.34.42.45.28.96.59,1.53.93.57.34,1.23.65,1.97.93.74.28,1.61.42,2.62.42,1.36,0,2.42-.3,3.18-.9.76-.6,1.13-1.55,1.13-2.85,0-.76-.21-1.37-.62-1.85-.42-.47-.96-.87-1.63-1.18-.67-.31-1.44-.59-2.3-.82-.86-.24-1.74-.5-2.65-.79-.9-.29-1.78-.64-2.64-1.07-.86-.42-1.63-.98-2.3-1.67-.68-.69-1.22-1.55-1.64-2.58-.41-1.03-.62-2.3-.62-3.81,0-1.21.25-2.4.73-3.56.49-1.16,1.21-2.18,2.16-3.09.95-.9,2.11-1.63,3.49-2.17,1.38-.54,2.96-.81,4.73-.81,1,0,1.96.08,2.9.23.94.15,1.83.38,2.68.69.85.3,1.64.67,2.37,1.09.73.42,1.39.9,1.97,1.43l-1.87,3.49Z"/>
        <path class="st5" d="M255.45,204.41h-2.31c-.46,0-.8-.18-1.01-.55l-4.32-6.06c-.14-.2-.29-.35-.45-.43-.16-.09-.4-.13-.73-.13h-1.69v7.17h-2.59v-17.49h5.04c1.13,0,2.1.12,2.92.35.82.23,1.49.56,2.02.99.53.43.93.94,1.18,1.54.26.6.38,1.27.38,2.02,0,.61-.09,1.18-.28,1.72-.19.53-.46,1.02-.82,1.44-.36.43-.8.79-1.32,1.1-.52.31-1.11.54-1.76.71.32.19.6.47.84.82l4.92,6.81ZM247.29,195.35c.67,0,1.25-.08,1.76-.24.51-.16.93-.39,1.27-.69.34-.3.6-.65.77-1.06.17-.41.26-.86.26-1.36,0-1.01-.33-1.76-.99-2.28-.66-.51-1.65-.77-2.98-.77h-2.45v6.39h2.36Z"/>
        <polygon class="st5" points="268.54 202.31 268.53 204.41 257.69 204.41 257.69 186.92 268.53 186.92 268.53 189.03 260.3 189.03 260.3 194.57 266.92 194.57 266.92 196.61 260.3 196.61 260.3 202.31 268.54 202.31"/>
        <path class="st5" d="M280.79,189.77c-.08.14-.17.24-.26.3-.09.07-.2.1-.34.1-.15,0-.31-.07-.5-.2-.19-.13-.42-.28-.7-.45-.28-.17-.61-.32-1.01-.45-.39-.13-.86-.2-1.4-.2-.51,0-.96.07-1.35.2-.38.13-.71.32-.97.55-.26.23-.46.5-.59.82-.13.31-.2.65-.2,1.02,0,.47.12.86.36,1.17.24.31.55.57.94.79.39.22.83.41,1.33.57.49.16,1,.33,1.52.51.52.18,1.03.37,1.52.6.5.23.94.51,1.33.86.39.34.7.77.94,1.27.24.5.36,1.11.36,1.83,0,.77-.13,1.49-.4,2.17-.26.67-.65,1.26-1.15,1.77-.5.5-1.12.9-1.86,1.19-.73.29-1.57.43-2.5.43-.56,0-1.11-.05-1.63-.16-.53-.11-1.03-.26-1.5-.46-.47-.2-.91-.44-1.32-.72-.41-.28-.78-.59-1.1-.94l.74-1.24c.07-.1.16-.18.26-.24.1-.07.22-.1.35-.1.17,0,.37.09.59.27.22.18.5.38.83.59.33.22.72.41,1.18.59.46.18,1.02.27,1.67.27.54,0,1.02-.07,1.44-.21.42-.14.78-.35,1.07-.61.29-.26.51-.58.66-.96.15-.37.23-.79.23-1.24,0-.51-.12-.93-.35-1.25-.24-.33-.55-.6-.94-.82-.39-.22-.83-.4-1.33-.56-.49-.15-1-.31-1.52-.48-.52-.17-1.03-.36-1.52-.58-.5-.22-.94-.51-1.33-.86-.39-.35-.7-.8-.94-1.33-.23-.53-.35-1.19-.35-1.97,0-.63.12-1.23.37-1.82.24-.58.6-1.1,1.07-1.55.47-.45,1.04-.81,1.72-1.08.68-.27,1.46-.41,2.34-.41.98,0,1.89.16,2.71.47.82.31,1.54.76,2.15,1.35l-.63,1.23Z"/>
        <rect class="st5" x="285" y="186.92" width="2.61" height="17.49"/>
        <path class="st5" d="M307.17,195.67c0,1.31-.21,2.5-.63,3.57-.42,1.07-1.01,1.99-1.77,2.76-.76.77-1.68,1.36-2.74,1.78-1.06.42-2.24.63-3.55.63h-6.57v-17.49h6.57c1.3,0,2.48.21,3.55.63,1.06.42,1.98,1.02,2.74,1.78.76.77,1.35,1.69,1.77,2.76.42,1.08.63,2.26.63,3.56M304.52,195.67c0-1.04-.14-1.97-.43-2.79-.28-.82-.69-1.52-1.21-2.1-.52-.57-1.16-1.01-1.9-1.31-.74-.3-1.57-.45-2.49-.45h-3.97v13.3h3.97c.92,0,1.75-.15,2.49-.45.74-.3,1.38-.74,1.9-1.31.52-.57.93-1.27,1.21-2.09.28-.82.43-1.75.43-2.8"/>
        <polygon class="st5" points="321.29 202.31 321.27 204.41 310.44 204.41 310.44 186.92 321.27 186.92 321.27 189.03 313.04 189.03 313.04 194.57 319.67 194.57 319.67 196.61 313.04 196.61 313.04 202.31 321.29 202.31"/>
        <path class="st5" d="M338.81,186.92v17.49h-1.32c-.2,0-.37-.04-.51-.11-.14-.07-.27-.19-.41-.35l-9.88-12.78c.02.22.03.43.04.65.01.21.02.41.02.6v11.99h-2.28v-17.49h1.34c.23,0,.4.03.51.08.11.05.24.17.38.36l9.9,12.79c-.02-.24-.04-.47-.05-.69-.01-.22-.02-.43-.02-.63v-11.91h2.27Z"/>
        <polygon class="st5" points="355.06 189.09 349.51 189.09 349.51 204.41 346.92 204.41 346.92 189.09 341.35 189.09 341.35 186.92 355.06 186.92 355.06 189.09"/>
        <rect class="st5" x="357.58" y="186.92" width="2.61" height="17.49"/>
        <path class="st5" d="M378.92,204.41h-2c-.23,0-.41-.06-.56-.17-.15-.11-.25-.26-.32-.44l-1.55-4.06h-7.71l-1.55,4.06c-.06.15-.16.29-.32.42-.15.12-.34.19-.56.19h-2l6.96-17.49h2.62l6.97,17.49ZM373.79,197.9l-2.6-6.78c-.19-.46-.37-1.05-.56-1.75-.09.35-.18.67-.27.97-.09.3-.19.57-.27.8l-2.58,6.76h6.29Z"/>
        <polygon class="st5" points="391.11 202.23 391.11 204.41 381.1 204.41 381.1 186.92 383.69 186.92 383.69 202.23 391.11 202.23"/>
        <path class="st5" d="M414.14,204.41h-2.31c-.26,0-.46-.03-.62-.09-.15-.06-.32-.19-.51-.38l-1.62-1.63c-.76.71-1.64,1.28-2.62,1.69-.99.41-2.07.62-3.24.62-.66,0-1.3-.11-1.93-.34-.63-.22-1.19-.55-1.69-.97-.5-.42-.9-.94-1.2-1.54-.31-.6-.46-1.29-.46-2.05,0-.56.09-1.09.28-1.6.18-.51.45-.97.78-1.4.33-.43.73-.81,1.19-1.15.46-.34.96-.63,1.49-.88-.48-.63-.83-1.23-1.05-1.82-.22-.59-.34-1.19-.34-1.81s.11-1.15.33-1.68c.22-.53.53-.99.94-1.38.41-.39.9-.7,1.49-.93.59-.23,1.25-.34,1.99-.34.66,0,1.26.1,1.8.31.54.21,1.01.49,1.4.84.39.35.69.75.92,1.21.22.45.35.93.38,1.43l-1.48.3c-.3.07-.52-.07-.66-.4-.07-.21-.16-.43-.27-.64-.12-.22-.27-.42-.46-.59-.19-.18-.42-.32-.69-.43-.27-.11-.58-.17-.93-.17-.39,0-.74.07-1.05.2-.31.13-.58.31-.8.53-.22.22-.39.49-.51.78-.12.3-.18.62-.18.96,0,.27.03.53.1.78.07.26.17.51.3.77.13.26.31.52.52.78.21.26.46.55.76.85l4.93,5.05c.3-.54.54-1.1.72-1.69.18-.59.3-1.19.35-1.78.02-.16.07-.29.15-.39.09-.1.21-.15.37-.15h1.47c0,.97-.16,1.92-.45,2.84-.29.92-.71,1.78-1.24,2.56l3.65,3.74ZM402.75,195.91c-.8.45-1.4.98-1.8,1.6-.39.62-.59,1.29-.59,2,0,.51.09.95.27,1.35.18.39.43.72.73.99.3.27.65.47,1.05.61.4.14.8.21,1.21.21.86,0,1.64-.15,2.33-.46.69-.31,1.3-.71,1.84-1.22l-5.04-5.08Z"/>
        <path class="st5" d="M434.84,200.66c.15,0,.27.06.38.17l1.02,1.12c-.71.85-1.58,1.5-2.61,1.96-1.03.46-2.26.69-3.71.69-1.27,0-2.41-.22-3.44-.66-1.03-.44-1.9-1.05-2.63-1.84-.73-.79-1.29-1.73-1.69-2.83-.4-1.1-.6-2.3-.6-3.62s.21-2.52.63-3.62c.42-1.1,1-2.04,1.76-2.83.75-.79,1.66-1.4,2.71-1.84,1.05-.44,2.21-.66,3.49-.66s2.35.2,3.31.61c.96.41,1.81.95,2.52,1.62l-.85,1.21c-.06.09-.13.16-.21.22-.08.06-.2.08-.33.08-.15,0-.33-.08-.54-.23-.21-.15-.48-.33-.82-.52-.34-.19-.75-.36-1.25-.52-.49-.15-1.11-.23-1.85-.23-.87,0-1.66.15-2.39.46-.72.3-1.35.74-1.87,1.32-.52.57-.93,1.27-1.22,2.11-.29.83-.43,1.77-.43,2.82s.15,2.01.45,2.84c.3.83.71,1.53,1.24,2.11.53.58,1.15,1.01,1.86,1.32.72.3,1.49.45,2.32.45.5,0,.96-.03,1.36-.09.4-.06.77-.15,1.11-.27.34-.12.65-.28.95-.47.3-.19.6-.42.89-.69.07-.06.14-.1.21-.14.07-.04.15-.06.23-.06"/>
        <path class="st5" d="M454.81,195.67c0,1.31-.21,2.51-.63,3.6-.42,1.09-1.01,2.03-1.77,2.83-.77.79-1.68,1.41-2.74,1.85-1.06.44-2.24.66-3.55.66s-2.47-.22-3.54-.66c-1.07-.44-1.98-1.05-2.74-1.85-.76-.79-1.35-1.73-1.77-2.83-.42-1.09-.63-2.29-.63-3.6s.21-2.5.63-3.59c.42-1.1,1.01-2.04,1.77-2.83.76-.79,1.67-1.41,2.74-1.85,1.07-.44,2.25-.66,3.54-.66s2.48.22,3.55.66c1.06.44,1.97,1.06,2.74,1.85.76.79,1.35,1.74,1.77,2.83.42,1.1.63,2.3.63,3.59M452.16,195.67c0-1.04-.14-1.97-.43-2.8-.28-.83-.69-1.53-1.21-2.11-.52-.57-1.16-1.02-1.9-1.33-.74-.31-1.57-.46-2.49-.46s-1.75.15-2.49.46c-.74.31-1.38.75-1.9,1.33-.53.58-.93,1.28-1.22,2.11-.28.83-.43,1.76-.43,2.8s.14,1.98.43,2.81c.28.82.69,1.52,1.22,2.1.53.58,1.16,1.02,1.9,1.32.74.3,1.57.45,2.49.45s1.75-.15,2.49-.45c.74-.31,1.38-.75,1.9-1.32.52-.58.93-1.28,1.21-2.1.28-.83.43-1.76.43-2.81"/>
        <path class="st5" d="M476.45,186.92v17.49h-2.27v-12.45c0-.19,0-.38.02-.6.01-.21.03-.43.04-.65l-5.82,10.68c-.2.4-.52.6-.94.6h-.36c-.42,0-.73-.2-.93-.6l-5.93-10.72c.05.46.07.88.07,1.28v12.45h-2.28v-17.49h1.92c.23,0,.4.02.53.07.12.04.25.17.36.37l5.85,10.47c.11.21.22.44.31.67.1.24.19.47.28.71.17-.48.37-.94.6-1.39l5.73-10.46c.11-.2.22-.33.35-.37.12-.04.3-.07.53-.07h1.93Z"/>
        <path class="st5" d="M499.17,186.92v17.49h-2.27v-12.45c0-.19,0-.38.02-.6.01-.21.03-.43.04-.65l-5.82,10.68c-.2.4-.51.6-.94.6h-.36c-.42,0-.73-.2-.93-.6l-5.93-10.72c.05.46.07.88.07,1.28v12.45h-2.28v-17.49h1.93c.23,0,.4.02.53.07.12.04.24.17.36.37l5.85,10.47c.11.21.22.44.32.67s.19.47.28.71c.17-.48.37-.94.6-1.39l5.74-10.46c.1-.2.22-.33.35-.37.13-.04.3-.07.53-.07h1.93Z"/>
        <polygon class="st5" points="514.34 202.31 514.33 204.41 503.49 204.41 503.49 186.92 514.33 186.92 514.33 189.03 506.1 189.03 506.1 194.57 512.72 194.57 512.72 196.61 506.1 196.61 506.1 202.31 514.34 202.31"/>
        <path class="st5" d="M530.66,204.41h-2.32c-.46,0-.8-.18-1.01-.55l-4.32-6.06c-.14-.2-.29-.35-.45-.43-.16-.09-.41-.13-.73-.13h-1.69v7.17h-2.59v-17.49h5.04c1.13,0,2.1.12,2.92.35.81.23,1.49.56,2.02.99.53.43.93.94,1.18,1.54.26.6.38,1.27.38,2.02,0,.61-.09,1.18-.28,1.72-.19.53-.46,1.02-.82,1.44-.36.43-.8.79-1.32,1.1-.52.31-1.11.54-1.77.71.32.19.61.47.84.82l4.92,6.81ZM522.5,195.35c.67,0,1.25-.08,1.76-.24.51-.16.93-.39,1.27-.69.34-.3.6-.65.77-1.06.17-.41.26-.86.26-1.36,0-1.01-.33-1.76-.99-2.28-.66-.51-1.65-.77-2.98-.77h-2.45v6.39h2.36Z"/>
        <path class="st5" d="M544.92,200.66c.15,0,.27.06.38.17l1.02,1.12c-.71.85-1.58,1.5-2.61,1.96-1.03.46-2.27.69-3.71.69-1.27,0-2.42-.22-3.44-.66-1.03-.44-1.91-1.05-2.63-1.84-.73-.79-1.29-1.73-1.69-2.83-.4-1.1-.6-2.3-.6-3.62s.21-2.52.63-3.62c.42-1.1,1-2.04,1.76-2.83.75-.79,1.66-1.4,2.71-1.84,1.05-.44,2.21-.66,3.49-.66s2.35.2,3.31.61c.97.41,1.81.95,2.52,1.62l-.85,1.21c-.05.09-.13.16-.21.22-.09.06-.2.08-.34.08-.15,0-.33-.08-.54-.23-.21-.15-.48-.33-.81-.52-.34-.19-.75-.36-1.25-.52-.5-.15-1.11-.23-1.85-.23-.87,0-1.67.15-2.39.46-.72.3-1.35.74-1.87,1.32-.52.57-.93,1.27-1.22,2.11-.29.83-.43,1.77-.43,2.82s.15,2.01.45,2.84c.3.83.71,1.53,1.24,2.11.53.58,1.15,1.01,1.86,1.32.72.3,1.49.45,2.32.45.5,0,.96-.03,1.36-.09.4-.06.77-.15,1.11-.27.34-.12.66-.28.96-.47.3-.19.6-.42.89-.69.06-.06.13-.1.21-.14.07-.04.15-.06.23-.06"/>
        <rect class="st5" x="548.94" y="186.92" width="2.61" height="17.49"/>
        <path class="st5" d="M570.28,204.41h-2c-.22,0-.41-.06-.56-.17-.15-.11-.25-.26-.32-.44l-1.54-4.06h-7.71l-1.55,4.06c-.06.15-.16.29-.32.42-.16.12-.34.19-.56.19h-2l6.97-17.49h2.62l6.96,17.49ZM565.15,197.9l-2.59-6.78c-.19-.46-.38-1.05-.56-1.75-.09.35-.18.67-.27.97-.09.3-.18.57-.27.8l-2.58,6.76h6.28Z"/>
        <polygon class="st5" points="582.47 202.23 582.47 204.41 572.46 204.41 572.46 186.92 575.05 186.92 575.05 202.23 582.47 202.23"/>
        <polygon class="st5" points="166.89 157.35 165.33 157.39 165.33 162.41 172.37 166.97 178.46 170.91 178.46 157.53 166.89 157.35"/>
        <path class="st18" d="M191.12,179.08v-33.03s-8.13-1.57-14.04,0c-5.92,1.57-9.69,4.63-9.69,4.63v5.44l12.64.08-.18,15.59,11.27,7.28Z"/>
        <path class="st5" d="M167.05,149.36l-1.81-2.44c.18-.15,4.53-3.59,11.39-5.38,6.87-1.8,16.04-.08,16.43,0l-1.75,3.01c-.09-.02-7.77-1.49-14.31.22-6.54,1.71-9.91,4.57-9.95,4.6"/>
        <polyline class="st18" points="135.82 152.2 135.9 116.77 137.33 116.22 137.33 109.39 144.6 106.59 144.6 151.61 140.65 149.16 135.82 152.17"/>
        <polygon class="st3" points="146.26 106.59 146.26 152.69 153.89 157.46 155.05 156.3 163.09 161.49 163.09 110.86 161.09 110.83 161.09 106.59 146.26 106.59"/>
        <polygon class="st5" points="73.42 135.23 73.43 176.94 63.78 176.94 63.78 143.17 69.54 140.08 69.54 137.19 73.42 135.23"/>
        <polygon class="st3" points="75.37 135.23 94.17 135.23 94.16 139.6 99.49 139.6 99.49 173.6 94.33 176.94 75.37 176.94 75.37 135.23"/>
        <path class="st3" d="M125.16,90.38h0l-.08,6.38s2.83.24,6.17,3.5c2.62,2.57,2.42,7.75,2.42,7.75v44.75l-19.58,12.54v-59.29s1.13-14.76,11.07-15.64"/>
        <path class="st18" d="M93.67,106.85c0,3.67.04,25.84.04,25.84v.61s2.39,0,2.39,0v4.41h5.34l.07,34.97,10.65-6.08v-61.74s1.13-14.76,11.07-15.64c0,0-12.14.43-20.43,4.37-7.8,3.71-9.12,9.61-9.12,13.26"/>
        <rect class="st12" x="177.16" y="194.45" width="4.33" height="4.33"/>
        <rect class="st12" x="182.71" y="194.45" width="4.33" height="4.33"/>
        <rect class="st12" x="177.16" y="200.01" width="4.33" height="4.33"/>
        <rect class="st12" x="182.71" y="200.01" width="4.33" height="4.33"/>
        <polygon class="st12" points="71.71 204.4 48.2 187.87 28.85 200.56 48.48 185.34 51.06 186.96 63.78 179.2 94.33 179.2 140.64 151.42 153.89 159.72 155.05 158.56 225.1 203.71 180.82 179.47 126.14 204.43 71.71 204.4"/>
        <polyline class="st12" points="46.82 194.5 46.82 198.83 42.49 198.83 42.49 194.5"/>
        <polyline class="st12" points="52.37 194.5 52.37 198.83 48.04 198.83 48.04 194.5"/>
        <polyline class="st12" points="42.49 204.4 42.49 200.07 46.82 200.07 46.82 204.4"/>
        <polyline class="st12" points="48.04 204.4 48.04 200.07 52.37 200.07 52.37 204.4"/>
      </g>
      <g class="st16">
        <path class="st20" d="M122.05,282.8c-.06.1-.13.17-.2.22-.07.05-.16.07-.26.07-.1,0-.2-.03-.31-.09-.11-.06-.23-.13-.37-.2-.14-.07-.3-.14-.48-.2-.18-.06-.38-.09-.61-.09-.39,0-.69.08-.88.25-.19.17-.29.39-.29.68,0,.18.06.33.17.45.12.12.27.22.46.31.19.09.4.17.65.24.24.07.49.15.74.24.25.09.5.19.74.32.24.12.46.27.65.46.19.19.34.41.46.68.12.27.17.59.17.97,0,.42-.07.81-.22,1.18-.15.37-.36.68-.63.96-.28.27-.62.49-1.02.64-.4.16-.86.23-1.38.23-.28,0-.57-.03-.86-.09s-.58-.14-.85-.25c-.28-.1-.53-.23-.77-.38-.24-.14-.45-.31-.63-.49l.62-.98c.05-.07.11-.13.2-.18.08-.05.17-.07.26-.07.12,0,.25.04.38.12.13.08.27.17.43.26.16.1.34.18.55.26.21.08.45.12.73.12.38,0,.68-.08.89-.25.21-.17.32-.43.32-.8,0-.21-.06-.38-.18-.52-.12-.13-.27-.24-.46-.33-.19-.09-.4-.16-.64-.23-.24-.07-.49-.14-.74-.22-.25-.08-.5-.18-.74-.3-.24-.12-.46-.27-.64-.47-.19-.19-.34-.43-.46-.72-.12-.29-.17-.65-.17-1.07,0-.34.07-.67.21-1,.14-.32.34-.61.6-.86.27-.25.59-.46.98-.61s.83-.23,1.33-.23c.28,0,.55.02.81.06.26.04.51.11.75.19s.46.19.66.31c.21.12.39.25.55.4l-.52.98Z"/>
        <path class="st20" d="M123.46,289.05c0-.15.03-.29.08-.42.06-.13.13-.24.23-.34s.21-.17.35-.23.28-.08.44-.08.3.03.43.08c.13.06.25.13.35.23.1.1.18.21.23.34.06.13.08.27.08.42s-.03.29-.08.42c-.06.13-.13.24-.23.34-.1.1-.22.17-.35.22-.13.05-.28.08-.43.08s-.3-.03-.44-.08-.25-.13-.35-.22-.17-.21-.23-.34c-.06-.13-.08-.27-.08-.42"/>
        <polygon class="st20" points="132.66 282.62 130.11 282.62 130.11 290.03 128 290.03 128 282.62 125.45 282.62 125.45 280.95 132.66 280.95 132.66 282.62"/>
        <path class="st20" d="M132.46,289.05c0-.15.03-.29.08-.42.06-.13.13-.24.23-.34s.21-.17.35-.23c.13-.06.28-.08.44-.08s.3.03.43.08c.13.06.25.13.35.23.1.1.18.21.23.34.06.13.08.27.08.42s-.03.29-.08.42c-.06.13-.13.24-.23.34-.1.1-.22.17-.35.22-.13.05-.28.08-.43.08s-.3-.03-.44-.08c-.13-.05-.25-.13-.35-.22s-.17-.21-.23-.34c-.06-.13-.08-.27-.08-.42"/>
        <path class="st20" d="M142,280.95c.64,0,1.19.08,1.65.23.46.15.84.36,1.13.63.3.27.52.58.66.94.14.36.21.75.21,1.17,0,.45-.07.87-.22,1.25-.15.38-.37.7-.67.97-.3.27-.68.48-1.14.63-.46.15-1,.23-1.63.23h-1.1v3.03h-2.1v-9.07h3.2ZM142,285.41c.55,0,.94-.13,1.18-.39.24-.26.36-.63.36-1.1,0-.21-.03-.4-.09-.57-.06-.17-.16-.32-.28-.44-.13-.12-.29-.22-.48-.28-.19-.07-.42-.1-.69-.1h-1.1v2.88h1.1Z"/>
        <path class="st20" d="M154.14,290.03h-1.91c-.35,0-.61-.13-.76-.4l-1.51-2.63c-.07-.11-.15-.19-.24-.25-.09-.05-.21-.08-.37-.08h-.54v3.36h-2.11v-9.07h2.95c.66,0,1.21.07,1.68.2.46.14.84.32,1.13.56.29.24.51.52.64.85.13.33.2.68.2,1.07,0,.29-.04.57-.12.83-.08.26-.2.5-.35.72-.15.22-.34.42-.57.59-.23.17-.49.32-.78.43.14.07.27.16.39.26.12.11.23.23.32.38l1.93,3.16ZM149.67,285.22c.29,0,.53-.04.73-.11.2-.07.37-.17.49-.3.13-.13.22-.28.28-.45.06-.17.09-.36.09-.56,0-.4-.13-.71-.39-.93-.26-.22-.66-.34-1.2-.34h-.85v2.69h.85Z"/>
        <path class="st20" d="M163.65,285.49c0,.66-.11,1.27-.34,1.83-.23.57-.54,1.06-.96,1.47s-.91.74-1.49.98c-.58.24-1.22.35-1.93.35s-1.35-.12-1.93-.35c-.58-.24-1.08-.56-1.49-.98s-.73-.91-.96-1.47c-.23-.56-.34-1.17-.34-1.83s.11-1.27.34-1.83c.23-.56.55-1.05.96-1.47.41-.41.91-.74,1.49-.98.58-.24,1.23-.35,1.93-.35s1.35.12,1.93.36c.58.24,1.07.57,1.49.98s.73.9.96,1.47c.23.57.34,1.17.34,1.82M161.49,285.49c0-.45-.06-.85-.17-1.21-.12-.36-.28-.66-.5-.91-.22-.25-.49-.44-.8-.57-.32-.13-.67-.2-1.08-.2s-.77.07-1.09.2c-.32.13-.59.32-.8.57-.22.25-.38.55-.5.91-.12.36-.17.76-.17,1.21s.06.86.17,1.22c.12.36.28.66.5.91s.49.44.8.57c.32.13.68.2,1.09.2s.76-.07,1.08-.2c.32-.13.58-.32.8-.57s.39-.55.5-.91c.12-.36.17-.76.17-1.22"/>
        <path class="st20" d="M168.09,280.95c.64,0,1.19.08,1.65.23.46.15.84.36,1.13.63.3.27.52.58.66.94.14.36.21.75.21,1.17,0,.45-.07.87-.22,1.25-.15.38-.37.7-.67.97-.3.27-.68.48-1.14.63-.46.15-1,.23-1.63.23h-1.1v3.03h-2.1v-9.07h3.2ZM168.09,285.41c.55,0,.94-.13,1.18-.39.24-.26.36-.63.36-1.1,0-.21-.03-.4-.09-.57-.06-.17-.16-.32-.28-.44-.13-.12-.29-.22-.48-.28-.19-.07-.42-.1-.69-.1h-1.1v2.88h1.1Z"/>
        <polygon class="st20" points="174.92 282.57 174.92 284.69 177.78 284.69 177.78 286.25 174.92 286.25 174.92 288.41 178.65 288.41 178.65 290.03 172.81 290.03 172.81 280.95 178.65 280.95 178.65 282.57 174.92 282.57"/>
        <path class="st20" d="M187.37,290.03h-1.9c-.35,0-.61-.13-.76-.4l-1.51-2.63c-.07-.11-.15-.19-.24-.25-.09-.05-.21-.08-.37-.08h-.54v3.36h-2.11v-9.07h2.95c.66,0,1.21.07,1.68.2.46.14.84.32,1.13.56.29.24.51.52.64.85.13.33.2.68.2,1.07,0,.29-.04.57-.12.83-.08.26-.2.5-.35.72-.15.22-.34.42-.57.59-.23.17-.49.32-.78.43.14.07.27.16.39.26.12.11.23.23.32.38l1.93,3.16ZM182.89,285.22c.29,0,.53-.04.73-.11.2-.07.37-.17.49-.3.13-.13.22-.28.28-.45.06-.17.09-.36.09-.56,0-.4-.13-.71-.39-.93-.26-.22-.66-.34-1.2-.34h-.85v2.69h.85Z"/>
        <polygon class="st20" points="194.47 282.62 191.92 282.62 191.92 290.03 189.81 290.03 189.81 282.62 187.26 282.62 187.26 280.95 194.47 280.95 194.47 282.62"/>
        <rect class="st20" x="195.53" y="280.96" width="2.12" height="9.07"/>
        <polygon class="st20" points="201.52 282.57 201.52 284.69 204.38 284.69 204.38 286.25 201.52 286.25 201.52 288.41 205.25 288.41 205.25 290.03 199.41 290.03 199.41 280.95 205.25 280.95 205.25 282.57 201.52 282.57"/>
        <path class="st20" d="M211.55,282.8c-.06.1-.13.17-.2.22-.07.05-.16.07-.26.07-.1,0-.2-.03-.31-.09-.11-.06-.23-.13-.37-.2-.14-.07-.3-.14-.48-.2-.18-.06-.38-.09-.61-.09-.39,0-.69.08-.88.25-.19.17-.29.39-.29.68,0,.18.06.33.17.45.12.12.27.22.46.31.19.09.4.17.65.24.24.07.49.15.74.24.25.09.5.19.74.32.24.12.46.27.65.46.19.19.34.41.46.68.12.27.17.59.17.97,0,.42-.07.81-.22,1.18-.15.37-.36.68-.63.96-.28.27-.62.49-1.02.64-.4.16-.87.23-1.38.23-.28,0-.57-.03-.86-.09-.29-.06-.58-.14-.85-.25-.27-.1-.53-.23-.77-.38s-.45-.31-.63-.49l.62-.98c.05-.07.11-.13.2-.18.08-.05.17-.07.26-.07.12,0,.25.04.38.12.13.08.27.17.43.26.16.1.34.18.55.26.21.08.45.12.74.12.38,0,.68-.08.89-.25.21-.17.32-.43.32-.8,0-.21-.06-.38-.18-.52-.12-.13-.27-.24-.46-.33-.19-.09-.4-.16-.65-.23-.24-.07-.49-.14-.74-.22-.25-.08-.5-.18-.74-.3-.24-.12-.46-.27-.64-.47-.19-.19-.34-.43-.46-.72-.12-.29-.17-.65-.17-1.07,0-.34.07-.67.21-1,.14-.32.34-.61.6-.86.27-.25.59-.46.98-.61s.83-.23,1.33-.23c.28,0,.55.02.81.06.26.04.51.11.75.19.24.08.46.19.66.31.21.12.39.25.55.4l-.52.98Z"/>
        <path class="st5" d="M120.6,299.2h-.65c-.13,0-.22-.05-.28-.15l-1.21-1.7c-.04-.06-.08-.1-.13-.12-.05-.02-.11-.04-.2-.04h-.47v2.01h-.73v-4.9h1.41c.32,0,.59.03.82.1.23.07.42.16.57.28.15.12.26.26.33.43.07.17.11.36.11.57,0,.17-.03.33-.08.48-.05.15-.13.28-.23.4-.1.12-.22.22-.37.31-.15.09-.31.15-.5.2.09.05.17.13.24.23l1.38,1.91ZM118.31,296.66c.19,0,.35-.02.49-.07.14-.05.26-.11.36-.19.1-.08.17-.18.22-.3.05-.11.07-.24.07-.38,0-.28-.09-.5-.28-.64-.18-.14-.46-.21-.83-.21h-.69v1.79h.66Z"/>
        <polygon class="st5" points="124.26 298.61 124.26 299.2 121.22 299.2 121.22 294.3 124.26 294.3 124.26 294.89 121.95 294.89 121.95 296.44 123.81 296.44 123.81 297.01 121.95 297.01 121.95 298.61 124.26 298.61"/>
        <path class="st5" d="M127.7,295.1s-.05.07-.07.09c-.02.02-.06.03-.1.03-.04,0-.09-.02-.14-.06-.05-.04-.12-.08-.2-.13-.08-.05-.17-.09-.28-.13-.11-.04-.24-.06-.39-.06-.14,0-.27.02-.38.06-.11.04-.2.09-.27.15-.07.07-.13.14-.17.23-.04.09-.06.18-.06.28,0,.13.03.24.1.33.07.09.16.16.26.22.11.06.23.11.37.16.14.05.28.09.43.14.15.05.29.1.43.17.14.06.26.14.37.24.11.1.2.21.26.35.07.14.1.31.1.51,0,.22-.04.42-.11.61-.07.19-.18.35-.32.49-.14.14-.31.25-.52.33-.21.08-.44.12-.7.12-.16,0-.31-.01-.46-.05-.15-.03-.29-.07-.42-.13-.13-.06-.26-.12-.37-.2-.12-.08-.22-.17-.31-.26l.21-.35s.04-.05.07-.07c.03-.02.06-.03.1-.03.05,0,.1.02.17.07.06.05.14.11.23.17.09.06.2.11.33.17.13.05.29.07.47.07.15,0,.28-.02.4-.06.12-.04.22-.1.3-.17.08-.07.14-.16.19-.27.04-.1.06-.22.06-.35,0-.14-.03-.26-.1-.35-.07-.09-.15-.17-.26-.23-.11-.06-.23-.11-.37-.16-.14-.04-.28-.09-.43-.13-.15-.05-.29-.1-.43-.16-.14-.06-.26-.14-.37-.24-.11-.1-.2-.22-.26-.37-.07-.15-.1-.33-.1-.55,0-.18.03-.34.1-.51.07-.16.17-.31.3-.43.13-.13.29-.23.48-.3.19-.08.41-.11.65-.11.28,0,.53.04.76.13.23.09.43.21.6.38l-.18.34Z"/>
        <rect class="st5" x="128.87" y="294.3" width=".73" height="4.9"/>
        <path class="st5" d="M135.09,296.75c0,.37-.06.7-.18,1-.12.3-.28.56-.5.77-.21.22-.47.38-.77.5-.3.12-.63.18-.99.18h-1.84v-4.9h1.84c.36,0,.7.06.99.18.3.12.55.28.77.5.21.21.38.47.5.77.12.3.18.63.18,1M134.34,296.75c0-.29-.04-.55-.12-.78-.08-.23-.19-.43-.34-.59-.15-.16-.32-.28-.53-.37-.21-.08-.44-.13-.7-.13h-1.11v3.73h1.11c.26,0,.49-.04.7-.13.21-.08.39-.21.53-.37.15-.16.26-.35.34-.58.08-.23.12-.49.12-.79"/>
        <polygon class="st5" points="139.04 298.61 139.04 299.2 136 299.2 136 294.3 139.04 294.3 139.04 294.89 136.73 294.89 136.73 296.44 138.59 296.44 138.59 297.01 136.73 297.01 136.73 298.61 139.04 298.61"/>
        <path class="st5" d="M143.95,294.3v4.9h-.37c-.06,0-.1-.01-.14-.03-.04-.02-.08-.05-.11-.1l-2.77-3.58c0,.06,0,.12.01.18,0,.06,0,.12,0,.17v3.36h-.64v-4.9h.38c.06,0,.11,0,.14.02s.07.05.11.1l2.77,3.58c0-.07-.01-.13-.01-.19,0-.06,0-.12,0-.17v-3.34h.64Z"/>
        <polygon class="st5" points="148.5 294.91 146.94 294.91 146.94 299.2 146.22 299.2 146.22 294.91 144.66 294.91 144.66 294.3 148.5 294.3 148.5 294.91"/>
        <rect class="st5" x="149.21" y="294.3" width=".73" height="4.9"/>
        <path class="st5" d="M155.18,299.2h-.56c-.06,0-.12-.02-.16-.05-.04-.03-.07-.07-.09-.12l-.43-1.14h-2.16l-.43,1.14s-.05.08-.09.12c-.04.03-.1.05-.16.05h-.56l1.95-4.9h.73l1.95,4.9ZM153.75,297.38l-.73-1.9c-.05-.13-.1-.29-.16-.49-.03.1-.05.19-.08.27-.03.08-.05.16-.08.22l-.72,1.89h1.76Z"/>
        <polygon class="st5" points="158.6 298.59 158.6 299.2 155.79 299.2 155.79 294.3 156.52 294.3 156.52 298.59 158.6 298.59"/>
        <path class="st5" d="M165.05,299.2h-.65c-.07,0-.13,0-.17-.03-.04-.02-.09-.05-.14-.11l-.45-.46c-.21.2-.46.36-.74.47-.28.11-.58.17-.91.17-.18,0-.36-.03-.54-.09-.18-.06-.33-.15-.47-.27-.14-.12-.25-.26-.34-.43-.09-.17-.13-.36-.13-.57,0-.16.03-.31.08-.45s.12-.27.22-.39c.09-.12.2-.23.33-.32.13-.09.27-.18.42-.24-.13-.18-.23-.35-.29-.51-.06-.17-.09-.33-.09-.51s.03-.32.09-.47c.06-.15.15-.28.26-.39.11-.11.25-.2.42-.26.16-.06.35-.1.56-.1.18,0,.35.03.5.09.15.06.28.14.39.23.11.1.2.21.26.34.06.13.1.26.11.4l-.42.08c-.08.02-.15-.02-.18-.11-.02-.06-.04-.12-.08-.18-.03-.06-.08-.12-.13-.17-.05-.05-.12-.09-.19-.12-.07-.03-.16-.05-.26-.05-.11,0-.21.02-.29.05-.09.04-.16.09-.22.15-.06.06-.11.14-.14.22-.03.08-.05.17-.05.27,0,.07,0,.15.03.22.02.07.05.14.08.21.04.07.09.14.14.22.06.07.13.15.21.24l1.38,1.42c.08-.15.15-.31.2-.47.05-.17.08-.33.1-.5,0-.04.02-.08.04-.11.02-.03.06-.04.1-.04h.41c0,.27-.04.54-.13.8-.08.26-.2.5-.35.72l1.02,1.05ZM161.86,296.82c-.23.12-.39.28-.5.45-.11.17-.17.36-.17.56,0,.14.03.27.08.38.05.11.12.2.21.28.09.08.18.13.29.17.11.04.22.06.34.06.24,0,.46-.04.65-.13.19-.09.37-.2.52-.34l-1.41-1.42Z"/>
        <path class="st5" d="M170.85,298.15s.08.02.11.05l.29.31c-.2.24-.44.42-.73.55-.29.13-.63.19-1.04.19-.35,0-.68-.06-.96-.18-.29-.12-.53-.29-.74-.51-.2-.22-.36-.48-.47-.79-.11-.31-.17-.65-.17-1.01s.06-.71.18-1.01c.12-.31.28-.57.49-.79.21-.22.46-.39.76-.52.29-.12.62-.18.98-.18s.66.06.93.17c.27.11.51.26.71.45l-.24.34s-.04.04-.06.06-.05.02-.09.02c-.04,0-.09-.02-.15-.06-.06-.04-.13-.09-.23-.14-.09-.05-.21-.1-.35-.15-.14-.04-.31-.06-.52-.06-.24,0-.47.04-.67.13-.2.08-.38.21-.52.37-.15.16-.26.36-.34.59-.08.23-.12.5-.12.79s.04.56.13.79.2.43.35.59c.15.16.32.28.52.37.2.08.42.13.65.13.14,0,.27,0,.38-.03.11-.02.22-.04.31-.08.09-.03.18-.08.27-.13.08-.05.17-.12.25-.19.02-.02.04-.03.06-.04.02-.01.04-.02.07-.02"/>
        <path class="st5" d="M176.44,296.75c0,.37-.06.7-.18,1.01s-.28.57-.5.79c-.21.22-.47.39-.77.52-.3.12-.63.18-.99.18s-.69-.06-.99-.18c-.3-.12-.55-.3-.77-.52-.21-.22-.38-.49-.5-.79-.12-.31-.18-.64-.18-1.01s.06-.7.18-1.01c.12-.31.28-.57.5-.79.21-.22.47-.39.77-.52s.63-.19.99-.19.7.06.99.19c.3.12.55.3.77.52.21.22.38.49.5.79s.18.64.18,1.01M175.7,296.75c0-.29-.04-.55-.12-.78-.08-.23-.19-.43-.34-.59-.15-.16-.32-.28-.53-.37-.21-.09-.44-.13-.7-.13s-.49.04-.7.13c-.21.09-.39.21-.53.37-.15.16-.26.36-.34.59-.08.23-.12.49-.12.78s.04.56.12.79c.08.23.19.43.34.59.15.16.33.29.53.37.21.08.44.13.7.13s.49-.04.7-.13c.21-.08.39-.21.53-.37.15-.16.26-.36.34-.59.08-.23.12-.49.12-.79"/>
        <path class="st5" d="M182.51,294.3v4.9h-.64v-3.49c0-.05,0-.11,0-.17,0-.06,0-.12.01-.18l-1.63,2.99c-.06.11-.15.17-.26.17h-.1c-.12,0-.21-.06-.26-.17l-1.66-3c.01.13.02.25.02.36v3.49h-.64v-4.9h.54c.06,0,.11,0,.15.02s.07.05.1.1l1.64,2.93c.03.06.06.12.09.19.03.07.05.13.08.2.05-.13.1-.26.17-.39l1.61-2.93c.03-.06.06-.09.1-.1.04-.01.08-.02.15-.02h.54Z"/>
        <path class="st5" d="M188.87,294.3v4.9h-.64v-3.49c0-.05,0-.11,0-.17,0-.06,0-.12.01-.18l-1.63,2.99c-.06.11-.14.17-.26.17h-.1c-.12,0-.21-.06-.26-.17l-1.66-3c.01.13.02.25.02.36v3.49h-.64v-4.9h.54c.06,0,.11,0,.15.02.04.01.07.05.1.1l1.64,2.93c.03.06.06.12.09.19.03.07.05.13.08.2.05-.13.1-.26.17-.39l1.61-2.93c.03-.06.06-.09.1-.1.04-.01.08-.02.15-.02h.54Z"/>
        <polygon class="st5" points="193.12 298.61 193.12 299.2 190.08 299.2 190.08 294.3 193.12 294.3 193.12 294.89 190.81 294.89 190.81 296.44 192.66 296.44 192.66 297.01 190.81 297.01 190.81 298.61 193.12 298.61"/>
        <path class="st5" d="M197.69,299.2h-.65c-.13,0-.22-.05-.28-.15l-1.21-1.7c-.04-.06-.08-.1-.13-.12-.05-.02-.11-.04-.21-.04h-.47v2.01h-.73v-4.9h1.41c.32,0,.59.03.82.1.23.07.42.16.57.28.15.12.26.26.33.43.07.17.11.36.11.57,0,.17-.03.33-.08.48-.05.15-.13.28-.23.4-.1.12-.22.22-.37.31-.15.09-.31.15-.49.2.09.05.17.13.24.23l1.38,1.91ZM195.4,296.66c.19,0,.35-.02.49-.07.14-.05.26-.11.36-.19.1-.08.17-.18.21-.3.05-.11.07-.24.07-.38,0-.28-.09-.5-.28-.64-.19-.14-.46-.21-.83-.21h-.69v1.79h.66Z"/>
        <path class="st5" d="M201.68,298.15s.08.02.1.05l.29.31c-.2.24-.44.42-.73.55-.29.13-.63.19-1.04.19-.35,0-.68-.06-.96-.18-.29-.12-.53-.29-.74-.51s-.36-.48-.47-.79c-.11-.31-.17-.65-.17-1.01s.06-.71.18-1.01c.12-.31.28-.57.49-.79.21-.22.46-.39.76-.52.29-.12.62-.18.98-.18s.66.06.93.17c.27.11.51.26.71.45l-.24.34s-.04.04-.06.06-.06.02-.09.02c-.04,0-.09-.02-.15-.06-.06-.04-.13-.09-.23-.14-.09-.05-.21-.1-.35-.15-.14-.04-.31-.06-.52-.06-.24,0-.47.04-.67.13-.2.08-.38.21-.52.37-.15.16-.26.36-.34.59-.08.23-.12.5-.12.79s.04.56.13.79c.08.23.2.43.35.59.15.16.32.28.52.37s.42.13.65.13c.14,0,.27,0,.38-.03.11-.02.22-.04.31-.08.1-.03.18-.08.27-.13.08-.05.17-.12.25-.19.02-.02.04-.03.06-.04.02-.01.04-.02.07-.02"/>
        <rect class="st5" x="202.81" y="294.3" width=".73" height="4.9"/>
        <path class="st5" d="M208.79,299.2h-.56c-.06,0-.12-.02-.16-.05-.04-.03-.07-.07-.09-.12l-.43-1.14h-2.16l-.43,1.14s-.04.08-.09.12c-.04.03-.1.05-.16.05h-.56l1.95-4.9h.73l1.95,4.9ZM207.35,297.38l-.73-1.9c-.05-.13-.1-.29-.16-.49-.02.1-.05.19-.08.27s-.05.16-.08.22l-.72,1.89h1.76Z"/>
        <polygon class="st5" points="212.2 298.59 212.2 299.2 209.4 299.2 209.4 294.3 210.12 294.3 210.12 298.59 212.2 298.59"/>
        <polygon class="st5" points="95.79 286.02 95.35 286.03 95.35 287.43 97.32 288.71 99.03 289.81 99.03 286.07 95.79 286.02"/>
        <path class="st18" d="M102.58,292.1v-9.25s-2.28-.44-3.93,0c-1.66.44-2.71,1.3-2.71,1.3v1.53l3.54.02-.05,4.37,3.16,2.04Z"/>
        <path class="st5" d="M95.83,283.78l-.51-.68c.05-.04,1.27-1,3.19-1.51,1.92-.5,4.49-.02,4.6,0l-.49.84s-2.18-.42-4.01.06c-1.83.48-2.78,1.28-2.79,1.29"/>
        <polyline class="st18" points="87.09 284.57 87.11 274.65 87.51 274.5 87.51 272.58 89.54 271.8 89.54 284.41 88.44 283.72 87.09 284.56"/>
        <g class="st0">
          <g class="st4">
            <g class="st14">
              <polygon class="st6" points="90.01 271.8 90.01 284.71 92.15 286.05 92.47 285.72 94.72 287.18 94.72 272.99 94.16 272.99 94.16 271.8 90.01 271.8"/>
            </g>
          </g>
        </g>
        <polygon class="st5" points="69.61 279.82 69.61 291.5 66.91 291.5 66.91 282.04 68.52 281.18 68.52 280.37 69.61 279.82"/>
        <g class="st0">
          <g class="st1">
            <g class="st2">
              <polygon class="st6" points="70.15 279.82 75.42 279.82 75.42 281.04 76.91 281.05 76.91 290.57 75.46 291.5 70.15 291.5 70.15 279.82"/>
            </g>
          </g>
        </g>
        <g class="st0">
          <g class="st15">
            <g class="st7">
              <path class="st6" d="M84.1,267.26h0l-.02,1.79s.79.07,1.73.98c.74.72.68,2.17.68,2.17v12.54l-5.49,3.51v-16.61s.32-4.13,3.1-4.38"/>
            </g>
          </g>
        </g>
        <path class="st18" d="M75.28,271.87c0,1.03.01,7.24.01,7.24v.17s.67,0,.67,0v1.24h1.49l.02,9.8,2.98-1.7v-17.29s.32-4.13,3.1-4.38c0,0-3.4.12-5.72,1.22-2.18,1.04-2.56,2.69-2.56,3.71"/>
        <rect class="st18" x="98.67" y="296.41" width="1.21" height="1.21"/>
        <rect class="st18" x="100.22" y="296.41" width="1.21" height="1.21"/>
        <rect class="st18" x="98.67" y="297.97" width="1.21" height="1.21"/>
        <rect class="st18" x="100.22" y="297.97" width="1.21" height="1.21"/>
        <polygon class="st20" points="69.13 299.2 62.54 294.56 57.12 298.12 62.62 293.86 63.34 294.31 66.91 292.14 75.46 292.14 88.44 284.36 92.15 286.68 92.47 286.36 112.1 299 99.69 292.21 84.38 299.21 69.13 299.2"/>
        <polyline class="st18" points="62.15 296.42 62.15 297.64 60.94 297.64 60.94 296.42"/>
        <polyline class="st18" points="63.71 296.42 63.71 297.64 62.5 297.64 62.5 296.42"/>
        <polyline class="st18" points="60.94 299.2 60.94 297.98 62.15 297.98 62.15 299.2"/>
        <polyline class="st18" points="62.5 299.2 62.5 297.98 63.71 297.98 63.71 299.2"/>
      </g>
      <g class="st8">
        <path class="st5" d="M304.71,282.8c-.06.1-.13.17-.2.22-.07.05-.16.07-.27.07-.1,0-.2-.03-.31-.09-.11-.06-.23-.13-.37-.2-.14-.07-.3-.14-.48-.2-.18-.06-.38-.09-.61-.09-.39,0-.69.08-.88.25s-.29.39-.29.68c0,.18.06.33.17.45.12.12.27.22.46.31.19.09.4.17.65.24.24.07.49.15.74.24.25.09.5.19.74.32.24.12.46.27.65.46.19.19.34.41.46.68.12.27.17.59.17.97,0,.42-.07.81-.22,1.18-.15.37-.36.68-.63.96-.28.27-.62.49-1.02.64-.4.16-.86.23-1.38.23-.28,0-.57-.03-.86-.09s-.58-.14-.85-.25c-.27-.1-.53-.23-.77-.38s-.45-.31-.63-.49l.62-.98c.05-.07.11-.13.2-.18.08-.05.17-.07.26-.07.12,0,.25.04.38.12.13.08.27.17.43.26.16.1.34.18.55.26.21.08.45.12.73.12.38,0,.68-.08.89-.25s.32-.43.32-.8c0-.21-.06-.38-.18-.52-.12-.13-.27-.24-.46-.33-.19-.09-.4-.16-.64-.23-.24-.07-.49-.14-.74-.22-.25-.08-.5-.18-.74-.3-.24-.12-.46-.27-.64-.47-.19-.19-.34-.43-.46-.72-.12-.29-.17-.65-.17-1.07,0-.34.07-.67.2-1,.14-.32.34-.61.6-.86.27-.25.59-.46.98-.61.39-.15.83-.23,1.33-.23.28,0,.55.02.81.06.26.04.51.11.75.19s.46.19.66.31c.21.12.39.25.55.4l-.52.98Z"/>
        <path class="st5" d="M306.11,289.05c0-.15.03-.29.08-.42.06-.13.13-.24.23-.34.1-.1.21-.17.35-.23.13-.06.28-.08.44-.08s.3.03.43.08c.13.06.25.13.35.23s.18.21.23.34c.06.13.08.27.08.42s-.03.29-.08.42c-.06.13-.13.24-.23.34s-.22.17-.35.22c-.13.05-.28.08-.43.08s-.3-.03-.44-.08c-.13-.05-.25-.13-.35-.22-.1-.1-.17-.21-.23-.34-.06-.13-.08-.27-.08-.42"/>
        <polygon class="st5" points="315.32 282.62 312.76 282.62 312.76 290.03 310.66 290.03 310.66 282.62 308.1 282.62 308.1 280.95 315.32 280.95 315.32 282.62"/>
        <path class="st5" d="M315.12,289.05c0-.15.03-.29.08-.42.06-.13.13-.24.23-.34.1-.1.21-.17.35-.23.13-.06.28-.08.44-.08s.3.03.43.08c.13.06.25.13.35.23.1.1.18.21.23.34.06.13.08.27.08.42s-.03.29-.08.42c-.06.13-.13.24-.23.34-.1.1-.22.17-.35.22-.13.05-.28.08-.43.08s-.3-.03-.44-.08c-.13-.05-.25-.13-.35-.22-.1-.1-.17-.21-.23-.34-.06-.13-.08-.27-.08-.42"/>
        <path class="st5" d="M324.65,280.95c.64,0,1.19.08,1.65.23.46.15.84.36,1.13.63.3.27.52.58.66.94.14.36.21.75.21,1.17,0,.45-.07.87-.22,1.25-.15.38-.37.7-.67.97-.3.27-.68.48-1.14.63-.46.15-1,.23-1.63.23h-1.1v3.03h-2.1v-9.07h3.2ZM324.65,285.41c.55,0,.94-.13,1.18-.39.24-.26.36-.63.36-1.1,0-.21-.03-.4-.09-.57-.06-.17-.16-.32-.28-.44-.13-.12-.29-.22-.48-.28-.19-.07-.42-.1-.69-.1h-1.1v2.88h1.1Z"/>
        <path class="st5" d="M336.8,290.03h-1.91c-.35,0-.61-.13-.76-.4l-1.51-2.63c-.07-.11-.15-.19-.24-.25-.09-.05-.21-.08-.37-.08h-.54v3.36h-2.11v-9.07h2.95c.66,0,1.21.07,1.68.2.46.14.84.32,1.13.56.29.24.51.52.64.85.13.33.2.68.2,1.07,0,.29-.04.57-.12.83-.08.26-.2.5-.35.72-.15.22-.34.42-.57.59-.23.17-.49.32-.78.43.14.07.27.16.39.26.12.11.23.23.32.38l1.93,3.16ZM332.33,285.22c.29,0,.53-.04.73-.11.2-.07.37-.17.49-.3.13-.13.22-.28.28-.45.06-.17.09-.36.09-.56,0-.4-.13-.71-.39-.93-.26-.22-.66-.34-1.2-.34h-.85v2.69h.85Z"/>
        <path class="st5" d="M346.3,285.49c0,.66-.11,1.27-.34,1.83-.23.57-.54,1.06-.96,1.47-.41.42-.91.74-1.48.98-.58.24-1.22.35-1.93.35s-1.35-.12-1.93-.35c-.58-.24-1.08-.56-1.49-.98s-.73-.91-.96-1.47c-.23-.56-.34-1.17-.34-1.83s.11-1.27.34-1.83c.23-.56.55-1.05.96-1.47.41-.41.91-.74,1.49-.98.58-.24,1.23-.35,1.93-.35s1.35.12,1.93.36c.58.24,1.07.57,1.48.98.41.42.73.9.96,1.47.23.57.34,1.17.34,1.82M344.15,285.49c0-.45-.06-.85-.17-1.21-.12-.36-.28-.66-.5-.91-.22-.25-.48-.44-.8-.57-.32-.13-.67-.2-1.08-.2s-.77.07-1.09.2c-.32.13-.59.32-.8.57-.22.25-.38.55-.5.91-.12.36-.17.76-.17,1.21s.06.86.17,1.22c.12.36.28.66.5.91.22.25.49.44.8.57.32.13.68.2,1.09.2s.76-.07,1.08-.2c.32-.13.58-.32.8-.57.22-.25.39-.55.5-.91.11-.36.17-.76.17-1.22"/>
        <path class="st5" d="M350.74,280.95c.64,0,1.19.08,1.65.23.46.15.84.36,1.13.63.3.27.52.58.66.94.14.36.21.75.21,1.17,0,.45-.07.87-.22,1.25-.15.38-.37.7-.67.97-.3.27-.68.48-1.14.63-.46.15-1,.23-1.63.23h-1.1v3.03h-2.1v-9.07h3.2ZM350.74,285.41c.55,0,.94-.13,1.18-.39.24-.26.36-.63.36-1.1,0-.21-.03-.4-.09-.57-.06-.17-.16-.32-.28-.44-.13-.12-.29-.22-.48-.28-.19-.07-.42-.1-.69-.1h-1.1v2.88h1.1Z"/>
        <polygon class="st5" points="357.58 282.57 357.58 284.69 360.43 284.69 360.43 286.25 357.58 286.25 357.58 288.41 361.3 288.41 361.3 290.03 355.46 290.03 355.46 280.95 361.3 280.95 361.3 282.57 357.58 282.57"/>
        <path class="st5" d="M370.02,290.03h-1.9c-.35,0-.61-.13-.76-.4l-1.51-2.63c-.07-.11-.15-.19-.24-.25-.09-.05-.21-.08-.37-.08h-.54v3.36h-2.11v-9.07h2.95c.66,0,1.21.07,1.68.2.46.14.84.32,1.13.56.29.24.51.52.64.85.13.33.2.68.2,1.07,0,.29-.04.57-.12.83-.08.26-.2.5-.35.72-.15.22-.34.42-.57.59-.23.17-.49.32-.78.43.14.07.27.16.39.26.12.11.23.23.32.38l1.93,3.16ZM365.55,285.22c.29,0,.53-.04.73-.11.2-.07.37-.17.49-.3.13-.13.22-.28.28-.45.06-.17.09-.36.09-.56,0-.4-.13-.71-.39-.93-.26-.22-.66-.34-1.2-.34h-.85v2.69h.85Z"/>
        <polygon class="st5" points="377.13 282.62 374.57 282.62 374.57 290.03 372.47 290.03 372.47 282.62 369.91 282.62 369.91 280.95 377.13 280.95 377.13 282.62"/>
        <rect class="st5" x="378.19" y="280.96" width="2.12" height="9.07"/>
        <polygon class="st5" points="384.18 282.57 384.18 284.69 387.03 284.69 387.03 286.25 384.18 286.25 384.18 288.41 387.9 288.41 387.9 290.03 382.06 290.03 382.06 280.95 387.9 280.95 387.9 282.57 384.18 282.57"/>
        <path class="st5" d="M394.21,282.8c-.06.1-.13.17-.2.22-.07.05-.16.07-.26.07-.1,0-.2-.03-.31-.09-.11-.06-.23-.13-.37-.2-.14-.07-.3-.14-.48-.2-.18-.06-.38-.09-.61-.09-.39,0-.69.08-.88.25-.19.17-.29.39-.29.68,0,.18.06.33.17.45.12.12.27.22.46.31.19.09.4.17.65.24.24.07.49.15.74.24.25.09.5.19.74.32.24.12.46.27.65.46.19.19.34.41.46.68.12.27.17.59.17.97,0,.42-.07.81-.22,1.18-.15.37-.36.68-.63.96-.28.27-.62.49-1.02.64-.4.16-.86.23-1.38.23-.28,0-.57-.03-.86-.09-.29-.06-.58-.14-.85-.25-.27-.1-.53-.23-.77-.38s-.45-.31-.63-.49l.62-.98c.05-.07.11-.13.2-.18.08-.05.17-.07.26-.07.12,0,.25.04.38.12.13.08.27.17.43.26.16.1.34.18.55.26.21.08.45.12.74.12.38,0,.68-.08.89-.25.21-.17.32-.43.32-.8,0-.21-.06-.38-.18-.52-.12-.13-.27-.24-.46-.33-.19-.09-.4-.16-.64-.23-.24-.07-.49-.14-.74-.22-.25-.08-.5-.18-.74-.3-.24-.12-.46-.27-.64-.47-.19-.19-.34-.43-.46-.72-.12-.29-.17-.65-.17-1.07,0-.34.07-.67.2-1,.14-.32.34-.61.61-.86.26-.25.59-.46.98-.61.39-.15.83-.23,1.33-.23.28,0,.55.02.81.06.26.04.51.11.75.19.24.08.46.19.66.31.21.12.39.25.55.4l-.52.98Z"/>
        <path class="st5" d="M303.25,299.2h-.65c-.13,0-.22-.05-.28-.15l-1.21-1.7c-.04-.06-.08-.1-.13-.12-.05-.02-.11-.04-.2-.04h-.48v2.01h-.73v-4.9h1.41c.32,0,.59.03.82.1.23.07.42.16.57.28.15.12.26.26.33.43.07.17.11.36.11.57,0,.17-.03.33-.08.48-.05.15-.13.28-.23.4-.1.12-.22.22-.37.31-.15.09-.31.15-.49.2.09.05.17.13.24.23l1.38,1.91ZM300.97,296.66c.19,0,.35-.02.49-.07.14-.05.26-.11.36-.19.1-.08.17-.18.22-.3.05-.11.07-.24.07-.38,0-.28-.09-.5-.28-.64-.18-.14-.46-.21-.83-.21h-.69v1.79h.66Z"/>
        <polygon class="st5" points="306.92 298.61 306.92 299.2 303.88 299.2 303.88 294.3 306.92 294.3 306.92 294.89 304.61 294.89 304.61 296.44 306.47 296.44 306.47 297.01 304.61 297.01 304.61 298.61 306.92 298.61"/>
        <path class="st5" d="M310.35,295.1s-.05.07-.07.09c-.02.02-.06.03-.1.03-.04,0-.09-.02-.14-.06-.05-.04-.12-.08-.2-.13-.08-.05-.17-.09-.28-.13-.11-.04-.24-.06-.39-.06-.14,0-.27.02-.38.06-.11.04-.2.09-.27.15-.07.07-.13.14-.17.23-.04.09-.06.18-.06.28,0,.13.03.24.1.33.07.09.15.16.26.22.11.06.23.11.37.16.14.05.28.09.43.14.15.05.29.1.43.17.14.06.26.14.37.24.11.1.2.21.26.35s.1.31.1.51c0,.22-.04.42-.11.61-.07.19-.18.35-.32.49-.14.14-.31.25-.52.33-.21.08-.44.12-.7.12-.16,0-.31-.01-.46-.05-.15-.03-.29-.07-.42-.13-.13-.06-.26-.12-.37-.2-.12-.08-.22-.17-.31-.26l.21-.35s.05-.05.07-.07c.03-.02.06-.03.1-.03.05,0,.1.02.17.07.06.05.14.11.23.17.09.06.2.11.33.17.13.05.29.07.47.07.15,0,.28-.02.4-.06.12-.04.22-.1.3-.17.08-.07.14-.16.19-.27.04-.1.06-.22.06-.35,0-.14-.03-.26-.1-.35-.07-.09-.15-.17-.26-.23-.11-.06-.23-.11-.37-.16-.14-.04-.28-.09-.43-.13-.15-.05-.29-.1-.43-.16-.14-.06-.26-.14-.37-.24-.11-.1-.2-.22-.26-.37-.07-.15-.1-.33-.1-.55,0-.18.03-.34.1-.51.07-.16.17-.31.3-.43.13-.13.29-.23.48-.3.19-.08.41-.11.65-.11.27,0,.53.04.76.13.23.09.43.21.6.38l-.18.34Z"/>
        <rect class="st5" x="311.53" y="294.3" width=".73" height="4.9"/>
        <path class="st5" d="M317.74,296.75c0,.37-.06.7-.18,1-.12.3-.28.56-.5.77-.21.22-.47.38-.77.5-.3.12-.63.18-.99.18h-1.84v-4.9h1.84c.36,0,.7.06.99.18.3.12.55.28.77.5.21.21.38.47.5.77.12.3.18.63.18,1M317,296.75c0-.29-.04-.55-.12-.78-.08-.23-.19-.43-.34-.59-.15-.16-.32-.28-.53-.37-.21-.08-.44-.13-.7-.13h-1.11v3.73h1.11c.26,0,.49-.04.7-.13.21-.08.39-.21.53-.37.15-.16.26-.35.34-.58.08-.23.12-.49.12-.79"/>
        <polygon class="st5" points="321.7 298.61 321.69 299.2 318.66 299.2 318.66 294.3 321.69 294.3 321.69 294.89 319.39 294.89 319.39 296.44 321.24 296.44 321.24 297.01 319.39 297.01 319.39 298.61 321.7 298.61"/>
        <path class="st5" d="M326.61,294.3v4.9h-.37c-.06,0-.1-.01-.14-.03-.04-.02-.08-.05-.11-.1l-2.77-3.58c0,.06,0,.12.01.18,0,.06,0,.12,0,.17v3.36h-.64v-4.9h.38c.06,0,.11,0,.14.02.03.01.07.05.11.1l2.77,3.58c0-.07-.01-.13-.02-.19,0-.06,0-.12,0-.17v-3.34h.64Z"/>
        <polygon class="st5" points="331.16 294.91 329.6 294.91 329.6 299.2 328.88 299.2 328.88 294.91 327.31 294.91 327.31 294.3 331.16 294.3 331.16 294.91"/>
        <rect class="st5" x="331.86" y="294.3" width=".73" height="4.9"/>
        <path class="st5" d="M337.84,299.2h-.56c-.06,0-.12-.02-.16-.05-.04-.03-.07-.07-.09-.12l-.43-1.14h-2.16l-.43,1.14s-.05.08-.09.12c-.04.03-.1.05-.16.05h-.56l1.95-4.9h.73l1.95,4.9ZM336.4,297.38l-.73-1.9c-.05-.13-.1-.29-.16-.49-.03.1-.05.19-.08.27-.03.08-.05.16-.08.22l-.72,1.89h1.76Z"/>
        <polygon class="st5" points="341.25 298.59 341.25 299.2 338.45 299.2 338.45 294.3 339.18 294.3 339.18 298.59 341.25 298.59"/>
        <path class="st5" d="M347.71,299.2h-.65c-.07,0-.13,0-.17-.03-.04-.02-.09-.05-.14-.11l-.45-.46c-.21.2-.46.36-.74.47-.28.11-.58.17-.91.17-.18,0-.36-.03-.54-.09-.18-.06-.33-.15-.47-.27-.14-.12-.25-.26-.34-.43-.09-.17-.13-.36-.13-.57,0-.16.03-.31.08-.45s.12-.27.22-.39c.09-.12.2-.23.33-.32.13-.09.27-.18.42-.24-.13-.18-.23-.35-.29-.51-.06-.17-.09-.33-.09-.51s.03-.32.09-.47c.06-.15.15-.28.26-.39s.25-.2.42-.26c.17-.06.35-.1.56-.1.18,0,.35.03.5.09.15.06.28.14.39.23.11.1.2.21.26.34.06.13.1.26.11.4l-.42.08c-.08.02-.15-.02-.18-.11-.02-.06-.04-.12-.08-.18-.03-.06-.08-.12-.13-.17-.05-.05-.12-.09-.19-.12-.07-.03-.16-.05-.26-.05-.11,0-.21.02-.3.05-.09.04-.16.09-.22.15-.06.06-.11.14-.14.22s-.05.17-.05.27c0,.07,0,.15.03.22.02.07.05.14.08.21.04.07.09.14.14.22.06.07.13.15.21.24l1.38,1.42c.08-.15.15-.31.2-.47.05-.17.08-.33.1-.5,0-.04.02-.08.04-.11.02-.03.06-.04.1-.04h.41c0,.27-.05.54-.13.8-.08.26-.2.5-.35.72l1.02,1.05ZM344.52,296.82c-.23.12-.39.28-.5.45-.11.17-.17.36-.17.56,0,.14.03.27.08.38s.12.2.2.28c.09.08.18.13.29.17.11.04.22.06.34.06.24,0,.46-.04.65-.13.19-.09.37-.2.52-.34l-1.41-1.42Z"/>
        <path class="st5" d="M353.5,298.15s.08.02.11.05l.29.31c-.2.24-.44.42-.73.55-.29.13-.63.19-1.04.19-.35,0-.68-.06-.96-.18-.29-.12-.53-.29-.74-.51-.2-.22-.36-.48-.47-.79-.11-.31-.17-.65-.17-1.01s.06-.71.18-1.01c.12-.31.28-.57.49-.79.21-.22.46-.39.76-.52.3-.12.62-.18.98-.18s.66.06.93.17c.27.11.51.26.71.45l-.24.34s-.04.04-.06.06c-.02.02-.05.02-.09.02-.04,0-.09-.02-.15-.06-.06-.04-.13-.09-.23-.14-.09-.05-.21-.1-.35-.15-.14-.04-.31-.06-.52-.06-.24,0-.47.04-.67.13-.2.08-.38.21-.52.37-.15.16-.26.36-.34.59-.08.23-.12.5-.12.79s.04.56.13.79c.09.23.2.43.35.59.15.16.32.28.52.37.2.08.42.13.65.13.14,0,.27,0,.38-.03.11-.02.22-.04.31-.08.09-.03.18-.08.27-.13.08-.05.17-.12.25-.19.02-.02.04-.03.06-.04.02-.01.04-.02.07-.02"/>
        <path class="st5" d="M359.1,296.75c0,.37-.06.7-.18,1.01s-.28.57-.5.79c-.21.22-.47.39-.77.52-.3.12-.63.18-.99.18s-.69-.06-.99-.18c-.3-.12-.55-.3-.77-.52-.21-.22-.38-.49-.5-.79-.12-.31-.18-.64-.18-1.01s.06-.7.18-1.01c.12-.31.28-.57.5-.79.21-.22.47-.39.77-.52.3-.12.63-.19.99-.19s.7.06.99.19.55.3.77.52c.21.22.38.49.5.79s.18.64.18,1.01M358.36,296.75c0-.29-.04-.55-.12-.78-.08-.23-.19-.43-.34-.59-.15-.16-.32-.28-.53-.37-.21-.09-.44-.13-.7-.13s-.49.04-.7.13c-.21.09-.39.21-.53.37-.15.16-.26.36-.34.59-.08.23-.12.49-.12.78s.04.56.12.79c.08.23.19.43.34.59.15.16.33.29.53.37.21.08.44.13.7.13s.49-.04.7-.13c.21-.08.39-.21.53-.37.15-.16.26-.36.34-.59.08-.23.12-.49.12-.79"/>
        <path class="st5" d="M365.16,294.3v4.9h-.64v-3.49c0-.05,0-.11,0-.17,0-.06,0-.12.01-.18l-1.63,2.99c-.06.11-.14.17-.26.17h-.1c-.12,0-.21-.06-.26-.17l-1.66-3c.01.13.02.25.02.36v3.49h-.64v-4.9h.54c.06,0,.11,0,.15.02s.07.05.1.1l1.64,2.93c.03.06.06.12.09.19.03.07.05.13.08.2.05-.13.1-.26.17-.39l1.61-2.93c.03-.06.06-.09.1-.1.04-.01.08-.02.15-.02h.54Z"/>
        <path class="st5" d="M371.52,294.3v4.9h-.64v-3.49c0-.05,0-.11,0-.17,0-.06,0-.12.01-.18l-1.63,2.99c-.06.11-.14.17-.26.17h-.1c-.12,0-.21-.06-.26-.17l-1.66-3c.01.13.02.25.02.36v3.49h-.64v-4.9h.54c.06,0,.11,0,.15.02.04.01.07.05.1.1l1.64,2.93c.03.06.06.12.09.19.03.07.05.13.08.2.05-.13.1-.26.17-.39l1.61-2.93c.03-.06.06-.09.1-.1.04-.01.08-.02.15-.02h.54Z"/>
        <polygon class="st5" points="375.77 298.61 375.77 299.2 372.73 299.2 372.73 294.3 375.77 294.3 375.77 294.89 373.46 294.89 373.46 296.44 375.32 296.44 375.32 297.01 373.46 297.01 373.46 298.61 375.77 298.61"/>
        <path class="st5" d="M380.35,299.2h-.65c-.13,0-.22-.05-.28-.15l-1.21-1.7c-.04-.06-.08-.1-.13-.12-.05-.02-.11-.04-.21-.04h-.47v2.01h-.73v-4.9h1.41c.32,0,.59.03.82.1.23.07.42.16.57.28.15.12.26.26.33.43.07.17.11.36.11.57,0,.17-.03.33-.08.48-.05.15-.13.28-.23.4-.1.12-.23.22-.37.31-.15.09-.31.15-.49.2.09.05.17.13.23.23l1.38,1.91ZM378.06,296.66c.19,0,.35-.02.49-.07.14-.05.26-.11.36-.19.1-.08.17-.18.21-.3.05-.11.07-.24.07-.38,0-.28-.09-.5-.28-.64-.19-.14-.46-.21-.83-.21h-.69v1.79h.66Z"/>
        <path class="st5" d="M384.34,298.15s.08.02.1.05l.29.31c-.2.24-.44.42-.73.55-.29.13-.63.19-1.04.19-.35,0-.68-.06-.96-.18-.29-.12-.53-.29-.74-.51s-.36-.48-.47-.79c-.11-.31-.17-.65-.17-1.01s.06-.71.18-1.01c.12-.31.28-.57.49-.79.21-.22.46-.39.76-.52.3-.12.62-.18.98-.18s.66.06.93.17c.27.11.51.26.71.45l-.24.34s-.04.04-.06.06c-.02.02-.06.02-.09.02-.04,0-.09-.02-.15-.06-.06-.04-.13-.09-.23-.14-.09-.05-.21-.1-.35-.15-.14-.04-.31-.06-.52-.06-.24,0-.47.04-.67.13-.2.08-.38.21-.52.37-.15.16-.26.36-.34.59-.08.23-.12.5-.12.79s.04.56.13.79c.08.23.2.43.35.59.15.16.32.28.52.37.2.08.42.13.65.13.14,0,.27,0,.38-.03.11-.02.22-.04.31-.08.1-.03.18-.08.27-.13.08-.05.17-.12.25-.19.02-.02.04-.03.06-.04.02-.01.04-.02.07-.02"/>
        <rect class="st5" x="385.47" y="294.3" width=".73" height="4.9"/>
        <path class="st5" d="M391.44,299.2h-.56c-.06,0-.12-.02-.16-.05-.04-.03-.07-.07-.09-.12l-.43-1.14h-2.16l-.43,1.14s-.04.08-.09.12c-.04.03-.1.05-.16.05h-.56l1.95-4.9h.73l1.95,4.9ZM390.01,297.38l-.73-1.9c-.05-.13-.11-.29-.16-.49-.02.1-.05.19-.08.27s-.05.16-.08.22l-.72,1.89h1.76Z"/>
        <polygon class="st5" points="394.86 298.59 394.86 299.2 392.05 299.2 392.05 294.3 392.78 294.3 392.78 298.59 394.86 298.59"/>
        <polygon class="st5" points="278.45 286.02 278.01 286.03 278.01 287.43 279.98 288.71 281.69 289.81 281.69 286.07 278.45 286.02"/>
        <path class="st5" d="M285.23,292.1v-9.25s-2.28-.44-3.93,0c-1.66.44-2.71,1.3-2.71,1.3v1.53l3.54.02-.05,4.37,3.16,2.04Z"/>
        <path class="st5" d="M278.49,283.78l-.51-.68c.05-.04,1.27-1,3.19-1.51,1.92-.5,4.49-.02,4.6,0l-.49.84s-2.18-.42-4.01.06c-1.83.48-2.78,1.28-2.79,1.29"/>
        <polyline class="st5" points="269.74 284.57 269.76 274.65 270.16 274.5 270.16 272.58 272.2 271.8 272.2 284.41 271.09 283.72 269.74 284.56"/>
        <polygon class="st5" points="272.67 271.8 272.67 284.71 274.8 286.05 275.13 285.72 277.38 287.18 277.38 272.99 276.82 272.99 276.82 271.8 272.67 271.8"/>
        <polygon class="st5" points="252.26 279.82 252.27 291.5 249.56 291.5 249.56 282.04 251.18 281.18 251.18 280.37 252.26 279.82"/>
        <polygon class="st5" points="252.81 279.82 258.07 279.82 258.07 281.04 259.56 281.05 259.56 290.57 258.12 291.5 252.81 291.5 252.81 279.82"/>
        <path class="st5" d="M266.76,267.26h0l-.02,1.79s.79.07,1.73.98c.73.72.68,2.17.68,2.17v12.54l-5.48,3.51v-16.61s.32-4.13,3.1-4.38"/>
        <path class="st5" d="M257.93,271.87c0,1.03.01,7.24.01,7.24v.17s.67,0,.67,0v1.24h1.49l.02,9.8,2.98-1.7v-17.29s.32-4.13,3.1-4.38c0,0-3.4.12-5.72,1.22-2.18,1.04-2.56,2.69-2.56,3.71"/>
        <rect class="st5" x="281.32" y="296.41" width="1.21" height="1.21"/>
        <rect class="st5" x="282.88" y="296.41" width="1.21" height="1.21"/>
        <rect class="st5" x="281.32" y="297.97" width="1.21" height="1.21"/>
        <rect class="st5" x="282.88" y="297.97" width="1.21" height="1.21"/>
        <polygon class="st5" points="251.78 299.2 245.2 294.56 239.78 298.12 245.28 293.86 246 294.31 249.56 292.14 258.12 292.14 271.09 284.36 274.8 286.68 275.13 286.36 294.75 299 282.35 292.21 267.03 299.21 251.78 299.2"/>
        <polyline class="st5" points="244.81 296.42 244.81 297.64 243.6 297.64 243.6 296.42"/>
        <polyline class="st5" points="246.37 296.42 246.37 297.64 245.15 297.64 245.15 296.42"/>
        <polyline class="st5" points="243.6 299.2 243.6 297.98 244.81 297.98 244.81 299.2"/>
        <polyline class="st5" points="245.15 299.2 245.15 297.98 246.36 297.98 246.36 299.2"/>
      </g>
      <rect class="st5" x="417.15" y="263.54" width="165.83" height="47.4"/>
      <g class="st10">
        <path class="st9" d="M487.37,282.8c-.06.1-.13.17-.2.22-.07.05-.16.07-.27.07-.1,0-.2-.03-.31-.09-.11-.06-.23-.13-.37-.2-.14-.07-.3-.14-.48-.2-.18-.06-.38-.09-.61-.09-.39,0-.69.08-.88.25s-.29.39-.29.68c0,.18.06.33.17.45.12.12.27.22.46.31.19.09.4.17.65.24.24.07.49.15.74.24.25.09.5.19.74.32.24.12.46.27.65.46.19.19.34.41.46.68.12.27.17.59.17.97,0,.42-.07.81-.22,1.18-.15.37-.36.68-.63.96-.28.27-.62.49-1.02.64-.4.16-.86.23-1.38.23-.28,0-.57-.03-.86-.09s-.58-.14-.85-.25c-.27-.1-.53-.23-.77-.38s-.45-.31-.63-.49l.62-.98c.05-.07.11-.13.2-.18.08-.05.17-.07.26-.07.12,0,.25.04.38.12.13.08.27.17.43.26.16.1.34.18.55.26.21.08.45.12.73.12.38,0,.68-.08.89-.25s.32-.43.32-.8c0-.21-.06-.38-.18-.52-.12-.13-.27-.24-.46-.33-.19-.09-.4-.16-.64-.23-.24-.07-.49-.14-.74-.22-.25-.08-.5-.18-.74-.3-.24-.12-.46-.27-.64-.47-.19-.19-.34-.43-.46-.72-.12-.29-.17-.65-.17-1.07,0-.34.07-.67.2-1,.14-.32.34-.61.6-.86.27-.25.59-.46.98-.61.39-.15.83-.23,1.33-.23.28,0,.55.02.81.06.26.04.51.11.75.19s.46.19.66.31c.21.12.39.25.55.4l-.52.98Z"/>
        <path class="st9" d="M488.77,289.05c0-.15.03-.29.08-.42.06-.13.13-.24.23-.34.1-.1.21-.17.35-.23.13-.06.28-.08.44-.08s.3.03.43.08c.13.06.25.13.35.23s.18.21.23.34c.06.13.08.27.08.42s-.03.29-.08.42c-.06.13-.13.24-.23.34s-.22.17-.35.22c-.13.05-.28.08-.43.08s-.3-.03-.44-.08c-.13-.05-.25-.13-.35-.22-.1-.1-.17-.21-.23-.34-.06-.13-.08-.27-.08-.42"/>
        <polygon class="st9" points="497.97 282.62 495.42 282.62 495.42 290.03 493.31 290.03 493.31 282.62 490.76 282.62 490.76 280.95 497.97 280.95 497.97 282.62"/>
        <path class="st9" d="M497.77,289.05c0-.15.03-.29.08-.42.06-.13.13-.24.23-.34.1-.1.21-.17.35-.23.13-.06.28-.08.44-.08s.3.03.43.08c.13.06.25.13.35.23.1.1.18.21.23.34.06.13.08.27.08.42s-.03.29-.08.42c-.06.13-.13.24-.23.34-.1.1-.22.17-.35.22-.13.05-.28.08-.43.08s-.3-.03-.44-.08c-.13-.05-.25-.13-.35-.22-.1-.1-.17-.21-.23-.34-.06-.13-.08-.27-.08-.42"/>
        <path class="st9" d="M507.31,280.95c.64,0,1.19.08,1.65.23.46.15.84.36,1.13.63.3.27.52.58.66.94.14.36.21.75.21,1.17,0,.45-.07.87-.22,1.25-.15.38-.37.7-.67.97-.3.27-.68.48-1.14.63-.46.15-1,.23-1.63.23h-1.1v3.03h-2.1v-9.07h3.2ZM507.31,285.41c.55,0,.94-.13,1.18-.39.24-.26.36-.63.36-1.1,0-.21-.03-.4-.09-.57-.06-.17-.16-.32-.28-.44-.13-.12-.29-.22-.48-.28-.19-.07-.42-.1-.69-.1h-1.1v2.88h1.1Z"/>
        <path class="st9" d="M519.45,290.03h-1.91c-.35,0-.61-.13-.76-.4l-1.51-2.63c-.07-.11-.15-.19-.24-.25-.09-.05-.21-.08-.37-.08h-.54v3.36h-2.1v-9.07h2.95c.66,0,1.21.07,1.68.2.46.14.84.32,1.13.56.29.24.51.52.64.85.13.33.2.68.2,1.07,0,.29-.04.57-.12.83-.08.26-.2.5-.35.72-.15.22-.34.42-.57.59-.23.17-.49.32-.78.43.14.07.27.16.39.26.12.11.23.23.32.38l1.93,3.16ZM514.98,285.22c.29,0,.53-.04.73-.11.2-.07.37-.17.49-.3.13-.13.22-.28.28-.45.06-.17.09-.36.09-.56,0-.4-.13-.71-.39-.93-.26-.22-.66-.34-1.2-.34h-.85v2.69h.85Z"/>
        <path class="st9" d="M528.96,285.49c0,.66-.11,1.27-.34,1.83-.23.57-.54,1.06-.96,1.47-.41.42-.91.74-1.48.98-.58.24-1.22.35-1.93.35s-1.35-.12-1.93-.35c-.58-.24-1.08-.56-1.49-.98-.41-.42-.73-.91-.96-1.47-.23-.56-.34-1.17-.34-1.83s.11-1.27.34-1.83c.23-.56.55-1.05.96-1.47.41-.41.91-.74,1.49-.98.58-.24,1.22-.35,1.93-.35s1.35.12,1.93.36c.58.24,1.07.57,1.48.98.41.42.73.9.96,1.47.23.57.34,1.17.34,1.82M526.81,285.49c0-.45-.06-.85-.17-1.21-.12-.36-.28-.66-.5-.91-.22-.25-.48-.44-.8-.57-.32-.13-.67-.2-1.08-.2s-.77.07-1.09.2c-.32.13-.59.32-.8.57-.22.25-.38.55-.5.91-.12.36-.17.76-.17,1.21s.06.86.17,1.22.28.66.5.91c.22.25.49.44.8.57.32.13.68.2,1.09.2s.76-.07,1.08-.2c.32-.13.58-.32.8-.57s.39-.55.5-.91c.11-.36.17-.76.17-1.22"/>
        <path class="st9" d="M533.4,280.95c.64,0,1.19.08,1.65.23.46.15.84.36,1.13.63.3.27.52.58.66.94.14.36.21.75.21,1.17,0,.45-.07.87-.22,1.25s-.37.7-.67.97c-.3.27-.68.48-1.14.63-.46.15-1,.23-1.63.23h-1.1v3.03h-2.1v-9.07h3.2ZM533.4,285.41c.55,0,.94-.13,1.18-.39.24-.26.36-.63.36-1.1,0-.21-.03-.4-.09-.57-.06-.17-.16-.32-.28-.44-.13-.12-.29-.22-.48-.28-.19-.07-.42-.1-.69-.1h-1.1v2.88h1.1Z"/>
        <polygon class="st9" points="540.24 282.57 540.24 284.69 543.09 284.69 543.09 286.25 540.24 286.25 540.24 288.41 543.96 288.41 543.96 290.03 538.12 290.03 538.12 280.95 543.96 280.95 543.96 282.57 540.24 282.57"/>
        <path class="st9" d="M552.68,290.03h-1.9c-.35,0-.61-.13-.76-.4l-1.51-2.63c-.07-.11-.15-.19-.24-.25-.09-.05-.21-.08-.37-.08h-.54v3.36h-2.1v-9.07h2.95c.66,0,1.21.07,1.68.2.46.14.84.32,1.13.56.29.24.51.52.64.85.13.33.2.68.2,1.07,0,.29-.04.57-.12.83-.08.26-.2.5-.35.72-.15.22-.34.42-.57.59-.23.17-.49.32-.78.43.14.07.27.16.39.26.12.11.23.23.32.38l1.93,3.16ZM548.21,285.22c.29,0,.53-.04.73-.11.2-.07.37-.17.49-.3.13-.13.22-.28.28-.45.06-.17.09-.36.09-.56,0-.4-.13-.71-.39-.93-.26-.22-.66-.34-1.2-.34h-.85v2.69h.85Z"/>
        <polygon class="st9" points="559.78 282.62 557.23 282.62 557.23 290.03 555.12 290.03 555.12 282.62 552.57 282.62 552.57 280.95 559.78 280.95 559.78 282.62"/>
        <rect class="st9" x="560.85" y="280.96" width="2.12" height="9.07"/>
        <polygon class="st9" points="566.84 282.57 566.84 284.69 569.69 284.69 569.69 286.25 566.84 286.25 566.84 288.41 570.56 288.41 570.56 290.03 564.72 290.03 564.72 280.95 570.56 280.95 570.56 282.57 566.84 282.57"/>
        <path class="st9" d="M576.87,282.8c-.06.1-.13.17-.2.22-.07.05-.16.07-.26.07-.1,0-.2-.03-.31-.09-.11-.06-.23-.13-.37-.2-.14-.07-.3-.14-.48-.2-.18-.06-.38-.09-.61-.09-.39,0-.69.08-.88.25-.19.17-.29.39-.29.68,0,.18.06.33.17.45.12.12.27.22.46.31.19.09.4.17.65.24.24.07.49.15.74.24.25.09.5.19.74.32.24.12.46.27.65.46.19.19.34.41.46.68.12.27.17.59.17.97,0,.42-.07.81-.22,1.18-.15.37-.36.68-.63.96-.28.27-.62.49-1.02.64-.41.16-.86.23-1.38.23-.28,0-.57-.03-.86-.09-.29-.06-.58-.14-.85-.25-.27-.1-.53-.23-.77-.38-.24-.14-.45-.31-.63-.49l.62-.98c.05-.07.11-.13.2-.18.08-.05.17-.07.27-.07.12,0,.25.04.38.12.13.08.27.17.43.26.16.1.34.18.55.26.21.08.45.12.73.12.38,0,.68-.08.89-.25.21-.17.32-.43.32-.8,0-.21-.06-.38-.17-.52-.12-.13-.27-.24-.46-.33-.19-.09-.4-.16-.64-.23-.24-.07-.49-.14-.74-.22-.25-.08-.5-.18-.74-.3-.24-.12-.46-.27-.64-.47-.19-.19-.34-.43-.46-.72-.12-.29-.17-.65-.17-1.07,0-.34.07-.67.2-1,.14-.32.34-.61.6-.86.27-.25.59-.46.98-.61s.83-.23,1.33-.23c.28,0,.55.02.81.06.26.04.51.11.75.19.24.08.46.19.66.31.21.12.39.25.55.4l-.52.98Z"/>
        <path class="st9" d="M485.91,299.2h-.65c-.13,0-.22-.05-.28-.15l-1.21-1.7c-.04-.06-.08-.1-.13-.12-.05-.02-.11-.04-.2-.04h-.48v2.01h-.73v-4.9h1.41c.32,0,.59.03.82.1.23.07.42.16.57.28.15.12.26.26.33.43.07.17.11.36.11.57,0,.17-.03.33-.08.48-.05.15-.13.28-.23.4-.1.12-.22.22-.37.31-.15.09-.31.15-.49.2.09.05.17.13.24.23l1.38,1.91ZM483.62,296.66c.19,0,.35-.02.49-.07.14-.05.26-.11.36-.19.1-.08.17-.18.22-.3.05-.11.07-.24.07-.38,0-.28-.09-.5-.28-.64-.18-.14-.46-.21-.83-.21h-.69v1.79h.66Z"/>
        <polygon class="st9" points="489.58 298.61 489.57 299.2 486.54 299.2 486.54 294.3 489.57 294.3 489.57 294.89 487.27 294.89 487.27 296.44 489.12 296.44 489.12 297.01 487.27 297.01 487.27 298.61 489.58 298.61"/>
        <path class="st9" d="M493.01,295.1s-.05.07-.07.09c-.02.02-.06.03-.1.03-.04,0-.09-.02-.14-.06-.05-.04-.12-.08-.2-.13-.08-.05-.17-.09-.28-.13-.11-.04-.24-.06-.39-.06-.14,0-.27.02-.38.06-.11.04-.2.09-.27.15-.07.07-.13.14-.17.23-.04.09-.06.18-.06.28,0,.13.03.24.1.33.07.09.15.16.26.22.11.06.23.11.37.16.14.05.28.09.43.14.15.05.29.1.43.17.14.06.26.14.37.24.11.1.2.21.26.35s.1.31.1.51c0,.22-.04.42-.11.61-.07.19-.18.35-.32.49-.14.14-.31.25-.52.33-.21.08-.44.12-.7.12-.16,0-.31-.01-.46-.05-.15-.03-.29-.07-.42-.13-.13-.06-.26-.12-.37-.2-.12-.08-.22-.17-.31-.26l.21-.35s.05-.05.07-.07c.03-.02.06-.03.1-.03.05,0,.1.02.17.07.06.05.14.11.23.17.09.06.2.11.33.17.13.05.29.07.47.07.15,0,.28-.02.4-.06.12-.04.22-.1.3-.17.08-.07.14-.16.19-.27.04-.1.06-.22.06-.35,0-.14-.03-.26-.1-.35-.07-.09-.15-.17-.26-.23-.11-.06-.23-.11-.37-.16-.14-.04-.28-.09-.43-.13-.15-.05-.29-.1-.43-.16-.14-.06-.26-.14-.37-.24-.11-.1-.2-.22-.26-.37-.07-.15-.1-.33-.1-.55,0-.18.03-.34.1-.51.07-.16.17-.31.3-.43.13-.13.29-.23.48-.3.19-.08.41-.11.65-.11.27,0,.53.04.76.13.23.09.43.21.6.38l-.18.34Z"/>
        <rect class="st9" x="494.19" y="294.3" width=".73" height="4.9"/>
        <path class="st9" d="M500.4,296.75c0,.37-.06.7-.18,1-.12.3-.28.56-.5.77-.21.22-.47.38-.77.5-.3.12-.63.18-.99.18h-1.84v-4.9h1.84c.36,0,.7.06.99.18.3.12.55.28.77.5.21.21.38.47.5.77.12.3.18.63.18,1M499.65,296.75c0-.29-.04-.55-.12-.78-.08-.23-.19-.43-.34-.59-.15-.16-.32-.28-.53-.37-.21-.08-.44-.13-.7-.13h-1.11v3.73h1.11c.26,0,.49-.04.7-.13.21-.08.39-.21.53-.37.15-.16.26-.35.34-.58.08-.23.12-.49.12-.79"/>
        <polygon class="st9" points="504.35 298.61 504.35 299.2 501.31 299.2 501.31 294.3 504.35 294.3 504.35 294.89 502.04 294.89 502.04 296.44 503.9 296.44 503.9 297.01 502.04 297.01 502.04 298.61 504.35 298.61"/>
        <path class="st9" d="M509.26,294.3v4.9h-.37c-.06,0-.1-.01-.14-.03-.04-.02-.08-.05-.11-.1l-2.77-3.58c0,.06,0,.12.01.18,0,.06,0,.12,0,.17v3.36h-.64v-4.9h.38c.06,0,.11,0,.14.02.03.01.07.05.11.1l2.77,3.58c0-.07-.01-.13-.02-.19,0-.06,0-.12,0-.17v-3.34h.64Z"/>
        <polygon class="st9" points="513.81 294.91 512.26 294.91 512.26 299.2 511.53 299.2 511.53 294.91 509.97 294.91 509.97 294.3 513.81 294.3 513.81 294.91"/>
        <rect class="st9" x="514.52" y="294.3" width=".73" height="4.9"/>
        <path class="st9" d="M520.5,299.2h-.56c-.06,0-.12-.02-.16-.05-.04-.03-.07-.07-.09-.12l-.43-1.14h-2.16l-.43,1.14s-.05.08-.09.12c-.04.03-.1.05-.16.05h-.56l1.95-4.9h.73l1.95,4.9ZM519.06,297.38l-.73-1.9c-.05-.13-.1-.29-.16-.49-.03.1-.05.19-.08.27-.03.08-.05.16-.08.22l-.72,1.89h1.76Z"/>
        <polygon class="st9" points="523.91 298.59 523.91 299.2 521.11 299.2 521.11 294.3 521.83 294.3 521.83 298.59 523.91 298.59"/>
        <path class="st9" d="M530.36,299.2h-.65c-.07,0-.13,0-.17-.03-.04-.02-.09-.05-.14-.11l-.45-.46c-.21.2-.46.36-.74.47-.28.11-.58.17-.91.17-.18,0-.36-.03-.54-.09-.18-.06-.33-.15-.47-.27-.14-.12-.25-.26-.34-.43-.09-.17-.13-.36-.13-.57,0-.16.03-.31.08-.45s.12-.27.22-.39c.09-.12.2-.23.33-.32.13-.09.27-.18.42-.24-.13-.18-.23-.35-.29-.51-.06-.17-.09-.33-.09-.51s.03-.32.09-.47c.06-.15.15-.28.26-.39s.25-.2.42-.26c.16-.06.35-.1.56-.1.18,0,.35.03.5.09.15.06.28.14.39.23.11.1.19.21.26.34.06.13.1.26.11.4l-.41.08c-.09.02-.15-.02-.18-.11-.02-.06-.04-.12-.08-.18-.03-.06-.08-.12-.13-.17-.05-.05-.12-.09-.19-.12-.07-.03-.16-.05-.26-.05-.11,0-.21.02-.3.05-.09.04-.16.09-.22.15-.06.06-.11.14-.14.22-.03.08-.05.17-.05.27,0,.07,0,.15.03.22.02.07.05.14.08.21.04.07.09.14.15.22.06.07.13.15.21.24l1.38,1.42c.08-.15.15-.31.2-.47.05-.17.08-.33.1-.5,0-.04.02-.08.04-.11.02-.03.06-.04.1-.04h.41c0,.27-.05.54-.13.8-.08.26-.2.5-.35.72l1.02,1.05ZM527.17,296.82c-.23.12-.39.28-.5.45-.11.17-.16.36-.16.56,0,.14.03.27.08.38.05.11.12.2.21.28.09.08.18.13.29.17.11.04.22.06.34.06.24,0,.46-.04.65-.13.19-.09.36-.2.52-.34l-1.41-1.42Z"/>
        <path class="st9" d="M536.16,298.15s.08.02.11.05l.29.31c-.2.24-.44.42-.73.55-.29.13-.63.19-1.04.19-.35,0-.68-.06-.96-.18-.29-.12-.53-.29-.74-.51-.2-.22-.36-.48-.47-.79-.11-.31-.17-.65-.17-1.01s.06-.71.18-1.01c.12-.31.28-.57.49-.79.21-.22.47-.39.76-.52.29-.12.62-.18.98-.18s.66.06.93.17c.27.11.51.26.71.45l-.24.34s-.04.04-.06.06-.05.02-.09.02c-.04,0-.09-.02-.15-.06-.06-.04-.13-.09-.23-.14-.09-.05-.21-.1-.35-.15-.14-.04-.31-.06-.52-.06-.24,0-.47.04-.67.13-.2.08-.38.21-.52.37-.15.16-.26.36-.34.59-.08.23-.12.5-.12.79s.04.56.13.79c.08.23.2.43.35.59.15.16.32.28.52.37.2.08.42.13.65.13.14,0,.27,0,.38-.03.11-.02.22-.04.31-.08.09-.03.18-.08.27-.13.08-.05.17-.12.25-.19.02-.02.04-.03.06-.04.02-.01.04-.02.07-.02"/>
        <path class="st9" d="M541.76,296.75c0,.37-.06.7-.18,1.01s-.28.57-.5.79c-.21.22-.47.39-.77.52-.3.12-.63.18-.99.18s-.69-.06-.99-.18c-.3-.12-.55-.3-.77-.52-.21-.22-.38-.49-.5-.79s-.18-.64-.18-1.01.06-.7.18-1.01.28-.57.5-.79c.21-.22.47-.39.77-.52.3-.12.63-.19.99-.19s.7.06.99.19c.3.12.55.3.77.52.21.22.38.49.5.79s.18.64.18,1.01M541.01,296.75c0-.29-.04-.55-.12-.78-.08-.23-.19-.43-.34-.59-.15-.16-.32-.28-.53-.37-.21-.09-.44-.13-.7-.13s-.49.04-.7.13c-.21.09-.39.21-.53.37-.15.16-.26.36-.34.59-.08.23-.12.49-.12.78s.04.56.12.79c.08.23.19.43.34.59.15.16.33.29.53.37.21.08.44.13.7.13s.49-.04.7-.13.39-.21.53-.37c.15-.16.26-.36.34-.59.08-.23.12-.49.12-.79"/>
        <path class="st9" d="M547.82,294.3v4.9h-.64v-3.49c0-.05,0-.11,0-.17,0-.06,0-.12.01-.18l-1.63,2.99c-.06.11-.14.17-.26.17h-.1c-.12,0-.21-.06-.26-.17l-1.66-3c.01.13.02.25.02.36v3.49h-.64v-4.9h.54c.06,0,.11,0,.15.02.04.01.07.05.1.1l1.64,2.93c.03.06.06.12.09.19.03.07.05.13.08.2.05-.13.1-.26.17-.39l1.61-2.93c.03-.06.06-.09.1-.1.03-.01.08-.02.15-.02h.54Z"/>
        <path class="st9" d="M554.18,294.3v4.9h-.64v-3.49c0-.05,0-.11,0-.17,0-.06,0-.12.01-.18l-1.63,2.99c-.06.11-.14.17-.26.17h-.1c-.12,0-.21-.06-.26-.17l-1.66-3c.01.13.02.25.02.36v3.49h-.64v-4.9h.54c.06,0,.11,0,.15.02.04.01.07.05.1.1l1.64,2.93c.03.06.06.12.09.19.03.07.05.13.08.2.05-.13.1-.26.17-.39l1.61-2.93c.03-.06.06-.09.1-.1.04-.01.09-.02.15-.02h.54Z"/>
        <polygon class="st9" points="558.43 298.61 558.43 299.2 555.39 299.2 555.39 294.3 558.43 294.3 558.43 294.89 556.12 294.89 556.12 296.44 557.98 296.44 557.98 297.01 556.12 297.01 556.12 298.61 558.43 298.61"/>
        <path class="st9" d="M563,299.2h-.65c-.13,0-.22-.05-.28-.15l-1.21-1.7c-.04-.06-.08-.1-.13-.12-.05-.02-.11-.04-.21-.04h-.47v2.01h-.73v-4.9h1.41c.32,0,.59.03.82.1.23.07.42.16.57.28.15.12.26.26.33.43.07.17.11.36.11.57,0,.17-.03.33-.08.48-.05.15-.13.28-.23.4-.1.12-.23.22-.37.31-.15.09-.31.15-.49.2.09.05.17.13.23.23l1.38,1.91ZM560.72,296.66c.19,0,.35-.02.49-.07.14-.05.26-.11.36-.19.1-.08.17-.18.21-.3.05-.11.07-.24.07-.38,0-.28-.09-.5-.28-.64-.19-.14-.46-.21-.83-.21h-.69v1.79h.66Z"/>
        <path class="st9" d="M567,298.15s.08.02.1.05l.29.31c-.2.24-.44.42-.73.55-.29.13-.63.19-1.04.19-.35,0-.68-.06-.96-.18-.29-.12-.53-.29-.74-.51-.2-.22-.36-.48-.47-.79-.11-.31-.17-.65-.17-1.01s.06-.71.18-1.01c.12-.31.28-.57.49-.79.21-.22.47-.39.76-.52.29-.12.62-.18.98-.18s.66.06.93.17c.27.11.51.26.71.45l-.24.34s-.04.04-.06.06-.06.02-.09.02c-.04,0-.09-.02-.15-.06-.06-.04-.13-.09-.23-.14-.09-.05-.21-.1-.35-.15-.14-.04-.31-.06-.52-.06-.24,0-.47.04-.67.13-.2.08-.38.21-.52.37-.15.16-.26.36-.34.59-.08.23-.12.5-.12.79s.04.56.13.79c.08.23.2.43.35.59.15.16.32.28.52.37.2.08.42.13.65.13.14,0,.27,0,.38-.03.11-.02.22-.04.31-.08.09-.03.18-.08.27-.13.08-.05.17-.12.25-.19.02-.02.04-.03.06-.04.02-.01.04-.02.07-.02"/>
        <rect class="st9" x="568.12" y="294.3" width=".73" height="4.9"/>
        <path class="st9" d="M574.1,299.2h-.56c-.06,0-.12-.02-.16-.05-.04-.03-.07-.07-.09-.12l-.43-1.14h-2.16l-.43,1.14s-.04.08-.09.12c-.04.03-.1.05-.16.05h-.56l1.95-4.9h.73l1.95,4.9ZM572.66,297.38l-.73-1.9c-.05-.13-.11-.29-.16-.49-.02.1-.05.19-.08.27s-.05.16-.08.22l-.72,1.89h1.76Z"/>
        <polygon class="st9" points="577.52 298.59 577.52 299.2 574.71 299.2 574.71 294.3 575.44 294.3 575.44 298.59 577.52 298.59"/>
        <polygon class="st9" points="461.1 286.02 460.66 286.03 460.66 287.43 462.64 288.71 464.34 289.81 464.34 286.07 461.1 286.02"/>
        <path class="st9" d="M467.89,292.1v-9.25s-2.28-.44-3.93,0c-1.66.44-2.72,1.3-2.72,1.3v1.53l3.54.02-.05,4.37,3.16,2.04Z"/>
        <path class="st9" d="M461.15,283.78l-.51-.68c.05-.04,1.27-1,3.19-1.51,1.92-.5,4.49-.02,4.6,0l-.49.84s-2.18-.42-4.01.06c-1.83.48-2.78,1.28-2.79,1.29"/>
        <polyline class="st9" points="452.4 284.57 452.42 274.65 452.82 274.5 452.82 272.58 454.86 271.8 454.86 284.41 453.75 283.72 452.4 284.56"/>
        <polygon class="st9" points="455.32 271.8 455.32 284.71 457.46 286.05 457.79 285.72 460.04 287.18 460.04 272.99 459.48 272.99 459.48 271.8 455.32 271.8"/>
        <polygon class="st9" points="434.92 279.82 434.92 291.5 432.22 291.5 432.22 282.04 433.83 281.18 433.83 280.37 434.92 279.82"/>
        <polygon class="st9" points="435.46 279.82 440.73 279.82 440.73 281.04 442.22 281.05 442.22 290.57 440.78 291.5 435.46 291.5 435.46 279.82"/>
        <path class="st9" d="M449.41,267.26h0l-.02,1.79s.79.07,1.73.98c.73.72.68,2.17.68,2.17v12.54l-5.48,3.51v-16.61s.32-4.13,3.1-4.38"/>
        <path class="st9" d="M440.59,271.87c0,1.03.01,7.24.01,7.24v.17s.67,0,.67,0v1.24h1.49l.02,9.8,2.98-1.7v-17.29s.32-4.13,3.1-4.38c0,0-3.4.12-5.72,1.22-2.18,1.04-2.56,2.69-2.56,3.71"/>
        <rect class="st9" x="463.98" y="296.41" width="1.21" height="1.21"/>
        <rect class="st9" x="465.53" y="296.41" width="1.21" height="1.21"/>
        <rect class="st9" x="463.98" y="297.97" width="1.21" height="1.21"/>
        <rect class="st9" x="465.53" y="297.97" width="1.21" height="1.21"/>
        <polygon class="st9" points="434.44 299.2 427.85 294.56 422.43 298.12 427.93 293.86 428.65 294.31 432.22 292.14 440.78 292.14 453.75 284.36 457.46 286.68 457.79 286.36 477.41 299 465 292.21 449.69 299.21 434.44 299.2"/>
        <polyline class="st9" points="427.47 296.42 427.47 297.64 426.26 297.64 426.26 296.42"/>
        <polyline class="st9" points="429.02 296.42 429.02 297.64 427.81 297.64 427.81 296.42"/>
        <polyline class="st9" points="426.26 299.2 426.26 297.98 427.47 297.98 427.47 299.2"/>
        <polyline class="st9" points="427.81 299.2 427.81 297.98 429.02 297.98 429.02 299.2"/>
      </g>
    </g>
  </g>
</svg>